<svg xmlns="http://www.w3.org/2000/svg" width="151" height="50" viewBox="0 0 4530 1500"><path fill="#FFF" d="M2041.14 1498.386c-1.178-1.33.86-4.87 15.16-26.326l16.524-24.79-10.905-64.885c-6-35.687-10.91-65.448-10.92-66.135-.01-.966 5.53-1.25 24.38-1.25h24.39l.52 2.25c.29 1.237 2.65 18.675 5.24 38.75s5.04 36.866 5.44 37.314c.4.448 11.03-16.97 23.62-38.708l22.88-39.522 25.31-.042 25.31-.042-.32 2.828c-.46 4.094-112.83 180.114-115.01 180.147-.93.014-1.97.475-2.31 1.025-.39.623-9.56.986-24.31.962-20.03-.032-23.9-.276-25.05-1.576zm465.86-41.474c-19.653-2.523-35.28-12.565-42.493-27.308-7.32-14.96-7.36-40.394-.097-61.81 9.31-27.455 30.603-46.906 59.09-53.982 12.015-2.984 40.284-3.266 50.5-.503 21.857 5.91 35.683 20.03 39.032 39.87 1.643 9.73.68 28.84-2.008 39.82-2.643 10.79-10.417 26.69-16.957 34.69-9.67 11.82-27 23-41.49 26.75-12.963 3.36-31.013 4.33-45.577 2.46zm31.697-36.443c14.41-6.41 25.246-27.61 25.28-49.47.01-4.13-.44-9.13-.993-11.12-4.344-15.64-22.395-19.12-36.217-6.99-10.395 9.12-17.78 28.64-17.757 46.91.017 13.2 5.047 20.64 15.58 23.04 4.716 1.07 7.295.64 14.106-2.39zm-901.03 35.53c-10.57-1.03-26.18-4.27-37.167-7.72-11.632-3.66-13.5-4.8-13.5-8.21 0-2.47 7.095-37.38 8.602-42.34.414-1.36 1.64-1.75 5.495-1.75 4.28 0 5.658.55 10.028 4 11.38 8.99 27.773 15.76 43.776 18.06 10.06 1.45 25.47.72 32.91-1.56 6.31-1.93 12.64-7.29 14.21-12.05 2.54-7.7-4.26-13.16-24.21-19.42-7.31-2.3-18.06-5.67-23.89-7.51-16.02-5.05-25.24-9.95-32.98-17.54-9.31-9.14-11.26-14.42-11.27-30.5-.01-9.89.39-13.14 2.25-18.45 5.88-16.82 19.68-29.03 40.6-35.92 14.2-4.68 25.37-6.14 46.96-6.14 26.48 0 41.71 2.07 60.3 8.2 7.11 2.34 9.25 3.46 9.25 4.85 0 .98-2.02 11.16-4.5 22.61-2.47 11.45-4.5 20.93-4.5 21.07 0 .14-2.24.26-4.99.26-4.21 0-5.73-.57-9.75-3.66-14.78-11.37-41.15-18.14-59.76-15.35-10.3 1.55-16.61 4.29-20.98 9.13-8.7 9.64-1.59 16.69 24.58 24.4 41.92 12.35 54.39 19.07 61.41 33.12 2.63 5.26 2.97 7.07 3.32 17.47.47 13.84-.74 20.48-5.4 29.8-8.46 16.91-27.91 28.61-55.91 33.62-10.57 1.89-41.84 2.73-54.83 1.48zm260.068-.06c-9.343-2.31-18.306-9.34-22.284-17.47-2-4.1-2.8-7.54-3.19-13.82-1.97-31.59 14.95-49.83 53.44-57.6 10.64-2.15 35.31-5.07 43.01-5.1 5.9-.02 7.54-.99 7.54-4.44 0-3.77-4.74-8.33-10.42-10.01-12.84-3.82-26.06-2.74-47.99 3.92-6.41 1.94-13.28 3.54-15.25 3.54-4.5 0-4.49.26-.48-20.69l3.1-16.19 5.02-1.08c20.82-4.47 46.1-6.4 66.09-5.06 22.37 1.5 34.36 5.5 42.03 14.04 5.41 6.01 6.67 10.25 6.67 22.47 0 8.83-1.01 14.2-10.56 55.88-5.81 25.37-10.79 46.91-11.06 47.87-.46 1.6-2.48 1.75-23.93 1.75H1956v-4.5c0-2.48-.17-4.5-.38-4.5-.207 0-2.865 1.5-5.905 3.33-10.444 6.29-17.484 8.02-33.715 8.3-7.975.14-16.194-.17-18.265-.68zm57.187-37.11l8.552-4.35 2.7-11.48c1.486-6.32 2.6-11.58 2.476-11.71-.68-.68-24.13 3-29.65 4.66-10.495 3.15-17 9.99-17 17.88 0 6.51 7.248 10.45 17.935 9.76 5.11-.33 8.195-1.31 14.987-4.77zm390.578 37.04c-23.018-3.32-41.102-15.11-49.517-32.29-6.405-13.08-7.447-18.51-7.4-38.61.02-9.63.598-20.43 1.282-24 9.164-47.94 40.69-80.66 87.34-90.62 11.055-2.36 39.446-2.4 52.125-.07 10.988 2.02 23.46 5.86 30.67 9.45 4.982 2.48 5.528 3.08 5.8 6.33.166 1.97-1.696 11.65-4.137 21.5-2.442 9.85-4.723 19.15-5.07 20.66-.587 2.56-.986 2.75-5.74 2.75-4.914 0-5.374-.25-11.975-6.48-12.334-11.64-24.11-16.69-38.878-16.69-21.008 0-39.032 12.24-49.587 33.67-9.916 20.13-11.94 43.05-5.192 58.78 2.65 6.16 10.28 13.04 17.06 15.38 7.72 2.66 22.04 2.41 31.72-.55 9.14-2.8 23.12-9.88 31.1-15.76 5.12-3.77 6.59-4.36 10.91-4.36 4.79 0 5 .12 5.01 2.75 0 1.51-2.28 12.04-5.08 23.41l-5.08 20.66-9.67 3.99c-21.01 8.68-33.78 11.24-55.05 11.07-8.04-.07-17.32-.51-20.62-.99zm675.5-.8c-12.044-2.67-18.738-5.44-26.747-11.06-10.383-7.29-16.857-17-19.867-29.77-2.256-9.58-1.406-32.81 1.583-43.27 7.64-26.75 26.14-46.07 52.55-54.89 12.2-4.07 24.14-5.51 39.98-4.81 33.24 1.46 51.13 13.46 55.62 37.3 1.61 8.55.45 27.08-2.33 37.39l-2.3 8.5-49.75.26c-56.23.29-51.28-.59-48.17 8.52 7.24 21.25 42.27 24.86 74.24 7.66 5.69-3.07 8.42-3.94 12.25-3.94 4.12 0 4.92.3 4.92 1.85 0 2.87-8.01 36.55-8.9 37.44-1.31 1.3-14.62 5.67-23.93 7.84-13.01 3.04-47.27 3.59-59.18.95zm56-94.65c0-19.45-27.345-23.62-43.268-6.6-2.485 2.65-5.253 6.25-6.15 7.99l-1.633 3.15H3077v-4.55zm108.5 95.96c-1.1-.26-5.15-1.19-9-2.06-10.826-2.47-19.1-6.93-26.61-14.34-11.492-11.35-14.89-20.89-14.89-41.78 0-16.28 1.665-24.49 7.447-36.74 11.827-25.05 33.673-41.55 63.03-47.61 11.515-2.38 35.714-2.57 47.273-.38 13.65 2.59 27.235 7.77 27.273 10.4.013.87-2.113 10.25-4.724 20.84l-4.75 19.25h-5.1c-4.68 0-5.49-.37-9.78-4.49-5.84-5.6-14.34-9.95-22.58-11.58-8.13-1.6-17.22-.06-25.4 4.3-22.3 11.88-31.23 48.54-15.26 62.57 12.07 10.6 31.81 8.74 51.76-4.88 5-3.41 6.51-3.94 11.28-3.94 5.35 0 5.51.08 5.48 2.75-.03 3.53-8.54 37.24-9.64 38.21-1.28 1.13-13.24 5.67-19.89 7.55-4.36 1.23-11.02 1.77-24.95 2.02-10.45.18-19.9.13-21-.13zm253-.84c-20.64-4.02-36.767-14.56-43.723-28.59-4.957-10-6.066-16.74-5.5-33.47.594-17.56 2.087-24.26 8.254-37.03 15.01-31.09 45.77-47.07 86.97-45.18 27.76 1.27 44.6 9.73 52.14 26.18 5.33 11.64 5.5 34.21.38 50.74l-2.09 6.75H3436v2.8c0 4.19 4.69 12.79 8.84 16.22 6.92 5.71 13.1 7.36 27.66 7.38 11.48.02 13.936-.29 21-2.66 4.4-1.48 12.05-4.72 17-7.21 6.894-3.47 10.11-4.53 13.75-4.53 3.87 0 4.744.32 4.72 1.75-.018.96-1.933 9.85-4.256 19.75l-4.225 18-8 2.82c-16.07 5.68-23.33 6.82-46 7.23-15.04.27-22.99 0-28-.98zm54.5-94.61c0-19.31-25.783-24.28-42.33-8.17-2.658 2.58-5.704 6.39-6.77 8.45l-1.94 3.75H3493v-4.04zm84.91 94.14c-13.853-4.44-22.744-14.77-26.524-30.85-2.28-9.7-1.39-35.6 1.61-46.76 2.685-10 9.6-24.78 15.38-32.88 9.36-13.12 24.422-24.74 38.624-29.81 5.857-2.09 8.23-2.32 24-2.32 16.536 0 17.91.15 24.948 2.72 4.096 1.49 7.525 2.62 7.62 2.5.095-.12 2.737-11.47 5.87-25.22 3.136-13.75 5.925-25.78 6.2-26.75.455-1.6 2.493-1.75 24.43-1.75H3724l-.02 2.75c-.01 1.52-9.602 44.15-21.317 94.75l-21.3 92-24.32.27-24.32.27.618-4.51.62-4.51-8.23 4.41c-4.52 2.43-10.67 5.12-13.66 5.99-7.7 2.24-26.71 2.06-34.16-.32zm56.717-39.54l7.127-3.36 2.735-11.86c1.5-6.52 4.66-20.18 7.03-30.35 2.36-10.17 4.1-18.81 3.87-19.19-.24-.38-3.78-1.44-7.87-2.35-5.99-1.33-8.43-1.45-12.52-.57-15.06 3.23-26.12 14.24-31.54 31.38-3.19 10.07-4.23 21.92-2.48 28.15 1.6 5.73 7.33 11.172 12.7 12.072 2.09.35 4.26.755 4.81.89 2.1.54 9.28-1.62 16.12-4.84zM1800.5 1455.42c-10.885-2.543-14.214-4.09-19.16-8.902-6.63-6.443-7.726-10.33-7.074-25.02.4-9 1.785-16.533 7.61-41.44 3.92-16.74 7.124-30.804 7.124-31.25 0-.44-3.6-.805-8-.805h-8l-.02-2.75c-.013-1.512 1.415-8.937 3.17-16.5l3.194-13.75h8.81c8.31 0 8.838-.126 9.34-2.25.294-1.237 2.24-9.674 4.326-18.75l3.792-16.5 24.194-.267c22.573-.25 24.193-.15 24.182 1.5-.01 1.43-2.597 13.17-7.497 34.017l-.52 2.25H1885v2.25c0 1.238-1.46 8.66-3.25 16.498l-3.25 14.25h-40.114l-7.298 31.53c-8.845 38.21-8.8 39.44 1.504 42.49 3.514 1.04 5.273.91 12.44-.9 4.592-1.16 10.063-2.11 12.158-2.11 3.5 0 3.806.22 3.76 2.75-.026 1.51-1.53 9.04-3.34 16.73l-3.295 13.97-5.907 1.33c-5.763 1.3-43.798 2.6-47.908 1.64zm1507.77-.415c-11.457-2.427-20.1-8.97-22.872-17.314-1.28-3.85-1.53-7.38-1.137-16.06.42-9.15 1.77-16.49 7.63-41.39 3.92-16.64 7.12-30.71 7.12-31.25 0-.56-3.43-.98-8-.98h-8l-.01-2.75c0-1.51 1.43-8.94 3.18-16.5l3.19-13.75h8.8c8.3 0 8.84-.13 9.37-2.25.31-1.24 2.27-9.67 4.36-18.75l3.8-16.5 24.16-.27c23.04-.25 24.17-.18 24.17 1.61 0 1.62-6.18 29.55-7.62 34.42-.48 1.63.89 1.75 19.05 1.75H3395l.01 2.25c0 1.24-1.44 8.66-3.204 16.5l-3.21 14.25h-40.173l-7.32 31.85c-8.836 38.43-8.793 39.38 1.915 42.22 3.79 1.01 5.497.91 10.987-.61 3.575-.99 8.863-1.99 11.75-2.22 5.21-.42 5.25-.4 5.21 2.42-.022 1.57-1.5 9.13-3.287 16.81l-3.247 13.97-5.96 1.35c-7.16 1.61-44.11 2.52-50.19 1.23zM2622 1451.23c0-1.524 6.906-32.687 15.347-69.25l15.346-66.48 24.285-.268 24.284-.268-.654 4.936-.655 4.936 10.302-5.234c13.21-6.712 19.002-7.923 35.343-7.388 15.28.5 21.878 2.57 28.424 8.923 6.772 6.573 8.366 11.292 8.733 25.863l.315 12.5-10.827 47-10.827 47-24.208.268-24.208.268v-2.46c0-1.353 3.79-19.024 8.42-39.268 11.108-48.558 11.117-48.613 9.153-53.756-2.018-5.283-6.183-7.816-12.965-7.883-5.503-.06-15.69 2.99-22.056 6.6l-3.948 2.23-8.77 38c-4.822 20.9-9.72 42.16-10.883 47.24l-2.11 9.25H2622v-2.77zm173 .95c0-1.02 6.55-30.165 14.556-64.767s15.018-65.05 15.583-67.663l1.02-4.75h48.09l-.49 5.035c-.27 2.77-.21 4.894.12 4.72 12.63-6.596 22.33-10.87 26.75-11.785 3.24-.674 11.09-1.007 18.72-.794 11.93.333 13.7.63 19.44 3.258 12.99 5.953 17.73 14.993 17.62 33.566-.07 10.948-.58 13.716-10.75 57.66-5.88 25.39-10.68 46.426-10.68 46.75 0 .325-10.8.59-24 .59h-24v-3.823c0-2.102 2.5-14.59 5.56-27.75 8.95-38.545 12.44-55.048 12.44-58.908 0-12.2-11.8-16.19-28.56-9.67-4.43 1.72-8.82 3.7-9.75 4.39-1.23.9-4.71 14.37-12.49 48.25l-10.8 47-24.21.26c-23.01.25-24.21.17-24.21-1.59zm-1469.5-11.696c-55.55-3.453-101.112-6.325-101.25-6.38-1.125-.463.387-5.42 3.624-11.876 15.34-30.603 17.274-61.675 5.746-92.366-1.99-5.302-3.62-10.766-3.62-12.144 0-2.435.248-2.524 8.75-3.143 13.392-.976 193.304-10.575 198.205-10.575 4.154 0 4.69.388 14.927 10.76 15.855 16.066 22.81 29.718 25.248 49.554 3.112 25.32-5.39 50.31-25.832 75.936l-5.384 6.75-9.707-.118c-5.34-.066-55.157-2.945-110.707-6.398zm-250-15.044c-56.1-3.475-103.735-6.345-105.855-6.38l-3.855-.06.475-3.75c.26-2.062 1.705-8.25 3.21-13.75 5.217-19.087 4.52-40.002-1.995-59.963-1.364-4.18-2.48-8.71-2.48-10.068 0-2.12.462-2.47 3.25-2.48 1.787 0 52.975-2.7 113.75-6s112.345-6 114.6-6h4.098l4.678 9.94c7.664 16.29 8.995 22.62 9.055 43.05.05 15.33-.23 18.47-2.22 25.39-2.87 9.94-7.68 20.39-13.58 29.51l-4.58 7.09-8.27-.12c-4.54-.07-54.17-2.97-110.27-6.44zm-257-15.484c-60.5-3.76-112.362-6.862-115.25-6.895-5.244-.06-5.25-.06-5.25-3.31 0-1.78.714-6.85 1.586-11.25 1.962-9.9 2.188-26.6.49-36.31-.703-4.02-1.004-7.59-.67-7.92.49-.49 223.17-13.05 234.094-13.21 2.777-.04 3.204.46 5.746 6.71 9.056 22.25 9.937 47.11 2.454 69.25l-3.212 9.5-4.994.15c-2.747.08-54.494-2.93-114.994-6.69zm-373-22.517c-119.9-7.33-218.113-13.35-218.25-13.39-.138-.03-.25-1.18-.25-2.56 0-1.87.527-2.5 2.088-2.5 1.148 0 98.01-5.17 215.25-11.48 117.24-6.32 216.524-11.6 220.634-11.75l7.472-.27 1.335 7c1.81 9.52 1.12 31.69-1.28 41.25l-1.83 7.25-3.59-.12c-1.97-.07-101.69-6.12-221.59-13.44zm1484-295.83c-29.048-5.7-48.286-13.48-57.632-23.3-6.298-6.62-8.333-12.58-9.974-29.17-2.62-26.51 3.792-64.06 18.038-105.65 12.993-37.93 115.16-329.69 133.04-379.93 13.655-38.37 21.786-59.58 28.18-73.5 20.71-45.11 31.215-61.69 51.104-80.68 26.39-25.2 65.356-41.4 115.17-47.88 25.03-3.26 50.155-3.65 211.074-3.26 140.865.34 160.39.57 171.175 2.04 31.682 4.3 51.41 11.12 62.032 21.44 6.817 6.62 15.58 26.64 18.242 41.68 1.52 8.6 1.27 31.47-.47 43.06-3.94 26.23-9.49 43.93-45.18 144-24.35 68.26-32.72 91.84-42.01 118.25l-1.5 4.25-183.16.01-183.16.01-33.88 93.52c-33.04 91.18-33.93 93.85-35.84 106.73-2.29 15.5-2.07 28.47.58 33.52 7.63 14.52 36 26.12 53.04 21.68 19.68-5.13 38.31-23.45 50.57-49.74 2.11-4.53 6.56-16.12 9.89-25.74 8.81-25.52 28.96-82.18 29.32-82.46.17-.13 54.53.34 120.8 1.05 66.27.7 124.21 1.31 128.75 1.34 7.76.06 8.25.19 8.25 2.22 0 2.32-65.55 168.02-69.75 176.33-11.08 21.88-31.63 46.88-48.25 58.69-15.78 11.21-43.49 22.78-66.5 27.78-23.93 5.19-17.2 5.03-225.5 5.53l-194.5.47-12-2.358zm445.824-522.11c20.598-62.01 20.55-61.77 14.92-73.79-12.166-26-42.726-33.62-74.244-18.51-14.7 7.05-28.634 23.18-39.045 45.2-2.624 5.55-11.622 30.12-19.995 54.59-8.373 24.47-15.44 45.06-15.702 45.75-.382 1 11.31 1.2 57.825 1l58.303-.26 17.938-54zM1.168 1091.41c-1.027-1.162-1.084-2.217-.25-4.61.595-1.708 1.082-4.89 1.082-7.073 0-2.7 46.5-136.857 145.612-420.1 185.035-528.795 177.294-506.57 180.03-516.965 4.444-16.885 4.102-32.25-1.055-47.412-8.58-25.223-29.725-48.167-61.22-66.428-11.418-6.62-32.13-16.484-44.867-21.37C210.074 3.462 207.36 2 210.36 2c.966 0 1.48-.45 1.14-1-.412-.666 126.347-1 379.512-1C936.807 0 971.286.143 972.73 1.587c1.45 1.45.13 5.247-15.198 43.75-26.154 65.7-35.704 83.715-54.764 103.305-15.19 15.614-29.943 24.174-56.318 32.678-19.327 6.23-30.63 6.868-136.95 7.716-57.842.46-95.04 1.147-100.188 1.848-17.525 2.385-33.053 10.385-43.372 22.346-11.673 13.528-11.683 13.55-34.885 79.432L509.278 354.5l81.86.256 81.862.256v2.47c0 1.36-14.922 43.658-33.16 93.995L606.68 543h-159.5l-2.47 7.25c-1.357 3.987-28.898 83.075-61.202 175.75s-61.633 177.05-65.175 187.5c-16.985 50.112-34.387 85.776-53.295 109.226-10.534 13.065-27.98 29.49-39.448 37.14-25.516 17.02-45.287 24.094-81.368 29.114-24.067 3.35-39.46 4.02-91.172 3.982-43.757-.033-50.73-.24-51.882-1.546zm549.148.01c-9.086-1.53-15.9-3.766-25.315-8.307-10.36-5-22.32-16.76-27.44-26.98-14.13-28.19-10.44-71.17 10.67-124.14 2.74-6.88 36.92-104.96 75.95-217.96 39.03-113.008 72.93-210.258 75.33-216.11 20.71-50.567 50.8-91.69 82.86-113.25 22.32-15.003 58.46-24.883 104.66-28.6 16.08-1.294 349.12.433 363 1.88 56.91 5.94 78.61 17.757 86.76 47.247 1.38 4.98 1.74 10.26 1.72 25.292-.02 20.052-.88 26.25-6.11 44.373-6.75 23.35-87.65 257.95-126.77 367.625-50.43 141.362-49.05 137.65-55.81 150.5-21.9 41.64-54.22 72.007-92.77 87.173-14.2 5.586-32.51 7.942-85 10.932-28.87 1.644-372.11 1.93-381.68.315zm263.01-100.86c14.226-2.723 26.282-9.264 38.248-20.753 12.826-12.313 22.082-27.71 28.443-47.315 1.784-5.5 16.648-47.573 33.03-93.498 24.943-69.925 55.998-159.35 95.498-275 4.49-13.145 7.755-24.55 8.403-29.35 3.345-24.784-10.472-45.463-36.134-54.077-11.765-3.95-24.4-3.05-38.78 2.758-22.822 9.217-43.385 32.31-55.156 61.937-1.944 4.892-89.623 257.362-115.928 333.81-6.545 19.02-12.85 38.37-14.01 43-2.933 11.697-3.702 32.044-1.556 41.172 5.102 21.7 19.995 34.59 43.616 37.75 3.025.406 5.798.796 6.162.868.364.07 4.038-.52 8.165-1.31zm335.705 99.688c.02-1.514 57.07-167.453 126.79-368.753l126.76-366 124.72-.255 124.72-.254v2.092c0 1.715-5.2 16.89-17.53 51.104l-1.33 3.687 19.69-9.85c25.01-12.51 42.41-20.2 64.3-28.39 68.45-25.62 118.76-31.04 176.2-19.02 42.06 8.8 64.89 26.87 73.58 58.23 4.15 14.97 5.41 27.32 4.8 47.14-1.12 36.36-9.03 74.74-22.33 108.34-3.01 7.61-33.54 95.59-67.84 195.51-34.29 99.92-73.91 213.62-88.04 252.66-14.13 39.04-26.13 72.22-26.68 73.73l-.99 2.75h-126.4c-121.06 0-126.4-.08-126.4-1.8 0-.99 31-90.65 68.89-199.25 80.08-229.53 114.48-330.11 116.75-341.33 4.92-24.24-6.72-45.3-27.66-50.07-21.98-5-42.36.82-58.19 16.63-6.77 6.75-8.47 9.24-13.69 20.01-14.44 29.81-15.28 32.05-123 327.8l-82.87 227.5-122.11.25-122.12.25.03-2.757zm1516.97.998c0-1.06 67.53-194.94 150.07-430.84 172.31-492.483 179.26-512.46 181.58-521.904 2.37-9.64 2.34-27.713-.06-37-4.07-15.77-14.97-34-28.17-47.083-16.74-16.6-44.21-33-78.76-47-9.72-3.94-12.37-5.36-10.15-5.45 2.6-.1 2.73-.23 1-.98-1.12-.48 165.29-.89 378.32-.93 330.68-.06 380.52.12 381.77 1.38 1.27 1.26-.85 7.21-16.66 46.75-25.99 65.02-34.19 80.39-53.63 100.41-14.59 15.03-27.51 22.65-53.28 31.42-21.08 7.18-35.09 7.99-144.51 8.4-52.23.2-81.96.7-90 1.52-21.32 2.17-35.01 8.38-47.17 21.41-12.85 13.76-12.36 12.67-36.13 80.14l-21.84 62 81.89.25 81.89.26-.31 3.33c-.17 1.83-15.16 44.34-33.31 94.47l-33 91.14-79.85.27-79.85.26-65.4 188c-77.77 223.59-72.86 209.75-82.13 231.17-12.5 28.89-22.31 45.19-39.4 65.49-16.66 19.79-34.09 33.26-57.86 44.74-18.51 8.94-41.57 14.32-78 18.21-5.83.62-36.38 1.33-68.75 1.592-57.11.46-58.25.44-58.25-1.46zm474.03-.84c.02-1.6 57.12-167.61 126.89-368.91l126.85-366 124.62-.25 124.62-.25v2.77c0 3.1-205.8 595.165-211.25 607.736-16.36 37.755-38.73 68.967-62.05 86.593-8.61 6.51-33.68 19.444-45.14 23.293-30.01 10.08-81.47 15.947-151.8 17.3l-32.75.634.03-2.91zm270.97.48c0-1.16 61.89-95.03 137.53-208.6l137.53-206.48 6.97-155.65c3.84-85.61 6.97-157.79 6.98-160.404l.01-4.75h252v2.207c0 1.21-9.9 64.73-22.01 141.15-12.11 76.42-21.88 139.08-21.72 139.24.17.16 36.33-63.24 80.36-140.9l80.05-141.2 124.66-.25 124.66-.26v2.47c0 1.54-40.38 66.96-108.16 175.19l-108.17 172.73 12.2 190.06c6.71 104.53 12.18 191.75 12.16 193.81l-.04 3.75H3874.7l.654-96.25c.37-52.94.92-133.15 1.23-178.25l.57-82-16.52 31.5c-9.08 17.32-50.9 97.42-92.92 178l-76.4 146.5-140.15.25-140.14.25v-2.12zm1006.5-752.53c-15.81-2.51-31.55-8.66-42.9-16.75-9.33-6.66-21.37-19.96-26.86-29.67-9.23-16.33-13.54-35.52-12.34-54.937 1.11-17.96 5.89-33.03 14.81-46.7 20.11-30.81 54.99-46.71 92.9-42.37 23.14 2.65 42.35 12.24 58.47 29.19 10.87 11.42 18.25 24.76 22.6 40.86 1.99 7.35 2.29 10.79 2.25 25.5-.06 20.26-1.61 27.42-9.32 43-9.39 18.96-23.58 33.15-42.58 42.57-13.92 6.9-22.8 8.99-40 9.42-7.7.19-15.35.13-17-.13zm28-34.05c26.88-6.65 48.55-33.68 48.77-60.81.08-9.11-1.63-16.15-6.28-26-8.55-18.11-23.09-30.24-42.65-35.61-19.83-5.44-42.16 1.15-58.24 17.18-11.88 11.85-17.98 25.28-18.83 41.48-1.64 31.26 23.38 60.633 55.72 65.394 6.46.95 13.16.445 21.53-1.63zm-51.5-61.67v-43.37l13.5-.716c13.92-.738 31.44-.04 37.39 1.488 5.02 1.29 10.48 5.468 13 9.96 2.84 5.043 3.8 15.44 2.16 23.345-1.03 4.965-1.99 6.626-6.37 11l-5.16 5.152 11.75 15.72c7.77 10.386 11.75 16.575 11.75 18.25V286h-28.89l-10.8-15c-5.94-8.25-11.36-15-12.05-15-.94 0-1.25 3.667-1.25 15v15h-25v-43.365zm35.57-8.1c3.76-1.57 6.56-6.355 5.68-9.703-.93-3.583-5.13-5.834-10.88-5.834H4419v17h3.532c1.943 0 5.107-.66 7.033-1.46zm-1023.55 73.24c.02-5.75 6.85-25.71 12.99-37.976 10.71-21.386 25.49-37.794 41.08-45.586 16.37-8.187 8.04-7.64 121.68-7.98l101.25-.307v2.92c0 1.607-.71 6.684-1.58 11.283-5.59 29.62-16.53 53.2-31.05 66.902-7.11 6.713-10.87 9.07-19.37 12.12l-6.5 2.335-109.25.28-109.25.28.02-4.28z"/></svg>