<?xml version="1.0" encoding="utf-8"?>
<!-- Generator: Adobe Illustrator 22.1.0, SVG Export Plug-In . SVG Version: 6.00 Build 0)  -->
<svg version="1.1" id="Слой_1" xmlns="http://www.w3.org/2000/svg" xmlns:xlink="http://www.w3.org/1999/xlink" x="0px" y="0px"
	 viewBox="0 0 516 404" style="enable-background:new 0 0 516 404;" xml:space="preserve">
<style type="text/css">
	.st0{fill:#FFFFFF;}
</style>
<path class="st0" d="M500.5,213.5L500.5,213.5L408,40.8l0,0C398.9,21.4,379.3,8,356.5,8c-31.4,0-56.9,25.5-56.9,56.9
	c0,9.4,2.3,18.2,6.3,25.9h-0.1l0.6,1.2l0,0l51,95.4h-0.1c2,3.8,3.1,8.1,3.1,12.7c0,15.3-12.4,27.7-27.7,27.7
	c-10.6,0-19.7-5.9-24.4-14.6v0.6c-0.3-0.5-0.5-1.1-0.8-1.6L215.3,40c-9.2-19-28.6-32.1-51.2-32.1c-31.4,0-56.9,25.5-56.9,56.9
	c0,9.2,2.2,17.9,6.1,25.5h-0.1l0.7,1.2c0.1,0.2,0.2,0.4,0.3,0.6l51.2,95.8c1.6,3.5,2.5,7.5,2.5,11.6c0,15.6-12.6,28.2-28.2,28.2
	c-10.8,0-20.1-6-24.9-14.9v0.1c-9.5-18.1-28.5-30.4-50.3-30.4c-31.4,0-56.9,25.5-56.9,56.9s25.5,56.9,56.9,56.9
	c20.5,0,38.5-10.9,48.5-27.2v0.1c10.2-15.9,28-26.4,48.2-26.4c19.3,0,36.4,9.6,46.8,24.2c9.7,17.4,28.3,29.2,49.7,29.2
	c21.6,0,40.4-12.1,50.1-29.8c10.1-14.5,27-24.1,46-24.1c19.7,0,37,10.2,47,25.6c9.9,16.9,28.2,28.3,49.2,28.3
	c31.4,0,56.9-25.5,56.9-56.9C507,230.3,504.7,221.4,500.5,213.5z"/>
<g>
	<path class="st0" d="M13.3,394c-0.8-0.7-1.1-1.8-1.1-3.1v-40.4c0-1.3,0.4-2.4,1.1-3.1c0.8-0.7,1.8-1.1,3.2-1.1h25
		c1.3,0,2.4,0.3,3.1,0.9c0.7,0.6,1.1,1.5,1.1,2.6c0,1.2-0.4,2-1.1,2.7s-1.8,0.9-3.1,0.9H20.9v13.5h19.2c1.3,0,2.4,0.3,3.1,0.9
		s1.1,1.5,1.1,2.6s-0.4,2-1.1,2.6s-1.8,0.9-3.1,0.9H20.9v14.3h20.6c1.3,0,2.4,0.3,3.1,0.9s1.1,1.5,1.1,2.7c0,1.1-0.4,2-1.1,2.6
		c-0.7,0.6-1.8,0.9-3.1,0.9h-25C15.1,395.1,14,394.8,13.3,394z"/>
	<path class="st0" d="M52.4,379.1c-0.7-0.6-1-1.4-1-2.5s0.3-1.9,1-2.5s1.7-0.9,3-0.9h14.3c1.3,0,2.3,0.3,3,0.9s1,1.5,1,2.5
		c0,1.1-0.3,1.9-1,2.5s-1.7,0.9-3,0.9H55.4C54.1,380,53.1,379.7,52.4,379.1z"/>
	<path class="st0" d="M129.4,347.1c0.8,0.8,1.2,1.9,1.2,3.2v41.1c0,1.3-0.4,2.3-1.1,3.1c-0.7,0.7-1.7,1.1-2.9,1.1s-2.2-0.4-2.8-1.1
		c-0.7-0.7-1-1.8-1-3.1v-28.6L111,385.1c-0.6,1-1.2,1.8-1.8,2.3s-1.4,0.7-2.3,0.7s-1.6-0.2-2.3-0.7c-0.6-0.5-1.2-1.2-1.8-2.3
		l-11.9-22v28.2c0,1.2-0.4,2.3-1.1,3c-0.7,0.8-1.7,1.1-2.9,1.1s-2.2-0.4-2.8-1.1c-0.7-0.7-1-1.8-1-3.1v-41.1c0-1.3,0.4-2.4,1.1-3.2
		c0.8-0.8,1.8-1.2,3.1-1.2c1.8,0,3.2,1,4.2,3l15.4,29.3l15.3-29.3c1-2,2.4-3,4.1-3C127.6,345.9,128.6,346.3,129.4,347.1z"/>
	<path class="st0" d="M186,391.6c0,1.1-0.4,2-1.3,2.7c-0.9,0.7-1.8,1.1-2.9,1.1c-0.7,0-1.4-0.2-2.1-0.6c-0.6-0.4-1.2-1-1.5-1.8
		l-4.2-9.3h-24.4l-4.2,9.3c-0.4,0.8-0.9,1.4-1.5,1.8s-1.4,0.6-2.2,0.6c-1.1,0-2-0.4-2.9-1.1s-1.3-1.6-1.3-2.7c0-0.6,0.1-1.2,0.4-1.8
		l19.1-41.1c0.4-0.9,1.1-1.6,1.9-2.1c0.9-0.5,1.8-0.7,2.7-0.7c1,0,1.9,0.2,2.7,0.7c0.9,0.5,1.5,1.2,1.9,2.1l19.2,41.1
		C185.8,390.4,186,391,186,391.6z M152.6,376.8h18.3l-9.2-20.6L152.6,376.8z"/>
	<path class="st0" d="M232.6,392c0,1.1-0.4,1.9-1.3,2.6c-0.9,0.7-1.9,1-3,1c-0.7,0-1.4-0.2-2.1-0.5c-0.7-0.3-1.2-0.9-1.7-1.6
		l-9.2-14c-0.9-1.5-1.9-2.5-2.9-3.1s-2.4-0.9-4.1-0.9h-6.8V391c0,1.4-0.4,2.5-1.2,3.3s-1.8,1.2-3.2,1.2c-1.3,0-2.4-0.4-3.2-1.2
		s-1.2-1.9-1.2-3.3v-40.6c0-1.3,0.4-2.4,1.1-3.1c0.8-0.7,1.8-1.1,3.2-1.1h17.3c5.6,0,9.8,1.2,12.7,3.7s4.3,6,4.3,10.7
		c0,3.8-1.1,6.9-3.2,9.3c-2.2,2.4-5.2,4-9.1,4.7c1.3,0.3,2.5,0.9,3.5,1.7s2,2,3,3.5l6.3,9.6C232.4,390.4,232.6,391.2,232.6,392z
		 M220.5,366.7c1.6-1.3,2.4-3.2,2.4-5.9s-0.8-4.6-2.4-5.9c-1.6-1.2-4-1.8-7.4-1.8h-11.7v15.5h11.7
		C216.4,368.6,218.9,368,220.5,366.7z"/>
	<path class="st0" d="M280.2,391.4c0,1.1-0.4,2-1.2,2.8s-1.8,1.2-2.9,1.2c-1.2,0-2.2-0.5-3.2-1.5l-23.1-21.6V391
		c0,1.3-0.4,2.4-1.2,3.3c-0.8,0.8-1.9,1.2-3.3,1.2c-1.3,0-2.4-0.4-3.2-1.2s-1.2-1.9-1.2-3.3v-40.7c0-1.3,0.4-2.4,1.2-3.2
		s1.9-1.2,3.2-1.2c1.4,0,2.5,0.4,3.3,1.2s1.2,1.9,1.2,3.2v17.8l22.3-20.9c0.8-0.8,1.8-1.2,2.8-1.2c1.1,0,2,0.4,2.8,1.2
		s1.2,1.7,1.2,2.8s-0.5,2-1.4,2.9L259,370l19.8,18.5C279.8,389.3,280.2,390.3,280.2,391.4z"/>
	<path class="st0" d="M287.8,394c-0.8-0.7-1.1-1.8-1.1-3.1v-40.4c0-1.3,0.4-2.4,1.1-3.1c0.8-0.7,1.8-1.1,3.2-1.1h25
		c1.3,0,2.4,0.3,3.1,0.9s1.1,1.5,1.1,2.6c0,1.2-0.4,2-1.1,2.7c-0.7,0.6-1.8,0.9-3.1,0.9h-20.6v13.5h19.2c1.3,0,2.4,0.3,3.1,0.9
		s1.1,1.5,1.1,2.6s-0.4,2-1.1,2.6s-1.8,0.9-3.1,0.9h-19.2v14.3H316c1.3,0,2.4,0.3,3.1,0.9s1.1,1.5,1.1,2.7c0,1.1-0.4,2-1.1,2.6
		s-1.8,0.9-3.1,0.9h-25C289.6,395.1,288.6,394.8,287.8,394z"/>
	<path class="st0" d="M340.3,394.3c-0.8-0.8-1.2-1.9-1.2-3.2v-37.5h-12.6c-2.8,0-4.2-1.2-4.2-3.7c0-2.4,1.4-3.7,4.2-3.7h34.2
		c2.8,0,4.2,1.2,4.2,3.7s-1.4,3.7-4.2,3.7h-12.6v37.5c0,1.3-0.4,2.4-1.2,3.2c-0.8,0.8-1.9,1.2-3.2,1.2
		C342.2,395.5,341.1,395.1,340.3,394.3z"/>
	<path class="st0" d="M374.4,369h32.9v2.6h-32.9v22.3c0,0.5-0.1,0.8-0.4,1.1s-0.6,0.5-1.1,0.5s-0.8-0.1-1.1-0.5
		c-0.3-0.3-0.4-0.7-0.4-1.1v-46.4c0-0.5,0.1-0.8,0.4-1.1s0.6-0.5,1.1-0.5s0.8,0.1,1.1,0.5s0.4,0.7,0.4,1.1V369z M409.9,346.3
		c0.3,0.3,0.4,0.7,0.4,1.1v46.4c0,0.5-0.1,0.8-0.4,1.1s-0.6,0.5-1.1,0.5s-0.8-0.1-1.1-0.5c-0.3-0.3-0.4-0.7-0.4-1.1v-46.4
		c0-0.5,0.1-0.8,0.4-1.1s0.6-0.5,1.1-0.5S409.6,346,409.9,346.3z"/>
	<path class="st0" d="M427.9,390.9c-3.1-3.2-4.7-8-4.7-14.3v-29.1c0-0.5,0.1-0.9,0.4-1.2s0.6-0.4,1.1-0.4c0.4,0,0.8,0.1,1,0.5
		s0.4,0.7,0.4,1.1v29.6c0,10.5,5.2,15.7,15.7,15.7c5.1,0,9-1.3,11.7-4c2.6-2.6,4-6.6,4-11.8v-29.6c0-0.5,0.1-0.8,0.5-1.1
		c0.3-0.3,0.6-0.5,1-0.5s0.8,0.1,1,0.5c0.3,0.3,0.4,0.7,0.4,1.1v29.1c0,6.3-1.6,11-4.7,14.3c-3.1,3.2-7.7,4.8-13.8,4.8
		C435.7,395.7,431.1,394.1,427.9,390.9z"/>
	<path class="st0" d="M505.5,374.2c1.5,2.1,2.3,4.6,2.3,7.7c0,4.3-1.4,7.6-4.1,9.9c-2.7,2.2-6.6,3.4-11.7,3.4h-17.1
		c-0.5,0-0.9-0.2-1.2-0.5c-0.3-0.3-0.5-0.7-0.5-1v-45.8c0-0.4,0.2-0.8,0.5-1.1s0.8-0.5,1.2-0.5h16.3c4.9,0,8.8,1.1,11.4,3.3
		c2.7,2.2,4,5.4,4,9.5c0,2.7-0.7,5-2,6.8c-1.4,1.9-3.3,3.3-5.7,4.2C501.7,370.8,503.9,372.2,505.5,374.2z M476.1,368.9h14.8
		c4.2,0,7.3-0.9,9.5-2.6c2.2-1.8,3.3-4.3,3.3-7.6c0-6.5-4.3-9.7-12.8-9.7h-14.8V368.9z M501.6,389.9c2.1-1.7,3.2-4.2,3.2-7.7
		s-1.1-6.1-3.2-7.9c-2.2-1.8-5.4-2.7-9.6-2.7h-15.8v20.7H492C496.3,392.4,499.5,391.6,501.6,389.9z"/>
</g>
</svg>
