<svg width="207" height="88" fill="none" xmlns="http://www.w3.org/2000/svg"><path d="M24.637 14.844h3.94c3.068 0 4.812 2.644 4.812 7.735 0 5.594-1.24 7.8-4.812 7.902h-3.94V14.844zm1.981 13.63h2.015c2.201-.038 2.723-2.395 2.723-5.745 0-.372.242-5.828-2.723-5.834h-2.015v11.579zm103.916 23.478c0 4.177 1.005 7.355 3.863 7.355 3.195 0 5.099-4.442 5.099-14.88 0-11.457-1.723-15.393-4.725-15.526-2.903-.133-4.388 2.402-4.237 7.63v15.42zm2.013-13.807c0-3.53.397-6.864 1.977-6.864 2.107 0 2.911 5.123 2.911 13.143 0 7.312-.937 12.499-3.177 12.499-1.44 0-1.711-3.637-1.711-6.57V38.145zm53.519-8.814c3.131-.016 4.448 3.612 4.648 7.713.067 1.393.09 1.46 0 2.496h-9.295c-.091-1.037-.064-1.104 0-2.496.202-4.101 1.516-7.729 4.647-7.712zm-2.676 6.922c-.037.728-.047.717 0 1.263h5.28c.054-.548.044-.535 0-1.263-.096-2.163-.989-4.927-2.637-4.917-1.648-.01-2.54 2.755-2.643 4.917zM63.26 29.028c3.136-.019 4.35 3.913 4.547 8.014.067 1.393.095 1.46 0 2.497h-9.29c-.095-1.038-.068-1.104 0-2.497.194-4.099 1.61-8.03 4.743-8.014zm-2.777 7.133c-.031.731-.05.806 0 1.355h5.286c.05-.548.038-.621 0-1.355-.105-2.155-.995-4.834-2.641-4.825-1.653-.01-2.538 2.672-2.645 4.825zm37.977-4.542c1.775 0 3.213 5.716 3.213 12.76 0 7.047-1.438 12.76-3.213 12.76-1.773 0-3.215-5.713-3.215-12.76 0-7.044 1.442-12.76 3.215-12.76zM93.347 44.38c0 8.316 1.458 15.005 5.113 15.058 3.757.052 5.115-6.742 5.115-15.058 0-8.314-1.457-15.004-5.115-15.055-3.555-.047-5.113 6.74-5.113 15.055zM63.343 59.329c2.55.012 3.895-2.443 4.42-5.572l12.242-.007c-.619-3.134-.69-3.79-.758-6.233l-20.625.008c-.08.948.007 2.538.077 4.007.197 4.098 1.511 7.815 4.644 7.797zm14.032-9.776c.038 1.081.038 1.089.189 2.152h-11.58c-.005.16-.012.34-.032.71-.106 2.162-.992 4.926-2.642 4.913-1.646.014-2.538-2.75-2.642-4.912-.034-.73-.16-2.313-.111-2.86h16.818v-.003zm108.778 9.776c2.553.012 3.897-2.473 4.417-5.602h13.963c-1.758 21.809-31.154 21.982-33.728 4.692v11.26h-20.269V58.296c-1.769 11.125-7.975 12.665-10.697 12.658-2.277-.012-7.878-1.935-9.939-7.806l.194 6.39c.042 3.964 2.507 6.474 5.132 6.84v9.22l-23.652.006v-9.226c1.986-.063 5.168-2.056 5.203-6.508V53.156c-.725 4.205-3.76 17.791-18.311 17.791-14.415 0-17.676-14.346-18.294-16.455C77.482 70.13 67.35 70.991 62.9 70.926c-7.993-.102-12.78-5.741-12.896-5.865-4.809-5.015-5.735-12.598-5.54-20.777 0-1.65.413-4.846.557-6.417-5.174 5.698-9.964 4.99-15.658 5.208l-4.775-.009v9.344c-.006 3.76 1.343 6.009 5.432 6.04v11.236H1.935V58.68c4.09-.032 5.49-2.48 5.484-6.243v-33.32c0-.79-.188-5.947-5.465-5.99V2.05h30.31c5.713 0 9.773 1.785 12.51 3.995 5.056 4.085 6.065 11.106 6.475 16.305 7.724-6.892 26.022-8.43 29.083 12.197 3.309-15.713 14.598-16.9 17.244-16.913 4.742-.018 12.847 2.926 15.483 10.875v-9.804h16.601v6.305c1.223-4.761 5.319-7.345 9.476-7.37 4.002-.026 12.205 4.54 14.309 21.91V16.418c-.012-3.337-2.001-5.06-5.256-5.04l-.012-9.226h19.328v37.412c1.763-16.575 10.773-21.877 18.362-21.877 7.71 0 13.171 4.407 15.972 10.044 3.583 7.22 3.327 14.843 3.112 19.786l-23.513.008c-.082.948.006 2.538.078 4.007.192 4.098 1.509 7.815 4.637 7.797zm2.637-7.624c0 .16-.012.34-.029.71-.103 2.162-.996 4.926-2.638 4.913-1.651.014-2.538-2.75-2.643-4.912-.036-.73-.163-2.329-.108-2.872h23.344c.289-3.77 1.199-14.067-3.049-22.571-3.346-6.697-8.952-11.362-17.746-11.359-7.767 0-13.23 4.042-16.419 9.094L169.527.12h-23.292v13.56c3.256-.016 5.239.291 5.257 3.627v7.497c-2.213-4.996-7.222-9.536-13.318-9.186-2.574.148-4.469 1.284-6.507 2.795v-1.735h-20.573v4.333c-3.541-3.72-7.749-5.4-13.235-5.4-8.802 0-14.666 5.663-17.398 12.182-1.564-4.653-6.794-12.182-16.982-12.182-4.176 0-8.056 1.52-10.909 3.327-.42-5.354-2.776-11.42-6.639-14.551C42.809 1.854 38.179.02 31.998.004H0v15.193c4.139.032 5.469 1.011 5.466 5.205v30.949C5.47 55.42 4.453 56.534 0 56.57v15.51l31.989-.026v-15.52c-4.408-.031-5.406-1.145-5.401-5.207v-6.14l5.125.032c6.567.16 8.827-.84 10.91-2.512-.4 2.688-.2 7.655.044 9.554 1.138 9.665 3.987 12.268 6.723 15.119 3.758 3.905 8.91 5.608 13.688 5.64 13.145.074 16.612-10.442 17.326-12.207 4.398 10.616 13.14 12.238 18.188 12.203 9.979-.071 13.982-4.875 16.239-9.13v5.269c-.03 3.68-.837 5.404-5.16 5.485l.006 13.356h27.559V74.64c-4.18-.075-5.02-3.135-5.147-5.109 2.549 3.445 7.292 3.649 7.854 3.543 2.007.202 6.474-.388 8.71-4.556v3.518h24.194V67.32c3.502 3.856 8.609 5.715 13.383 5.715 7.95 0 19.317-4.462 20.337-21.325h-17.776v-.005h-.001z" fill="#fff"/></svg>