<?xml version="1.0" standalone="no"?>
<!DOCTYPE svg PUBLIC "-//W3C//DTD SVG 1.1//EN" "http://www.w3.org/Graphics/SVG/1.1/DTD/svg11.dtd" >
<svg>
<metadata>
Created by FontForge 20090914 at Fri May 17 14:02:52 2019
 By www-data
Russian version: (c) Andrey Melman, 2001-2002. English: Stephen Deken.
</metadata>
<defs>
<font id="Dollar" horiz-adv-x="1700" >
  <font-face 
    font-family="Dollar"
    font-weight="400"
    font-stretch="normal"
    units-per-em="1600"
    panose-1="2 0 5 7 8 0 0 2 0 4"
    ascent="1280"
    descent="-320"
    x-height="1200"
    cap-height="1200"
    bbox="-299.999 -410 3098 1400"
    underline-thickness="19"
    underline-position="-124"
    unicode-range="U+0020-U+0451"
  />
<missing-glyph horiz-adv-x="800" 
d="M100 0v1400h600v-1400h-600zM200 100h400v1200h-400v-1200z" />
    <glyph glyph-name=".notdef" horiz-adv-x="800" 
d="M100 0v1400h600v-1400h-600zM200 100h400v1200h-400v-1200z" />
    <glyph glyph-name="space" unicode=" " horiz-adv-x="499" 
 />
    <glyph glyph-name="space" unicode="&#xa0;" horiz-adv-x="499" 
 />
    <glyph glyph-name="exclam" unicode="!" horiz-adv-x="500" 
d="M550 900l-200 -600h-200l-200 600c-6 18 -9 36 -9 54c0 69.333 35 129 105 179c62.667 44.667 130.667 67 204 67s141.333 -22.333 204 -67c70 -50 105 -109.667 105 -179c0 -18 -3 -36 -9 -54zM350 100c0 -28 -9.66699 -51.667 -29 -71s-43 -29 -71 -29
s-51.667 9.66699 -71 29s-29 43 -29 71s9.66699 51.667 29 71s43 29 71 29s51.667 -9.66699 71 -29s29 -43 29 -71z" />
    <glyph glyph-name="quotedbl" unicode="&#x22;" horiz-adv-x="500" 
d="M200 1050c0 -102.667 -49.668 -154.001 -149.001 -154.001c-16 0 -33 2 -51 6c22.667 0.666992 39.334 3.33398 50.001 8.00098c33.333 14.667 50 44.667 50 90c-28 0 -51.667 9.66699 -71 29s-29 43 -29 71s9.66699 51.667 29 71s43 29 71 29s51.667 -9.66699 71 -29
s29 -43 29 -71v-50zM499.999 1050c0 -102.667 -49.668 -154.001 -149.001 -154.001c-16 0 -33 2 -51 6c22.667 0.666992 39.334 3.33398 50.001 8.00098c33.333 14.667 50 44.667 50 90c-28 0 -51.667 9.66699 -71 29s-29 43 -29 71s9.66699 51.667 29 71s43 29 71 29
s51.667 -9.66699 71 -29s29 -43 29 -71v-50z" />
    <glyph glyph-name="numbersign" unicode="#" horiz-adv-x="1440" 
d="M1360 640h-480c0 62 -26.667 108 -80 138l240 416c102 -58.667 180.833 -136.167 236.5 -232.5s83.5 -203.5 83.5 -321.5zM840 640c0 -33.333 -11.667 -61.666 -35 -84.999s-51.666 -35 -84.999 -35s-61.666 11.667 -84.999 35s-35 51.666 -35 84.999
s11.667 61.666 35 84.999s51.666 35 84.999 35s61.666 -11.667 84.999 -35s35 -51.666 35 -84.999zM640 778c-53.333 -32 -80 -78 -80 -138h-480c0 118 27.833 225.167 83.5 321.5s134.5 173.833 236.5 232.5zM1040 86c-95.333 -57.333 -202.001 -86 -320.001 -86
c-113.333 0 -220 28.667 -320 86l240 416c25.333 -14.667 52 -22 80 -22c28.667 0 55.334 7 80.001 21z" />
    <glyph glyph-name="dollar" unicode="$" horiz-adv-x="1440" 
d="M1360 640h-480c0 62 -26.667 108 -80 138l240 416c102 -58.667 180.833 -136.167 236.5 -232.5s83.5 -203.5 83.5 -321.5zM840 640c0 -33.333 -11.667 -61.666 -35 -84.999s-51.666 -35 -84.999 -35s-61.666 11.667 -84.999 35s-35 51.666 -35 84.999
s11.667 61.666 35 84.999s51.666 35 84.999 35s61.666 -11.667 84.999 -35s35 -51.666 35 -84.999zM640 778c-53.333 -32 -80 -78 -80 -138h-480c0 118 27.833 225.167 83.5 321.5s134.5 173.833 236.5 232.5zM1040 86c-95.333 -57.333 -202.001 -86 -320.001 -86
c-113.333 0 -220 28.667 -320 86l240 416c25.333 -14.667 52 -22 80 -22c28.667 0 55.334 7 80.001 21z" />
    <glyph glyph-name="percent" unicode="%" horiz-adv-x="1440" 
d="M1360 640h-480c0 62 -26.667 108 -80 138l240 416c102 -58.667 180.833 -136.167 236.5 -232.5s83.5 -203.5 83.5 -321.5zM840 640c0 -33.333 -11.667 -61.666 -35 -84.999s-51.666 -35 -84.999 -35s-61.666 11.667 -84.999 35s-35 51.666 -35 84.999
s11.667 61.666 35 84.999s51.666 35 84.999 35s61.666 -11.667 84.999 -35s35 -51.666 35 -84.999zM640 778c-53.333 -32 -80 -78 -80 -138h-480c0 118 27.833 225.167 83.5 321.5s134.5 173.833 236.5 232.5zM1040 86c-95.333 -57.333 -202.001 -86 -320.001 -86
c-113.333 0 -220 28.667 -320 86l240 416c25.333 -14.667 52 -22 80 -22c28.667 0 55.334 7 80.001 21z" />
    <glyph glyph-name="ampersand" unicode="&#x26;" horiz-adv-x="1440" 
d="M1360 640h-480c0 62 -26.667 108 -80 138l240 416c102 -58.667 180.833 -136.167 236.5 -232.5s83.5 -203.5 83.5 -321.5zM840 640c0 -33.333 -11.667 -61.666 -35 -84.999s-51.666 -35 -84.999 -35s-61.666 11.667 -84.999 35s-35 51.666 -35 84.999
s11.667 61.666 35 84.999s51.666 35 84.999 35s61.666 -11.667 84.999 -35s35 -51.666 35 -84.999zM640 778c-53.333 -32 -80 -78 -80 -138h-480c0 118 27.833 225.167 83.5 321.5s134.5 173.833 236.5 232.5zM1040 86c-95.333 -57.333 -202.001 -86 -320.001 -86
c-113.333 0 -220 28.667 -320 86l240 416c25.333 -14.667 52 -22 80 -22c28.667 0 55.334 7 80.001 21z" />
    <glyph glyph-name="quotesingle" unicode="'" horiz-adv-x="200" 
d="M200 1050c0 -102.667 -49.668 -154.001 -149.001 -154.001c-16 0 -33 2 -51 6c22.667 0.666992 39.334 3.33398 50.001 8.00098c33.333 14.667 50 44.667 50 90c-28 0 -51.667 9.66699 -71 29s-29 43 -29 71s9.66699 51.667 29 71s43 29 71 29s51.667 -9.66699 71 -29
s29 -43 29 -71v-50z" />
    <glyph glyph-name="parenleft" unicode="(" horiz-adv-x="1440" 
d="M1360 640h-480c0 62 -26.667 108 -80 138l240 416c102 -58.667 180.833 -136.167 236.5 -232.5s83.5 -203.5 83.5 -321.5zM840 640c0 -33.333 -11.667 -61.666 -35 -84.999s-51.666 -35 -84.999 -35s-61.666 11.667 -84.999 35s-35 51.666 -35 84.999
s11.667 61.666 35 84.999s51.666 35 84.999 35s61.666 -11.667 84.999 -35s35 -51.666 35 -84.999zM640 778c-53.333 -32 -80 -78 -80 -138h-480c0 118 27.833 225.167 83.5 321.5s134.5 173.833 236.5 232.5zM1040 86c-95.333 -57.333 -202.001 -86 -320.001 -86
c-113.333 0 -220 28.667 -320 86l240 416c25.333 -14.667 52 -22 80 -22c28.667 0 55.334 7 80.001 21z" />
    <glyph glyph-name="parenright" unicode=")" horiz-adv-x="1440" 
d="M1360 640h-480c0 62 -26.667 108 -80 138l240 416c102 -58.667 180.833 -136.167 236.5 -232.5s83.5 -203.5 83.5 -321.5zM840 640c0 -33.333 -11.667 -61.666 -35 -84.999s-51.666 -35 -84.999 -35s-61.666 11.667 -84.999 35s-35 51.666 -35 84.999
s11.667 61.666 35 84.999s51.666 35 84.999 35s61.666 -11.667 84.999 -35s35 -51.666 35 -84.999zM640 778c-53.333 -32 -80 -78 -80 -138h-480c0 118 27.833 225.167 83.5 321.5s134.5 173.833 236.5 232.5zM1040 86c-95.333 -57.333 -202.001 -86 -320.001 -86
c-113.333 0 -220 28.667 -320 86l240 416c25.333 -14.667 52 -22 80 -22c28.667 0 55.334 7 80.001 21z" />
    <glyph glyph-name="asterisk" unicode="*" horiz-adv-x="1440" 
d="M1360 640h-480c0 62 -26.667 108 -80 138l240 416c102 -58.667 180.833 -136.167 236.5 -232.5s83.5 -203.5 83.5 -321.5zM840 640c0 -33.333 -11.667 -61.666 -35 -84.999s-51.666 -35 -84.999 -35s-61.666 11.667 -84.999 35s-35 51.666 -35 84.999
s11.667 61.666 35 84.999s51.666 35 84.999 35s61.666 -11.667 84.999 -35s35 -51.666 35 -84.999zM640 778c-53.333 -32 -80 -78 -80 -138h-480c0 118 27.833 225.167 83.5 321.5s134.5 173.833 236.5 232.5zM1040 86c-95.333 -57.333 -202.001 -86 -320.001 -86
c-113.333 0 -220 28.667 -320 86l240 416c25.333 -14.667 52 -22 80 -22c28.667 0 55.334 7 80.001 21z" />
    <glyph glyph-name="plus" unicode="+" horiz-adv-x="1440" 
d="M1360 640h-480c0 62 -26.667 108 -80 138l240 416c102 -58.667 180.833 -136.167 236.5 -232.5s83.5 -203.5 83.5 -321.5zM840 640c0 -33.333 -11.667 -61.666 -35 -84.999s-51.666 -35 -84.999 -35s-61.666 11.667 -84.999 35s-35 51.666 -35 84.999
s11.667 61.666 35 84.999s51.666 35 84.999 35s61.666 -11.667 84.999 -35s35 -51.666 35 -84.999zM640 778c-53.333 -32 -80 -78 -80 -138h-480c0 118 27.833 225.167 83.5 321.5s134.5 173.833 236.5 232.5zM1040 86c-95.333 -57.333 -202.001 -86 -320.001 -86
c-113.333 0 -220 28.667 -320 86l240 416c25.333 -14.667 52 -22 80 -22c28.667 0 55.334 7 80.001 21z" />
    <glyph glyph-name="comma" unicode="," horiz-adv-x="200" 
d="M200 50c0 -102.667 -49.668 -154.001 -149.001 -154.001c-16 0 -33 2 -51 6c22.667 0.666992 39.334 3.33398 50.001 8.00098c33.333 14.667 50 44.667 50 90c-28 0 -51.667 9.66699 -71 29s-29 43 -29 71s9.66699 51.667 29 71s43 29 71 29s51.667 -9.66699 71 -29
s29 -43 29 -71v-50z" />
    <glyph glyph-name="hyphen" unicode="-" horiz-adv-x="1440" 
d="M1360 640h-480c0 62 -26.667 108 -80 138l240 416c102 -58.667 180.833 -136.167 236.5 -232.5s83.5 -203.5 83.5 -321.5zM840 640c0 -33.333 -11.667 -61.666 -35 -84.999s-51.666 -35 -84.999 -35s-61.666 11.667 -84.999 35s-35 51.666 -35 84.999
s11.667 61.666 35 84.999s51.666 35 84.999 35s61.666 -11.667 84.999 -35s35 -51.666 35 -84.999zM640 778c-53.333 -32 -80 -78 -80 -138h-480c0 118 27.833 225.167 83.5 321.5s134.5 173.833 236.5 232.5zM1040 86c-95.333 -57.333 -202.001 -86 -320.001 -86
c-113.333 0 -220 28.667 -320 86l240 416c25.333 -14.667 52 -22 80 -22c28.667 0 55.334 7 80.001 21z" />
    <glyph glyph-name="hyphen" unicode="&#x2010;" horiz-adv-x="1440" 
d="M1360 640h-480c0 62 -26.667 108 -80 138l240 416c102 -58.667 180.833 -136.167 236.5 -232.5s83.5 -203.5 83.5 -321.5zM840 640c0 -33.333 -11.667 -61.666 -35 -84.999s-51.666 -35 -84.999 -35s-61.666 11.667 -84.999 35s-35 51.666 -35 84.999
s11.667 61.666 35 84.999s51.666 35 84.999 35s61.666 -11.667 84.999 -35s35 -51.666 35 -84.999zM640 778c-53.333 -32 -80 -78 -80 -138h-480c0 118 27.833 225.167 83.5 321.5s134.5 173.833 236.5 232.5zM1040 86c-95.333 -57.333 -202.001 -86 -320.001 -86
c-113.333 0 -220 28.667 -320 86l240 416c25.333 -14.667 52 -22 80 -22c28.667 0 55.334 7 80.001 21z" />
    <glyph glyph-name="period" unicode="." horiz-adv-x="400" 
d="M0 100c0 28 9.66699 51.667 29 71s43 29 71 29s51.667 -9.66699 71 -29s29 -43 29 -71s-9.66699 -51.667 -29 -71s-43 -29 -71 -29s-51.667 9.66699 -71 29s-29 43 -29 71z" />
    <glyph glyph-name="slash" unicode="/" horiz-adv-x="1440" 
d="M1360 640h-480c0 62 -26.667 108 -80 138l240 416c102 -58.667 180.833 -136.167 236.5 -232.5s83.5 -203.5 83.5 -321.5zM840 640c0 -33.333 -11.667 -61.666 -35 -84.999s-51.666 -35 -84.999 -35s-61.666 11.667 -84.999 35s-35 51.666 -35 84.999
s11.667 61.666 35 84.999s51.666 35 84.999 35s61.666 -11.667 84.999 -35s35 -51.666 35 -84.999zM640 778c-53.333 -32 -80 -78 -80 -138h-480c0 118 27.833 225.167 83.5 321.5s134.5 173.833 236.5 232.5zM1040 86c-95.333 -57.333 -202.001 -86 -320.001 -86
c-113.333 0 -220 28.667 -320 86l240 416c25.333 -14.667 52 -22 80 -22c28.667 0 55.334 7 80.001 21z" />
    <glyph glyph-name="zero" unicode="0" horiz-adv-x="1440" 
d="M1360 640h-480c0 62 -26.667 108 -80 138l240 416c102 -58.667 180.833 -136.167 236.5 -232.5s83.5 -203.5 83.5 -321.5zM840 640c0 -33.333 -11.667 -61.666 -35 -84.999s-51.666 -35 -84.999 -35s-61.666 11.667 -84.999 35s-35 51.666 -35 84.999
s11.667 61.666 35 84.999s51.666 35 84.999 35s61.666 -11.667 84.999 -35s35 -51.666 35 -84.999zM640 778c-53.333 -32 -80 -78 -80 -138h-480c0 118 27.833 225.167 83.5 321.5s134.5 173.833 236.5 232.5zM1040 86c-95.333 -57.333 -202.001 -86 -320.001 -86
c-113.333 0 -220 28.667 -320 86l240 416c25.333 -14.667 52 -22 80 -22c28.667 0 55.334 7 80.001 21z" />
    <glyph glyph-name="one" unicode="1" horiz-adv-x="1440" 
d="M1360 640h-480c0 62 -26.667 108 -80 138l240 416c102 -58.667 180.833 -136.167 236.5 -232.5s83.5 -203.5 83.5 -321.5zM840 640c0 -33.333 -11.667 -61.666 -35 -84.999s-51.666 -35 -84.999 -35s-61.666 11.667 -84.999 35s-35 51.666 -35 84.999
s11.667 61.666 35 84.999s51.666 35 84.999 35s61.666 -11.667 84.999 -35s35 -51.666 35 -84.999zM640 778c-53.333 -32 -80 -78 -80 -138h-480c0 118 27.833 225.167 83.5 321.5s134.5 173.833 236.5 232.5zM1040 86c-95.333 -57.333 -202.001 -86 -320.001 -86
c-113.333 0 -220 28.667 -320 86l240 416c25.333 -14.667 52 -22 80 -22c28.667 0 55.334 7 80.001 21z" />
    <glyph glyph-name="two" unicode="2" horiz-adv-x="1440" 
d="M1360 640h-480c0 62 -26.667 108 -80 138l240 416c102 -58.667 180.833 -136.167 236.5 -232.5s83.5 -203.5 83.5 -321.5zM840 640c0 -33.333 -11.667 -61.666 -35 -84.999s-51.666 -35 -84.999 -35s-61.666 11.667 -84.999 35s-35 51.666 -35 84.999
s11.667 61.666 35 84.999s51.666 35 84.999 35s61.666 -11.667 84.999 -35s35 -51.666 35 -84.999zM640 778c-53.333 -32 -80 -78 -80 -138h-480c0 118 27.833 225.167 83.5 321.5s134.5 173.833 236.5 232.5zM1040 86c-95.333 -57.333 -202.001 -86 -320.001 -86
c-113.333 0 -220 28.667 -320 86l240 416c25.333 -14.667 52 -22 80 -22c28.667 0 55.334 7 80.001 21z" />
    <glyph glyph-name="three" unicode="3" horiz-adv-x="1440" 
d="M1360 640h-480c0 62 -26.667 108 -80 138l240 416c102 -58.667 180.833 -136.167 236.5 -232.5s83.5 -203.5 83.5 -321.5zM840 640c0 -33.333 -11.667 -61.666 -35 -84.999s-51.666 -35 -84.999 -35s-61.666 11.667 -84.999 35s-35 51.666 -35 84.999
s11.667 61.666 35 84.999s51.666 35 84.999 35s61.666 -11.667 84.999 -35s35 -51.666 35 -84.999zM640 778c-53.333 -32 -80 -78 -80 -138h-480c0 118 27.833 225.167 83.5 321.5s134.5 173.833 236.5 232.5zM1040 86c-95.333 -57.333 -202.001 -86 -320.001 -86
c-113.333 0 -220 28.667 -320 86l240 416c25.333 -14.667 52 -22 80 -22c28.667 0 55.334 7 80.001 21z" />
    <glyph glyph-name="four" unicode="4" horiz-adv-x="1440" 
d="M1360 640h-480c0 62 -26.667 108 -80 138l240 416c102 -58.667 180.833 -136.167 236.5 -232.5s83.5 -203.5 83.5 -321.5zM840 640c0 -33.333 -11.667 -61.666 -35 -84.999s-51.666 -35 -84.999 -35s-61.666 11.667 -84.999 35s-35 51.666 -35 84.999
s11.667 61.666 35 84.999s51.666 35 84.999 35s61.666 -11.667 84.999 -35s35 -51.666 35 -84.999zM640 778c-53.333 -32 -80 -78 -80 -138h-480c0 118 27.833 225.167 83.5 321.5s134.5 173.833 236.5 232.5zM1040 86c-95.333 -57.333 -202.001 -86 -320.001 -86
c-113.333 0 -220 28.667 -320 86l240 416c25.333 -14.667 52 -22 80 -22c28.667 0 55.334 7 80.001 21z" />
    <glyph glyph-name="five" unicode="5" horiz-adv-x="1440" 
d="M1360 640h-480c0 62 -26.667 108 -80 138l240 416c102 -58.667 180.833 -136.167 236.5 -232.5s83.5 -203.5 83.5 -321.5zM840 640c0 -33.333 -11.667 -61.666 -35 -84.999s-51.666 -35 -84.999 -35s-61.666 11.667 -84.999 35s-35 51.666 -35 84.999
s11.667 61.666 35 84.999s51.666 35 84.999 35s61.666 -11.667 84.999 -35s35 -51.666 35 -84.999zM640 778c-53.333 -32 -80 -78 -80 -138h-480c0 118 27.833 225.167 83.5 321.5s134.5 173.833 236.5 232.5zM1040 86c-95.333 -57.333 -202.001 -86 -320.001 -86
c-113.333 0 -220 28.667 -320 86l240 416c25.333 -14.667 52 -22 80 -22c28.667 0 55.334 7 80.001 21z" />
    <glyph glyph-name="six" unicode="6" horiz-adv-x="1440" 
d="M1360 640h-480c0 62 -26.667 108 -80 138l240 416c102 -58.667 180.833 -136.167 236.5 -232.5s83.5 -203.5 83.5 -321.5zM840 640c0 -33.333 -11.667 -61.666 -35 -84.999s-51.666 -35 -84.999 -35s-61.666 11.667 -84.999 35s-35 51.666 -35 84.999
s11.667 61.666 35 84.999s51.666 35 84.999 35s61.666 -11.667 84.999 -35s35 -51.666 35 -84.999zM640 778c-53.333 -32 -80 -78 -80 -138h-480c0 118 27.833 225.167 83.5 321.5s134.5 173.833 236.5 232.5zM1040 86c-95.333 -57.333 -202.001 -86 -320.001 -86
c-113.333 0 -220 28.667 -320 86l240 416c25.333 -14.667 52 -22 80 -22c28.667 0 55.334 7 80.001 21z" />
    <glyph glyph-name="seven" unicode="7" horiz-adv-x="1440" 
d="M1360 640h-480c0 62 -26.667 108 -80 138l240 416c102 -58.667 180.833 -136.167 236.5 -232.5s83.5 -203.5 83.5 -321.5zM840 640c0 -33.333 -11.667 -61.666 -35 -84.999s-51.666 -35 -84.999 -35s-61.666 11.667 -84.999 35s-35 51.666 -35 84.999
s11.667 61.666 35 84.999s51.666 35 84.999 35s61.666 -11.667 84.999 -35s35 -51.666 35 -84.999zM640 778c-53.333 -32 -80 -78 -80 -138h-480c0 118 27.833 225.167 83.5 321.5s134.5 173.833 236.5 232.5zM1040 86c-95.333 -57.333 -202.001 -86 -320.001 -86
c-113.333 0 -220 28.667 -320 86l240 416c25.333 -14.667 52 -22 80 -22c28.667 0 55.334 7 80.001 21z" />
    <glyph glyph-name="eight" unicode="8" horiz-adv-x="1440" 
d="M1360 640h-480c0 62 -26.667 108 -80 138l240 416c102 -58.667 180.833 -136.167 236.5 -232.5s83.5 -203.5 83.5 -321.5zM840 640c0 -33.333 -11.667 -61.666 -35 -84.999s-51.666 -35 -84.999 -35s-61.666 11.667 -84.999 35s-35 51.666 -35 84.999
s11.667 61.666 35 84.999s51.666 35 84.999 35s61.666 -11.667 84.999 -35s35 -51.666 35 -84.999zM640 778c-53.333 -32 -80 -78 -80 -138h-480c0 118 27.833 225.167 83.5 321.5s134.5 173.833 236.5 232.5zM1040 86c-95.333 -57.333 -202.001 -86 -320.001 -86
c-113.333 0 -220 28.667 -320 86l240 416c25.333 -14.667 52 -22 80 -22c28.667 0 55.334 7 80.001 21z" />
    <glyph glyph-name="nine" unicode="9" horiz-adv-x="1440" 
d="M1360 640h-480c0 62 -26.667 108 -80 138l240 416c102 -58.667 180.833 -136.167 236.5 -232.5s83.5 -203.5 83.5 -321.5zM840 640c0 -33.333 -11.667 -61.666 -35 -84.999s-51.666 -35 -84.999 -35s-61.666 11.667 -84.999 35s-35 51.666 -35 84.999
s11.667 61.666 35 84.999s51.666 35 84.999 35s61.666 -11.667 84.999 -35s35 -51.666 35 -84.999zM640 778c-53.333 -32 -80 -78 -80 -138h-480c0 118 27.833 225.167 83.5 321.5s134.5 173.833 236.5 232.5zM1040 86c-95.333 -57.333 -202.001 -86 -320.001 -86
c-113.333 0 -220 28.667 -320 86l240 416c25.333 -14.667 52 -22 80 -22c28.667 0 55.334 7 80.001 21z" />
    <glyph glyph-name="colon" unicode=":" horiz-adv-x="200" 
d="M0 100c0 28 9.66699 51.667 29 71s43 29 71 29s51.667 -9.66699 71 -29s29 -43 29 -71s-9.66699 -51.667 -29 -71s-43 -29 -71 -29s-51.667 9.66699 -71 29s-29 43 -29 71zM0 600c0 28 9.66699 51.667 29 71s43 29 71 29s51.667 -9.66699 71 -29s29 -43 29 -71
s-9.66699 -51.667 -29 -71s-43 -29 -71 -29s-51.667 9.66699 -71 29s-29 43 -29 71z" />
    <glyph glyph-name="semicolon" unicode=";" horiz-adv-x="200" 
d="M0 600c0 28 9.66699 51.667 29 71s43 29 71 29s51.667 -9.66699 71 -29s29 -43 29 -71s-9.66699 -51.667 -29 -71s-43 -29 -71 -29s-51.667 9.66699 -71 29s-29 43 -29 71zM200 50c0 -102.667 -49.668 -154.001 -149.001 -154.001c-16 0 -33 2 -51 6
c22.667 0.666992 39.334 3.33398 50.001 8.00098c33.333 14.667 50 44.667 50 90c-28 0 -51.667 9.66699 -71 29s-29 43 -29 71s9.66699 51.667 29 71s43 29 71 29s51.667 -9.66699 71 -29s29 -43 29 -71v-50z" />
    <glyph glyph-name="less" unicode="&#x3c;" horiz-adv-x="1440" 
d="M1360 640h-480c0 62 -26.667 108 -80 138l240 416c102 -58.667 180.833 -136.167 236.5 -232.5s83.5 -203.5 83.5 -321.5zM840 640c0 -33.333 -11.667 -61.666 -35 -84.999s-51.666 -35 -84.999 -35s-61.666 11.667 -84.999 35s-35 51.666 -35 84.999
s11.667 61.666 35 84.999s51.666 35 84.999 35s61.666 -11.667 84.999 -35s35 -51.666 35 -84.999zM640 778c-53.333 -32 -80 -78 -80 -138h-480c0 118 27.833 225.167 83.5 321.5s134.5 173.833 236.5 232.5zM1040 86c-95.333 -57.333 -202.001 -86 -320.001 -86
c-113.333 0 -220 28.667 -320 86l240 416c25.333 -14.667 52 -22 80 -22c28.667 0 55.334 7 80.001 21z" />
    <glyph glyph-name="equal" unicode="=" horiz-adv-x="1440" 
d="M1360 640h-480c0 62 -26.667 108 -80 138l240 416c102 -58.667 180.833 -136.167 236.5 -232.5s83.5 -203.5 83.5 -321.5zM840 640c0 -33.333 -11.667 -61.666 -35 -84.999s-51.666 -35 -84.999 -35s-61.666 11.667 -84.999 35s-35 51.666 -35 84.999
s11.667 61.666 35 84.999s51.666 35 84.999 35s61.666 -11.667 84.999 -35s35 -51.666 35 -84.999zM640 778c-53.333 -32 -80 -78 -80 -138h-480c0 118 27.833 225.167 83.5 321.5s134.5 173.833 236.5 232.5zM1040 86c-95.333 -57.333 -202.001 -86 -320.001 -86
c-113.333 0 -220 28.667 -320 86l240 416c25.333 -14.667 52 -22 80 -22c28.667 0 55.334 7 80.001 21z" />
    <glyph glyph-name="greater" unicode="&#x3e;" horiz-adv-x="1440" 
d="M1360 640h-480c0 62 -26.667 108 -80 138l240 416c102 -58.667 180.833 -136.167 236.5 -232.5s83.5 -203.5 83.5 -321.5zM840 640c0 -33.333 -11.667 -61.666 -35 -84.999s-51.666 -35 -84.999 -35s-61.666 11.667 -84.999 35s-35 51.666 -35 84.999
s11.667 61.666 35 84.999s51.666 35 84.999 35s61.666 -11.667 84.999 -35s35 -51.666 35 -84.999zM640 778c-53.333 -32 -80 -78 -80 -138h-480c0 118 27.833 225.167 83.5 321.5s134.5 173.833 236.5 232.5zM1040 86c-95.333 -57.333 -202.001 -86 -320.001 -86
c-113.333 0 -220 28.667 -320 86l240 416c25.333 -14.667 52 -22 80 -22c28.667 0 55.334 7 80.001 21z" />
    <glyph glyph-name="question" unicode="?" horiz-adv-x="1400" 
d="M1500 800c0 -137.333 -56.002 -237.667 -168.002 -301c-61.333 -34.667 -165.666 -65 -312.999 -91c-112.667 -20 -169 -46 -169 -78v-30h-300v34c0 50.667 30 91.667 90 123c98.667 51.333 155 83.333 169 96c60.667 56 91 138.333 91 247c0 84.667 -6 147 -18 187
c-22.667 75.333 -66.667 113 -132 113c-83.333 0 -131.666 -64 -144.999 -192c-3.33301 -32 -5 -84 -5 -156v-52h-600v52c0 202 134.667 337.667 404 407c106 27.333 221.333 41 346 41c284 0 493.667 -54 629 -162c80.667 -64.667 121 -144 121 -238zM599.998 99.999
c0 28 9.66699 51.667 29 71s43 29 71 29s51.667 -9.66699 71 -29s29 -43 29 -71s-9.66699 -51.667 -29 -71s-43 -29 -71 -29s-51.667 9.66699 -71 29s-29 43 -29 71z" />
    <glyph glyph-name="at" unicode="@" 
d="M800 600h450c82 0 159 -27.667 231 -83c79.333 -60.667 119 -133 119 -217v-100c0 -48.667 22 -86.667 66 -114c38 -24 82.667 -36 134 -36v-50h-450c-92 -0 -172 26.333 -240 79c-73.333 57.333 -110 131 -110 221v100c0 48.667 -22 86.667 -66 114
c-38 24 -82.667 36 -134 36v50z" />
    <glyph glyph-name="A" unicode="A" horiz-adv-x="1350" 
d="M1500 0l-1800 0.000976562v50h50c112 0 202.667 59.333 272 178c25.333 43.333 51.333 100.666 78 171.999l300 800h500l400 -900c18.667 -41.333 47 -89.333 85 -144c49.333 -70.667 87.666 -106 114.999 -106v-50zM560.001 500.001l-160 350l-136 -350h296z
M626.001 355.001c-0.666992 2 -9.33301 17 -26 45h-373c-18 -30.667 -27 -64 -27 -100c0 -58.667 22.667 -107 68 -145c42.667 -36.667 93.667 -55 153 -55c56.667 0 106.667 16.333 150 49c48 35.333 72 80.333 72 135c0 22 -5.66699 45.667 -17 71z" />
    <glyph glyph-name="B" unicode="B" 
d="M1650 300c0 -84.667 -28.833 -155.832 -86.5 -213.499s-128.834 -86.5 -213.501 -86.5h-1450v50c78.667 0 146.667 21.667 204 65c64 47.333 96 109 96 185v600c0 76 -32 137.667 -96 185c-57.333 43.333 -125.333 65 -204 65v50h1450
c84.667 0 155.834 -28.833 213.501 -86.5s86.5 -128.834 86.5 -213.501c0 -135.333 -47.333 -235.333 -142 -300c94.667 -64 142 -164 142 -300zM1051 863.002l-0.000976562 10c0 62 -22.667 115.5 -68 160.5s-99 67.5 -161 67.5c-9.33301 0 -16.666 -0.333008 -21.999 -1
v-450c4.66699 -0.666992 9 -1 13 -1h13c56.667 0 106.667 19.333 150 58c50 44.667 75 96.667 75 156zM1050 350.002c-6.66699 58 -31 106 -73 144s-92.333 57 -151 57c-11.333 0 -20 -0.333008 -26 -1v-450c4 -0.666992 8 -1 12 -1h11c62 0 115.5 22.667 160.5 68
s67.5 99 67.5 161c0 8.66699 -0.333008 16 -1 22z" />
    <glyph glyph-name="C" unicode="C" horiz-adv-x="1450" 
d="M1400 400c-103.333 -220.667 -249.333 -353.001 -438 -397.001c-76.667 -18 -180.667 -27 -312 -27c-188 0 -335.667 57.333 -443 172c-104.667 112 -157 262.667 -157 452c0 199.333 49.667 353 149 461c102.667 112 253 166.333 451 163
c24 -1.33301 71.667 -3.66602 143 -6.99902c234 -11.333 419.667 -17 557 -17v-500h-100c0 107.333 -22.667 197.333 -68 270c-54 86.667 -131.333 130 -232 130c-116 0 -192.333 -91 -229 -273c-14 -69.333 -21 -145 -21 -227c0 -134 16.667 -244.333 50 -331
c43.333 -112.667 110 -169 200 -169c102.667 0 181 56 235 168c43.333 90 65 200.667 65 332z" />
    <glyph glyph-name="D" unicode="D" 
d="M1700 600c0 -169.333 -57.667 -311.668 -173 -427.001s-257.666 -173 -426.999 -173h-1200v50c78.667 0 146.667 21.667 204 65c64 47.333 96 109 96 185v600c0 76 -32 137.667 -96 185c-57.333 43.333 -125.333 65 -204 65v50h1200
c169.333 0 311.666 -57.667 426.999 -173s173 -257.666 173 -426.999zM1100 299.998v600c0 56.667 -19.167 104.167 -57.5 142.5s-85.833 57.5 -142.5 57.5h-100v-1000h100c56.667 0 104.167 19.167 142.5 57.5s57.5 85.833 57.5 142.5z" />
    <glyph glyph-name="E" unicode="E" horiz-adv-x="1550" 
d="M1450 0h-1550v50c97.333 0 169.666 16.667 216.999 50c55.333 39.333 83 106 83 200v600c0 166.667 -100 250 -300 250v50h1550v-500h-50l-500 400h-100v-450l300 250v-550l-300 250v-500h50l550 450h50v-550z" />
    <glyph glyph-name="F" unicode="F" horiz-adv-x="1650" 
d="M1550 650l-350 300.001l-250 150h-50v-450l300 250v-550l-300 250v-300c0 -82.667 48.667 -147.334 146 -194.001c77.333 -37.333 162 -56 254 -56v-50h-1400v50c64 0 127.667 22.667 191 68c72.667 52 109 112.667 109 182v600c0 70 -36 130.667 -108 182
c-64 45.333 -128 68 -192 68v50h1650v-550z" />
    <glyph glyph-name="G" unicode="G" horiz-adv-x="1450" 
d="M1400 0c-21.333 0 -47 -1 -77 -3c-161.333 -10.667 -302.333 -38.667 -423 -84v78c-65.333 -10 -148.666 -15 -249.999 -15c-188 0 -335.667 57.333 -443 172c-104.667 112 -157 262.667 -157 452c0 199.333 49.667 353 149 461c102.667 112 253 166.333 451 163
c24 -1.33301 71.667 -3.66602 143 -6.99902c234 -11.333 419.667 -17 557 -17v-500h-100c0 107.333 -22.667 197.333 -68 270c-54 86.667 -131.333 130 -232 130c-116 0 -192.333 -91 -229 -273c-14 -69.333 -21 -145 -21 -227c0 -108.667 11.333 -203.334 34 -284.001
c33.333 -118.667 88.666 -188.667 165.999 -210v494c74 -16 140.667 -24 200 -24c120 0 220 8 300 24v-600z" />
    <glyph glyph-name="H" unicode="H" horiz-adv-x="2000" 
d="M2100 0h-2200v50c64 0 127.667 22.667 191 68c72.667 52 109 112.667 109 182v600c0 70 -36 130.667 -108 182c-64 45.333 -128 68 -192 68v50h2200v-50c-64 0 -127.667 -22.667 -191 -68c-72.667 -52 -109 -112.667 -109 -182v-600c0 -70 36 -130.667 108 -182
c64 -45.333 128 -68 192 -68v-50zM1200 650v250c0 52 -21.333 100 -64 144c-36 37.333 -81.333 66 -136 86c-54.667 -20 -100 -48.667 -136 -86c-42.667 -44 -64 -92 -64 -144v-250h400zM1200 300v250h-400v-250c0 -52 21.333 -100 64 -144c36 -37.333 81.333 -66 136 -86
c54.667 20 100 48.667 136 86c42.667 44 64 92 64 144z" />
    <glyph glyph-name="I" unicode="I" horiz-adv-x="1000" 
d="M1100 0h-1200v50c64 0 127.667 22.667 191 68c72.667 52 109 112.667 109 182v600c0 70 -36 130.667 -108 182c-64 45.333 -128 68 -192 68v50h1200v-50c-64 0 -127.667 -22.667 -191 -68c-72.667 -52 -109 -112.667 -109 -182v-600c0 -70 36 -130.667 108 -182
c64 -45.333 128 -68 192 -68v-50z" />
    <glyph glyph-name="J" unicode="J" horiz-adv-x="1400" 
d="M1500 1150c-64 0 -127.668 -22.667 -191.001 -68c-72.667 -52 -109 -112.667 -109 -182v-600c0 -81.333 -29.667 -151.666 -89 -210.999s-129.666 -89 -210.999 -89h-500c-96 0 -178.667 16 -248 48c-62.667 29.333 -130 80 -202 152l150 200
c0 -233.333 100 -350 300 -350c58 0 106.667 28 146 84c36 50 54 105.333 54 166v600c0 91.333 -46.667 158.666 -140 201.999c-69.333 32 -156 48 -260 48v50h1300v-50z" />
    <glyph glyph-name="K" unicode="K" 
d="M1800 0l-450 -0.000976562c-92 0 -172 26.333 -240 79c-73.333 57.333 -110 131 -110 221v100c0 48.667 -22 86.667 -66 114c-38 24 -82.667 36 -134 36v-250c0 -69.333 18.667 -130 56 -182c32.667 -45.333 64 -68 94 -68v-50h-1050v50c64 0 127.667 22.667 191 68
c72.667 52 109 112.667 109 182v600c0 70 -36 130.667 -108 182c-64 45.333 -128 68 -192 68v50h1050v-50c-29.333 0 -60.333 -22.667 -93 -68c-38 -53.333 -57 -114 -57 -182v-250c51.333 0 96 12 134 36c44 27.333 66 65.333 66 114v100c0 90 36.667 163.667 110 221
c68 52.667 148 79 240 79h450v-50c-51.333 0 -96 -12 -134 -36c-44 -27.333 -66 -65.333 -66 -114v-100c0 -90 -36.667 -163.667 -110 -221c-68 -52.667 -148 -79 -240 -79c92 0 172 -26.667 240 -80c73.333 -57.333 110 -130.666 110 -219.999v-100
c0 -48.667 22 -86.667 66 -114c38 -24 82.667 -36 134 -36v-50z" />
    <glyph glyph-name="L" unicode="L" horiz-adv-x="1550" 
d="M1450 0h-1550v50c64 0 127.667 22.667 191 68c72.667 52 109 112.667 109 182v600c0 70 -36 130.667 -108 182c-64 45.333 -128 68 -192 68v50h1200v-50c-64 0 -127.667 -22.667 -191 -68c-72.667 -52 -109 -112.667 -109 -182v-800h50l550 450h50v-550z" />
    <glyph glyph-name="M" unicode="M" horiz-adv-x="1950" 
d="M2050 0h-1100v50c70.667 0 130 24 178 72s72 107.333 72 178v600l-350 -900h-150l-350 800v-500c0 -71.333 23.833 -130.833 71.5 -178.5s107.167 -71.5 178.5 -71.5v-50h-650v50c78.667 0 146.667 21.667 204 65c64 47.333 96 109 96 185v600c0 76 -32 137.667 -96 185
c-57.333 43.333 -125.333 65 -204 65v50h800l250 -500l200 500h850v-50c-78.667 0 -146.667 -21.667 -204 -65c-64 -47.333 -96 -109 -96 -185v-600c0 -76 32 -137.667 96 -185c57.333 -43.333 125.333 -65 204 -65v-50z" />
    <glyph glyph-name="N" unicode="N" horiz-adv-x="1500" 
d="M1650 1150h-49.9971c-84.667 0 -155.834 -28.833 -213.501 -86.5s-86.5 -128.834 -86.5 -213.501v-850h-400l-600 800v-500c0 -76 32 -137.667 96 -185c57.333 -43.333 125.333 -65 204 -65h50v-50h-800v50h50c156 0 250.667 119 284 357c10.667 76 16 173.667 16 293
v200c-11.333 11.333 -37.333 44.333 -78 99c-34.667 46.667 -66 81 -94 103c-40.667 32 -83.334 48 -128.001 48h-50v50h850l500 -600v250c0 84.667 -28.833 155.834 -86.5 213.501s-128.834 86.5 -213.501 86.5h-50v50h800v-50z" />
    <glyph glyph-name="O" unicode="O" horiz-adv-x="1500" 
d="M1600 600c0 -126 -40.667 -236.333 -122 -331c-72.667 -84.667 -171.667 -151.334 -297 -200.001c-118.667 -46 -245.667 -69 -381 -69c-211.333 0 -393.333 51 -546 153c-169.333 113.333 -254 262.333 -254 447c0 126 40.667 236.333 122 331
c72.667 84.667 171.667 151.334 297 200.001c118.667 46 245.667 69 381 69c211.333 0 393.333 -51 546 -153c169.333 -113.333 254 -262.333 254 -447zM950 600c0 131.333 -1.66699 218.999 -5 262.999c-12 158 -60.333 237 -145 237c-84 0 -131.333 -72.333 -142 -217
c-5.33301 -72 -8 -166.333 -8 -283c0 -131.333 1.66699 -219 5 -263c12 -158 60.333 -237 145 -237c84 0 132 79 144 237c4 52.667 6 140.334 6 263.001z" />
    <glyph glyph-name="P" unicode="P" 
d="M1650 900c0 -92 -26.334 -171.999 -79.001 -239.999c-57.333 -73.333 -131 -110 -221 -110h-550v-250c0 -71.333 23.833 -130.833 71.5 -178.5s107.167 -71.5 178.5 -71.5v-50h-1150v50c78.667 0 146.667 21.667 204 65c64 47.333 96 109 96 185v600
c0 76 -32 137.667 -96 185c-57.333 43.333 -125.333 65 -204 65v50h1450c84.667 0 155.834 -28.833 213.501 -86.5s86.5 -128.834 86.5 -213.501zM1051 863.001l-0.000976562 10c0 62 -22.667 115.5 -68 160.5s-99 67.5 -161 67.5c-9.33301 0 -16.666 -0.333008 -21.999 -1
v-450c4.66699 -0.666992 9 -1 13 -1h13c56.667 0 106.667 19.333 150 58c50 44.667 75 96.667 75 156z" />
    <glyph glyph-name="Q" unicode="Q" horiz-adv-x="1500" 
d="M1600 -100l-450 -0.000976562c-105.333 0 -193.666 34.333 -264.999 103l-85 -3c-196.667 -6.66699 -374.334 41 -533.001 143c-178 114.667 -267 267 -267 457c0 126 40.667 236.333 122 331c72.667 84.667 171.667 151.334 297 200.001c118.667 46 245.667 69 381 69
c211.333 0 393.333 -51 546 -153c169.333 -113.333 254 -262.333 254 -447c0 -161.333 -66.667 -297 -200 -407v-93c0 -48.667 22 -86.667 66 -114c38 -24 82.667 -36 134 -36v-50zM950 599.999c0 131.333 -1.66699 218.999 -5 262.999c-12 158 -60.333 237 -145 237
c-84 0 -131.333 -72.333 -142 -217c-5.33301 -72 -8 -166.333 -8 -283c0 -131.333 1.66699 -219 5 -263c12 -158 60.333 -237 145 -237c84 0 132 79 144 237c4 52.667 6 140.334 6 263.001z" />
    <glyph glyph-name="R" unicode="R" 
d="M1800 0h-450.002c-92 -0 -172 26.333 -240 79c-73.333 57.333 -110 131 -110 221v100c0 48.667 -22 86.667 -66 114c-38 24 -82.667 36 -134 36v-250c0 -71.333 23.833 -130.833 71.5 -178.5s107.167 -71.5 178.5 -71.5v-50h-1150v50c78.667 0 146.667 21.667 204 65
c64 47.333 96 109 96 185v600c0 76 -32 137.667 -96 185c-57.333 43.333 -125.333 65 -204 65v50h1450c84.667 0 155.834 -28.833 213.501 -86.5s86.5 -128.834 86.5 -213.501c0 -81.333 -29.667 -151.666 -89 -210.999s-129.666 -89 -210.999 -89v-50
c113.333 0 189.333 -43 228 -129l32 -154c16 -66 36.333 -116 61 -150c32.667 -44.667 75.667 -67 129 -67v-50zM1051 863l-0.000976562 10c0 62 -22.667 115.5 -68 160.5s-99 67.5 -161 67.5c-9.33301 0 -16.666 -0.333008 -21.999 -1v-450c4.66699 -0.666992 9 -1 13 -1
h13c56.667 0 106.667 19.333 150 58c50 44.667 75 96.667 75 156z" />
    <glyph glyph-name="S" unicode="S" horiz-adv-x="1500" 
d="M1500 400c0 -119.333 -51.999 -217.333 -155.999 -294c-96 -70.667 -210.667 -106 -344 -106h-900v400c15.333 -21.333 35.333 -47 60 -77c121.333 -148.667 234.666 -223 339.999 -223h300c30.667 0 56 13.667 76 41c18 24.667 27 53 27 85
c0 30 -9.83301 57.167 -29.5 81.5s-44.167 38.5 -73.5 42.5l-400 50c-95.333 12 -170.333 58.667 -225 140c-50 73.333 -75 160 -75 260c0 112 38.667 206.667 116 284s172 116 284 116h900v-350l-73 75c-40 40 -87 76.667 -141 110c-70 43.333 -132 65 -186 65h-300
c-30.667 0 -56 -13.667 -76 -41c-18 -24.667 -27 -53 -27 -85c0 -31.333 9.5 -59 28.5 -83s43.833 -37.667 74.5 -41l500 -50c96 -9.33301 171.333 -55.333 226 -138c49.333 -74 74 -161.333 74 -262z" />
    <glyph glyph-name="T" unicode="T" horiz-adv-x="1500" 
d="M1500 550l-50.001 0.000976562c0 52 -98.667 195 -296 429c-65.333 77.333 -100 117.666 -104 120.999v-700c0 -99.333 33.5 -182.5 100.5 -249.5s150.167 -100.5 249.5 -100.5v-50h-1300v50c99.333 0 182.5 33.5 249.5 100.5s100.5 150.167 100.5 249.5v700
c-9.33301 -10 -43.666 -50 -102.999 -120c-198 -234 -297 -377.333 -297 -430h-50v650h1500v-650z" />
    <glyph glyph-name="U" unicode="U" horiz-adv-x="1600" 
d="M1750 1150l-50.001 0.00292969c-67.333 0 -132.666 -24.333 -195.999 -73c-68 -52.667 -102 -111.667 -102 -177v-550c0 -86.667 -28.333 -165.334 -85 -236.001c-60.667 -76 -133 -114 -217 -114h-550c-83.333 0 -154.166 29.167 -212.499 87.5
s-87.5 129.166 -87.5 212.499v500c0 89.333 -27.333 168.666 -82 237.999c-58.667 74.667 -131.334 112 -218.001 112h-50v50h1850v-50zM1300 600.003c0 96.667 -3.33301 171.334 -10 224.001c-23.333 184 -95 276 -215 276c-119.333 0 -190.666 -91.667 -213.999 -275
c-7.33301 -57.333 -11 -132.333 -11 -225c0 -96.667 3.33301 -171.334 10 -224.001c23.333 -184 95 -276 215 -276c119.333 0 190.666 91.667 213.999 275c7.33301 57.333 11 132.333 11 225z" />
    <glyph glyph-name="V" unicode="V" 
d="M1800 1150c-158.667 0 -275 -83.333 -349 -250l-401 -900h-600v50c28 0 53.167 11.667 75.5 35s33.5 49.333 33.5 78c0 12.667 -3 25 -9 37l-350 700c-40 80 -79.333 138.667 -118 176c-51.333 49.333 -112 74 -182 74v50h1900v-50zM1300 900c6 14.667 9 30.001 9 46.001
c0 52.667 -30.667 100.667 -92 144c-56 40 -111.667 60 -167 60c-66 0 -133 -20.667 -201 -62c-73.333 -44.667 -110 -92.667 -110 -144c0 -14.667 3.66699 -29.334 11 -44.001l300 -600z" />
    <glyph glyph-name="W" unicode="W" horiz-adv-x="2500" 
d="M2779 1150c-90.667 0 -155.334 -39.668 -194 -119.001l-56 -131l-381 -900h-548l-250 500l-224 -500h-676v50c28 0 53.167 11.667 75.5 35s33.5 49.333 33.5 78c0 12.667 -3 25 -9 37l-350 700c-40 80 -79.333 138.667 -118 176c-51.333 49.333 -112 74 -182 74v50h1150
v-50c-58 0 -114.667 -18 -170 -54c-62 -40 -93 -87.667 -93 -143c0 -18 4.33301 -35.667 13 -53l300 -600l400 900h175l450 -900l250 600c16 38.667 24 76.334 24 113.001c0 91.333 -40 137 -120 137v50h500v-50z" />
    <glyph glyph-name="X" unicode="X" horiz-adv-x="1250" 
d="M1450 1150c-129.333 0 -229.333 -64.333 -300 -193l-198 -361l148 -296c40 -80 79.333 -138.667 118 -176c51.333 -49.333 112 -74 182 -74v-50h-1550v50c129.333 0 229.333 64.333 300 193l198 361l-148 296c-40 80 -79.333 138.667 -118 176
c-51.333 49.333 -112 74 -182 74v50h1550v-50zM1050 1000c5.33301 10.667 8 21.334 8 32.001c0 32.667 -18.667 61 -56 85c-33.333 22 -67.333 33 -102 33c-36 0 -70.333 -10.333 -103 -31c-36.667 -24 -55 -53 -55 -87c0 -10.667 2.66699 -21.334 8 -32.001l150 -300z
M550 200l-150 300l-150 -300c-5.33301 -10.667 -8 -21.334 -8 -32.001c0 -32.667 18.667 -61 56 -85c33.333 -22 67.333 -33 102 -33c36 0 70.333 10.333 103 31c36.667 24 55 53 55 87c0 10.667 -2.66699 21.334 -8 32.001z" />
    <glyph glyph-name="Y" unicode="Y" horiz-adv-x="1250" 
d="M1500 1150c-136.667 0 -236.667 -64.332 -300 -192.999l-200 -407v-250c0 -70.667 23.333 -131.334 70 -182.001c42 -45.333 85.333 -68 130 -68v-50h-1000v50c35.333 0 75.333 22.333 120 67c53.333 53.333 80 114.333 80 183v250l-200 350
c-31.333 54.667 -57 95.667 -77 123c-62.667 84.667 -137 127 -223 127v50h1600v-50zM1100 1000c5.33301 10.667 8 21.334 8 32.001c0 32.667 -18.667 61 -56 85c-33.333 22 -67.333 33 -102 33c-36 0 -70.333 -10.333 -103 -31c-36.667 -24 -55 -53 -55 -87
c0 -10.667 2.66699 -21.334 8 -32.001l150 -300z" />
    <glyph glyph-name="Z" unicode="Z" horiz-adv-x="1350" 
d="M1350 0h-1350l650 1100h-50c-153.333 -76.667 -298 -173 -434 -289c-44.667 -38 -100 -91.667 -166 -161v550h1350l-650 -1100h50c152 76 296.667 172.667 434 290c47.333 40.667 102.666 94 165.999 160v-550z" />
    <glyph glyph-name="bracketleft" unicode="[" horiz-adv-x="1440" 
d="M1360 640h-480c0 62 -26.667 108 -80 138l240 416c102 -58.667 180.833 -136.167 236.5 -232.5s83.5 -203.5 83.5 -321.5zM840 640c0 -33.333 -11.667 -61.666 -35 -84.999s-51.666 -35 -84.999 -35s-61.666 11.667 -84.999 35s-35 51.666 -35 84.999
s11.667 61.666 35 84.999s51.666 35 84.999 35s61.666 -11.667 84.999 -35s35 -51.666 35 -84.999zM640 778c-53.333 -32 -80 -78 -80 -138h-480c0 118 27.833 225.167 83.5 321.5s134.5 173.833 236.5 232.5zM1040 86c-95.333 -57.333 -202.001 -86 -320.001 -86
c-113.333 0 -220 28.667 -320 86l240 416c25.333 -14.667 52 -22 80 -22c28.667 0 55.334 7 80.001 21z" />
    <glyph glyph-name="backslash" unicode="\" horiz-adv-x="1440" 
d="M1360 640h-480c0 62 -26.667 108 -80 138l240 416c102 -58.667 180.833 -136.167 236.5 -232.5s83.5 -203.5 83.5 -321.5zM840 640c0 -33.333 -11.667 -61.666 -35 -84.999s-51.666 -35 -84.999 -35s-61.666 11.667 -84.999 35s-35 51.666 -35 84.999
s11.667 61.666 35 84.999s51.666 35 84.999 35s61.666 -11.667 84.999 -35s35 -51.666 35 -84.999zM640 778c-53.333 -32 -80 -78 -80 -138h-480c0 118 27.833 225.167 83.5 321.5s134.5 173.833 236.5 232.5zM1040 86c-95.333 -57.333 -202.001 -86 -320.001 -86
c-113.333 0 -220 28.667 -320 86l240 416c25.333 -14.667 52 -22 80 -22c28.667 0 55.334 7 80.001 21z" />
    <glyph glyph-name="bracketright" unicode="]" horiz-adv-x="1440" 
d="M1360 640h-480c0 62 -26.667 108 -80 138l240 416c102 -58.667 180.833 -136.167 236.5 -232.5s83.5 -203.5 83.5 -321.5zM840 640c0 -33.333 -11.667 -61.666 -35 -84.999s-51.666 -35 -84.999 -35s-61.666 11.667 -84.999 35s-35 51.666 -35 84.999
s11.667 61.666 35 84.999s51.666 35 84.999 35s61.666 -11.667 84.999 -35s35 -51.666 35 -84.999zM640 778c-53.333 -32 -80 -78 -80 -138h-480c0 118 27.833 225.167 83.5 321.5s134.5 173.833 236.5 232.5zM1040 86c-95.333 -57.333 -202.001 -86 -320.001 -86
c-113.333 0 -220 28.667 -320 86l240 416c25.333 -14.667 52 -22 80 -22c28.667 0 55.334 7 80.001 21z" />
    <glyph glyph-name="asciicircum" unicode="^" horiz-adv-x="1440" 
d="M1360 640h-480c0 62 -26.667 108 -80 138l240 416c102 -58.667 180.833 -136.167 236.5 -232.5s83.5 -203.5 83.5 -321.5zM840 640c0 -33.333 -11.667 -61.666 -35 -84.999s-51.666 -35 -84.999 -35s-61.666 11.667 -84.999 35s-35 51.666 -35 84.999
s11.667 61.666 35 84.999s51.666 35 84.999 35s61.666 -11.667 84.999 -35s35 -51.666 35 -84.999zM640 778c-53.333 -32 -80 -78 -80 -138h-480c0 118 27.833 225.167 83.5 321.5s134.5 173.833 236.5 232.5zM1040 86c-95.333 -57.333 -202.001 -86 -320.001 -86
c-113.333 0 -220 28.667 -320 86l240 416c25.333 -14.667 52 -22 80 -22c28.667 0 55.334 7 80.001 21z" />
    <glyph glyph-name="underscore" unicode="_" horiz-adv-x="1440" 
d="M1360 640h-480c0 62 -26.667 108 -80 138l240 416c102 -58.667 180.833 -136.167 236.5 -232.5s83.5 -203.5 83.5 -321.5zM840 640c0 -33.333 -11.667 -61.666 -35 -84.999s-51.666 -35 -84.999 -35s-61.666 11.667 -84.999 35s-35 51.666 -35 84.999
s11.667 61.666 35 84.999s51.666 35 84.999 35s61.666 -11.667 84.999 -35s35 -51.666 35 -84.999zM640 778c-53.333 -32 -80 -78 -80 -138h-480c0 118 27.833 225.167 83.5 321.5s134.5 173.833 236.5 232.5zM1040 86c-95.333 -57.333 -202.001 -86 -320.001 -86
c-113.333 0 -220 28.667 -320 86l240 416c25.333 -14.667 52 -22 80 -22c28.667 0 55.334 7 80.001 21z" />
    <glyph glyph-name="grave" unicode="`" 
d="M1550 1200v-50c-129.333 0 -229.333 -64.333 -300 -193l-250 -457h-600l-200 400c-40 80 -79.333 138.667 -118 176c-51.333 49.333 -112 74 -182 74v50h1650zM850 1000l150 -300l150 300c5.33301 10.667 8 21.334 8 32.001c0 32.667 -18.667 61 -56 85
c-33.333 22 -67.333 33 -102 33c-36 0 -70.333 -10.333 -103 -31c-36.667 -24 -55 -53 -55 -87c0 -10.667 2.66699 -21.334 8 -32.001z" />
    <glyph glyph-name="a" unicode="a" horiz-adv-x="1350" 
d="M1500 0l-1800 0.000976562v50h50c112 0 202.667 59.333 272 178c25.333 43.333 51.333 100.666 78 171.999l300 800h500l400 -900c18.667 -41.333 47 -89.333 85 -144c49.333 -70.667 87.666 -106 114.999 -106v-50zM560.001 500.001l-160 350l-136 -350h296z
M626.001 355.001c-0.666992 2 -9.33301 17 -26 45h-373c-18 -30.667 -27 -64 -27 -100c0 -58.667 22.667 -107 68 -145c42.667 -36.667 93.667 -55 153 -55c56.667 0 106.667 16.333 150 49c48 35.333 72 80.333 72 135c0 22 -5.66699 45.667 -17 71z" />
    <glyph glyph-name="b" unicode="b" 
d="M1650 300c0 -84.667 -28.833 -155.832 -86.5 -213.499s-128.834 -86.5 -213.501 -86.5h-1450v50c78.667 0 146.667 21.667 204 65c64 47.333 96 109 96 185v600c0 76 -32 137.667 -96 185c-57.333 43.333 -125.333 65 -204 65v50h1450
c84.667 0 155.834 -28.833 213.501 -86.5s86.5 -128.834 86.5 -213.501c0 -135.333 -47.333 -235.333 -142 -300c94.667 -64 142 -164 142 -300zM1051 863.002l-0.000976562 10c0 62 -22.667 115.5 -68 160.5s-99 67.5 -161 67.5c-9.33301 0 -16.666 -0.333008 -21.999 -1
v-450c4.66699 -0.666992 9 -1 13 -1h13c56.667 0 106.667 19.333 150 58c50 44.667 75 96.667 75 156zM1050 350.002c-6.66699 58 -31 106 -73 144s-92.333 57 -151 57c-11.333 0 -20 -0.333008 -26 -1v-450c4 -0.666992 8 -1 12 -1h11c62 0 115.5 22.667 160.5 68
s67.5 99 67.5 161c0 8.66699 -0.333008 16 -1 22z" />
    <glyph glyph-name="c" unicode="c" horiz-adv-x="1450" 
d="M1400 400c-103.333 -220.667 -249.333 -353.001 -438 -397.001c-76.667 -18 -180.667 -27 -312 -27c-188 0 -335.667 57.333 -443 172c-104.667 112 -157 262.667 -157 452c0 199.333 49.667 353 149 461c102.667 112 253 166.333 451 163
c24 -1.33301 71.667 -3.66602 143 -6.99902c234 -11.333 419.667 -17 557 -17v-500h-100c0 107.333 -22.667 197.333 -68 270c-54 86.667 -131.333 130 -232 130c-116 0 -192.333 -91 -229 -273c-14 -69.333 -21 -145 -21 -227c0 -134 16.667 -244.333 50 -331
c43.333 -112.667 110 -169 200 -169c102.667 0 181 56 235 168c43.333 90 65 200.667 65 332z" />
    <glyph glyph-name="d" unicode="d" 
d="M1700 600c0 -169.333 -57.667 -311.668 -173 -427.001s-257.666 -173 -426.999 -173h-1200v50c78.667 0 146.667 21.667 204 65c64 47.333 96 109 96 185v600c0 76 -32 137.667 -96 185c-57.333 43.333 -125.333 65 -204 65v50h1200
c169.333 0 311.666 -57.667 426.999 -173s173 -257.666 173 -426.999zM1100 299.998v600c0 56.667 -19.167 104.167 -57.5 142.5s-85.833 57.5 -142.5 57.5h-100v-1000h100c56.667 0 104.167 19.167 142.5 57.5s57.5 85.833 57.5 142.5z" />
    <glyph glyph-name="e" unicode="e" horiz-adv-x="1550" 
d="M1450 0h-1550v50c97.333 0 169.666 16.667 216.999 50c55.333 39.333 83 106 83 200v600c0 166.667 -100 250 -300 250v50h1550v-500h-50l-500 400h-100v-450l300 250v-550l-300 250v-500h50l550 450h50v-550z" />
    <glyph glyph-name="f" unicode="f" horiz-adv-x="1650" 
d="M1550 650l-350 300.001l-250 150h-50v-450l300 250v-550l-300 250v-300c0 -82.667 48.667 -147.334 146 -194.001c77.333 -37.333 162 -56 254 -56v-50h-1400v50c64 0 127.667 22.667 191 68c72.667 52 109 112.667 109 182v600c0 70 -36 130.667 -108 182
c-64 45.333 -128 68 -192 68v50h1650v-550z" />
    <glyph glyph-name="g" unicode="g" horiz-adv-x="1450" 
d="M1400 0c-21.333 0 -47 -1 -77 -3c-161.333 -10.667 -302.333 -38.667 -423 -84v78c-65.333 -10 -148.666 -15 -249.999 -15c-188 0 -335.667 57.333 -443 172c-104.667 112 -157 262.667 -157 452c0 199.333 49.667 353 149 461c102.667 112 253 166.333 451 163
c24 -1.33301 71.667 -3.66602 143 -6.99902c234 -11.333 419.667 -17 557 -17v-500h-100c0 107.333 -22.667 197.333 -68 270c-54 86.667 -131.333 130 -232 130c-116 0 -192.333 -91 -229 -273c-14 -69.333 -21 -145 -21 -227c0 -108.667 11.333 -203.334 34 -284.001
c33.333 -118.667 88.666 -188.667 165.999 -210v494c74 -16 140.667 -24 200 -24c120 0 220 8 300 24v-600z" />
    <glyph glyph-name="h" unicode="h" horiz-adv-x="2000" 
d="M2100 0h-2200v50c64 0 127.667 22.667 191 68c72.667 52 109 112.667 109 182v600c0 70 -36 130.667 -108 182c-64 45.333 -128 68 -192 68v50h2200v-50c-64 0 -127.667 -22.667 -191 -68c-72.667 -52 -109 -112.667 -109 -182v-600c0 -70 36 -130.667 108 -182
c64 -45.333 128 -68 192 -68v-50zM1200 650v250c0 52 -21.333 100 -64 144c-36 37.333 -81.333 66 -136 86c-54.667 -20 -100 -48.667 -136 -86c-42.667 -44 -64 -92 -64 -144v-250h400zM1200 300v250h-400v-250c0 -52 21.333 -100 64 -144c36 -37.333 81.333 -66 136 -86
c54.667 20 100 48.667 136 86c42.667 44 64 92 64 144z" />
    <glyph glyph-name="i" unicode="i" horiz-adv-x="1000" 
d="M1100 0h-1200v50c64 0 127.667 22.667 191 68c72.667 52 109 112.667 109 182v600c0 70 -36 130.667 -108 182c-64 45.333 -128 68 -192 68v50h1200v-50c-64 0 -127.667 -22.667 -191 -68c-72.667 -52 -109 -112.667 -109 -182v-600c0 -70 36 -130.667 108 -182
c64 -45.333 128 -68 192 -68v-50z" />
    <glyph glyph-name="j" unicode="j" horiz-adv-x="1400" 
d="M1500 1150c-64 0 -127.668 -22.667 -191.001 -68c-72.667 -52 -109 -112.667 -109 -182v-600c0 -81.333 -29.667 -151.666 -89 -210.999s-129.666 -89 -210.999 -89h-500c-96 0 -178.667 16 -248 48c-62.667 29.333 -130 80 -202 152l150 200
c0 -233.333 100 -350 300 -350c58 0 106.667 28 146 84c36 50 54 105.333 54 166v600c0 91.333 -46.667 158.666 -140 201.999c-69.333 32 -156 48 -260 48v50h1300v-50z" />
    <glyph glyph-name="k" unicode="k" 
d="M1800 0l-450 -0.000976562c-92 0 -172 26.333 -240 79c-73.333 57.333 -110 131 -110 221v100c0 48.667 -22 86.667 -66 114c-38 24 -82.667 36 -134 36v-250c0 -69.333 18.667 -130 56 -182c32.667 -45.333 64 -68 94 -68v-50h-1050v50c64 0 127.667 22.667 191 68
c72.667 52 109 112.667 109 182v600c0 70 -36 130.667 -108 182c-64 45.333 -128 68 -192 68v50h1050v-50c-29.333 0 -60.333 -22.667 -93 -68c-38 -53.333 -57 -114 -57 -182v-250c51.333 0 96 12 134 36c44 27.333 66 65.333 66 114v100c0 90 36.667 163.667 110 221
c68 52.667 148 79 240 79h450v-50c-51.333 0 -96 -12 -134 -36c-44 -27.333 -66 -65.333 -66 -114v-100c0 -90 -36.667 -163.667 -110 -221c-68 -52.667 -148 -79 -240 -79c92 0 172 -26.667 240 -80c73.333 -57.333 110 -130.666 110 -219.999v-100
c0 -48.667 22 -86.667 66 -114c38 -24 82.667 -36 134 -36v-50z" />
    <glyph glyph-name="l" unicode="l" horiz-adv-x="1550" 
d="M1450 0h-1550v50c64 0 127.667 22.667 191 68c72.667 52 109 112.667 109 182v600c0 70 -36 130.667 -108 182c-64 45.333 -128 68 -192 68v50h1200v-50c-64 0 -127.667 -22.667 -191 -68c-72.667 -52 -109 -112.667 -109 -182v-800h50l550 450h50v-550z" />
    <glyph glyph-name="m" unicode="m" horiz-adv-x="1950" 
d="M2050 0h-1100v50c70.667 0 130 24 178 72s72 107.333 72 178v600l-350 -900h-150l-350 800v-500c0 -71.333 23.833 -130.833 71.5 -178.5s107.167 -71.5 178.5 -71.5v-50h-650v50c78.667 0 146.667 21.667 204 65c64 47.333 96 109 96 185v600c0 76 -32 137.667 -96 185
c-57.333 43.333 -125.333 65 -204 65v50h800l250 -500l200 500h850v-50c-78.667 0 -146.667 -21.667 -204 -65c-64 -47.333 -96 -109 -96 -185v-600c0 -76 32 -137.667 96 -185c57.333 -43.333 125.333 -65 204 -65v-50z" />
    <glyph glyph-name="n" unicode="n" horiz-adv-x="1500" 
d="M1650 1150h-49.9971c-84.667 0 -155.834 -28.833 -213.501 -86.5s-86.5 -128.834 -86.5 -213.501v-850h-400l-600 800v-500c0 -76 32 -137.667 96 -185c57.333 -43.333 125.333 -65 204 -65h50v-50h-800v50h50c156 0 250.667 119 284 357c10.667 76 16 173.667 16 293
v200c-11.333 11.333 -37.333 44.333 -78 99c-34.667 46.667 -66 81 -94 103c-40.667 32 -83.334 48 -128.001 48h-50v50h850l500 -600v250c0 84.667 -28.833 155.834 -86.5 213.501s-128.834 86.5 -213.501 86.5h-50v50h800v-50z" />
    <glyph glyph-name="o" unicode="o" horiz-adv-x="1500" 
d="M1600 600c0 -126 -40.667 -236.333 -122 -331c-72.667 -84.667 -171.667 -151.334 -297 -200.001c-118.667 -46 -245.667 -69 -381 -69c-211.333 0 -393.333 51 -546 153c-169.333 113.333 -254 262.333 -254 447c0 126 40.667 236.333 122 331
c72.667 84.667 171.667 151.334 297 200.001c118.667 46 245.667 69 381 69c211.333 0 393.333 -51 546 -153c169.333 -113.333 254 -262.333 254 -447zM950 600c0 131.333 -1.66699 218.999 -5 262.999c-12 158 -60.333 237 -145 237c-84 0 -131.333 -72.333 -142 -217
c-5.33301 -72 -8 -166.333 -8 -283c0 -131.333 1.66699 -219 5 -263c12 -158 60.333 -237 145 -237c84 0 132 79 144 237c4 52.667 6 140.334 6 263.001z" />
    <glyph glyph-name="p" unicode="p" 
d="M1650 900c0 -92 -26.334 -171.999 -79.001 -239.999c-57.333 -73.333 -131 -110 -221 -110h-550v-250c0 -71.333 23.833 -130.833 71.5 -178.5s107.167 -71.5 178.5 -71.5v-50h-1150v50c78.667 0 146.667 21.667 204 65c64 47.333 96 109 96 185v600
c0 76 -32 137.667 -96 185c-57.333 43.333 -125.333 65 -204 65v50h1450c84.667 0 155.834 -28.833 213.501 -86.5s86.5 -128.834 86.5 -213.501zM1051 863.001l-0.000976562 10c0 62 -22.667 115.5 -68 160.5s-99 67.5 -161 67.5c-9.33301 0 -16.666 -0.333008 -21.999 -1
v-450c4.66699 -0.666992 9 -1 13 -1h13c56.667 0 106.667 19.333 150 58c50 44.667 75 96.667 75 156z" />
    <glyph glyph-name="q" unicode="q" horiz-adv-x="1500" 
d="M1600 -100l-450 -0.000976562c-105.333 0 -193.666 34.333 -264.999 103l-85 -3c-196.667 -6.66699 -374.334 41 -533.001 143c-178 114.667 -267 267 -267 457c0 126 40.667 236.333 122 331c72.667 84.667 171.667 151.334 297 200.001c118.667 46 245.667 69 381 69
c211.333 0 393.333 -51 546 -153c169.333 -113.333 254 -262.333 254 -447c0 -161.333 -66.667 -297 -200 -407v-93c0 -48.667 22 -86.667 66 -114c38 -24 82.667 -36 134 -36v-50zM950 599.999c0 131.333 -1.66699 218.999 -5 262.999c-12 158 -60.333 237 -145 237
c-84 0 -131.333 -72.333 -142 -217c-5.33301 -72 -8 -166.333 -8 -283c0 -131.333 1.66699 -219 5 -263c12 -158 60.333 -237 145 -237c84 0 132 79 144 237c4 52.667 6 140.334 6 263.001z" />
    <glyph glyph-name="r" unicode="r" 
d="M1800 0h-450.002c-92 -0 -172 26.333 -240 79c-73.333 57.333 -110 131 -110 221v100c0 48.667 -22 86.667 -66 114c-38 24 -82.667 36 -134 36v-250c0 -71.333 23.833 -130.833 71.5 -178.5s107.167 -71.5 178.5 -71.5v-50h-1150v50c78.667 0 146.667 21.667 204 65
c64 47.333 96 109 96 185v600c0 76 -32 137.667 -96 185c-57.333 43.333 -125.333 65 -204 65v50h1450c84.667 0 155.834 -28.833 213.501 -86.5s86.5 -128.834 86.5 -213.501c0 -81.333 -29.667 -151.666 -89 -210.999s-129.666 -89 -210.999 -89v-50
c113.333 0 189.333 -43 228 -129l32 -154c16 -66 36.333 -116 61 -150c32.667 -44.667 75.667 -67 129 -67v-50zM1051 863l-0.000976562 10c0 62 -22.667 115.5 -68 160.5s-99 67.5 -161 67.5c-9.33301 0 -16.666 -0.333008 -21.999 -1v-450c4.66699 -0.666992 9 -1 13 -1
h13c56.667 0 106.667 19.333 150 58c50 44.667 75 96.667 75 156z" />
    <glyph glyph-name="s" unicode="s" horiz-adv-x="1500" 
d="M1500 400c0 -119.333 -51.999 -217.333 -155.999 -294c-96 -70.667 -210.667 -106 -344 -106h-900v400c15.333 -21.333 35.333 -47 60 -77c121.333 -148.667 234.666 -223 339.999 -223h300c30.667 0 56 13.667 76 41c18 24.667 27 53 27 85
c0 30 -9.83301 57.167 -29.5 81.5s-44.167 38.5 -73.5 42.5l-400 50c-95.333 12 -170.333 58.667 -225 140c-50 73.333 -75 160 -75 260c0 112 38.667 206.667 116 284s172 116 284 116h900v-350l-73 75c-40 40 -87 76.667 -141 110c-70 43.333 -132 65 -186 65h-300
c-30.667 0 -56 -13.667 -76 -41c-18 -24.667 -27 -53 -27 -85c0 -31.333 9.5 -59 28.5 -83s43.833 -37.667 74.5 -41l500 -50c96 -9.33301 171.333 -55.333 226 -138c49.333 -74 74 -161.333 74 -262z" />
    <glyph glyph-name="t" unicode="t" horiz-adv-x="1500" 
d="M1500 550l-50.001 0.000976562c0 52 -98.667 195 -296 429c-65.333 77.333 -100 117.666 -104 120.999v-700c0 -99.333 33.5 -182.5 100.5 -249.5s150.167 -100.5 249.5 -100.5v-50h-1300v50c99.333 0 182.5 33.5 249.5 100.5s100.5 150.167 100.5 249.5v700
c-9.33301 -10 -43.666 -50 -102.999 -120c-198 -234 -297 -377.333 -297 -430h-50v650h1500v-650z" />
    <glyph glyph-name="u" unicode="u" horiz-adv-x="1600" 
d="M1750 1150l-50.001 0.00292969c-67.333 0 -132.666 -24.333 -195.999 -73c-68 -52.667 -102 -111.667 -102 -177v-550c0 -86.667 -28.333 -165.334 -85 -236.001c-60.667 -76 -133 -114 -217 -114h-550c-83.333 0 -154.166 29.167 -212.499 87.5
s-87.5 129.166 -87.5 212.499v500c0 89.333 -27.333 168.666 -82 237.999c-58.667 74.667 -131.334 112 -218.001 112h-50v50h1850v-50zM1300 600.003c0 96.667 -3.33301 171.334 -10 224.001c-23.333 184 -95 276 -215 276c-119.333 0 -190.666 -91.667 -213.999 -275
c-7.33301 -57.333 -11 -132.333 -11 -225c0 -96.667 3.33301 -171.334 10 -224.001c23.333 -184 95 -276 215 -276c119.333 0 190.666 91.667 213.999 275c7.33301 57.333 11 132.333 11 225z" />
    <glyph glyph-name="v" unicode="v" 
d="M1800 1150c-158.667 0 -275 -83.333 -349 -250l-401 -900h-600v50c28 0 53.167 11.667 75.5 35s33.5 49.333 33.5 78c0 12.667 -3 25 -9 37l-350 700c-40 80 -79.333 138.667 -118 176c-51.333 49.333 -112 74 -182 74v50h1900v-50zM1300 900c6 14.667 9 30.001 9 46.001
c0 52.667 -30.667 100.667 -92 144c-56 40 -111.667 60 -167 60c-66 0 -133 -20.667 -201 -62c-73.333 -44.667 -110 -92.667 -110 -144c0 -14.667 3.66699 -29.334 11 -44.001l300 -600z" />
    <glyph glyph-name="w" unicode="w" horiz-adv-x="2500" 
d="M2779 1150c-90.667 0 -155.334 -39.668 -194 -119.001l-56 -131l-381 -900h-548l-250 500l-224 -500h-676v50c28 0 53.167 11.667 75.5 35s33.5 49.333 33.5 78c0 12.667 -3 25 -9 37l-350 700c-40 80 -79.333 138.667 -118 176c-51.333 49.333 -112 74 -182 74v50h1150
v-50c-58 0 -114.667 -18 -170 -54c-62 -40 -93 -87.667 -93 -143c0 -18 4.33301 -35.667 13 -53l300 -600l400 900h175l450 -900l250 600c16 38.667 24 76.334 24 113.001c0 91.333 -40 137 -120 137v50h500v-50z" />
    <glyph glyph-name="x" unicode="x" horiz-adv-x="1250" 
d="M1450 1150c-129.333 0 -229.333 -64.333 -300 -193l-198 -361l148 -296c40 -80 79.333 -138.667 118 -176c51.333 -49.333 112 -74 182 -74v-50h-1550v50c129.333 0 229.333 64.333 300 193l198 361l-148 296c-40 80 -79.333 138.667 -118 176
c-51.333 49.333 -112 74 -182 74v50h1550v-50zM1050 1000c5.33301 10.667 8 21.334 8 32.001c0 32.667 -18.667 61 -56 85c-33.333 22 -67.333 33 -102 33c-36 0 -70.333 -10.333 -103 -31c-36.667 -24 -55 -53 -55 -87c0 -10.667 2.66699 -21.334 8 -32.001l150 -300z
M550 200l-150 300l-150 -300c-5.33301 -10.667 -8 -21.334 -8 -32.001c0 -32.667 18.667 -61 56 -85c33.333 -22 67.333 -33 102 -33c36 0 70.333 10.333 103 31c36.667 24 55 53 55 87c0 10.667 -2.66699 21.334 -8 32.001z" />
    <glyph glyph-name="y" unicode="y" horiz-adv-x="1250" 
d="M1500 1150c-136.667 0 -236.667 -64.332 -300 -192.999l-200 -407v-250c0 -70.667 23.333 -131.334 70 -182.001c42 -45.333 85.333 -68 130 -68v-50h-1000v50c35.333 0 75.333 22.333 120 67c53.333 53.333 80 114.333 80 183v250l-200 350
c-31.333 54.667 -57 95.667 -77 123c-62.667 84.667 -137 127 -223 127v50h1600v-50zM1100 1000c5.33301 10.667 8 21.334 8 32.001c0 32.667 -18.667 61 -56 85c-33.333 22 -67.333 33 -102 33c-36 0 -70.333 -10.333 -103 -31c-36.667 -24 -55 -53 -55 -87
c0 -10.667 2.66699 -21.334 8 -32.001l150 -300z" />
    <glyph glyph-name="z" unicode="z" horiz-adv-x="1350" 
d="M1350 0h-1350l650 1100h-50c-153.333 -76.667 -298 -173 -434 -289c-44.667 -38 -100 -91.667 -166 -161v550h1350l-650 -1100h50c152 76 296.667 172.667 434 290c47.333 40.667 102.666 94 165.999 160v-550z" />
    <glyph glyph-name="braceleft" unicode="{" horiz-adv-x="1440" 
d="M1360 640h-480c0 62 -26.667 108 -80 138l240 416c102 -58.667 180.833 -136.167 236.5 -232.5s83.5 -203.5 83.5 -321.5zM840 640c0 -33.333 -11.667 -61.666 -35 -84.999s-51.666 -35 -84.999 -35s-61.666 11.667 -84.999 35s-35 51.666 -35 84.999
s11.667 61.666 35 84.999s51.666 35 84.999 35s61.666 -11.667 84.999 -35s35 -51.666 35 -84.999zM640 778c-53.333 -32 -80 -78 -80 -138h-480c0 118 27.833 225.167 83.5 321.5s134.5 173.833 236.5 232.5zM1040 86c-95.333 -57.333 -202.001 -86 -320.001 -86
c-113.333 0 -220 28.667 -320 86l240 416c25.333 -14.667 52 -22 80 -22c28.667 0 55.334 7 80.001 21z" />
    <glyph glyph-name="bar" unicode="|" horiz-adv-x="1440" 
d="M1360 640h-480c0 62 -26.667 108 -80 138l240 416c102 -58.667 180.833 -136.167 236.5 -232.5s83.5 -203.5 83.5 -321.5zM840 640c0 -33.333 -11.667 -61.666 -35 -84.999s-51.666 -35 -84.999 -35s-61.666 11.667 -84.999 35s-35 51.666 -35 84.999
s11.667 61.666 35 84.999s51.666 35 84.999 35s61.666 -11.667 84.999 -35s35 -51.666 35 -84.999zM640 778c-53.333 -32 -80 -78 -80 -138h-480c0 118 27.833 225.167 83.5 321.5s134.5 173.833 236.5 232.5zM1040 86c-95.333 -57.333 -202.001 -86 -320.001 -86
c-113.333 0 -220 28.667 -320 86l240 416c25.333 -14.667 52 -22 80 -22c28.667 0 55.334 7 80.001 21z" />
    <glyph glyph-name="braceright" unicode="}" horiz-adv-x="1440" 
d="M1360 640h-480c0 62 -26.667 108 -80 138l240 416c102 -58.667 180.833 -136.167 236.5 -232.5s83.5 -203.5 83.5 -321.5zM840 640c0 -33.333 -11.667 -61.666 -35 -84.999s-51.666 -35 -84.999 -35s-61.666 11.667 -84.999 35s-35 51.666 -35 84.999
s11.667 61.666 35 84.999s51.666 35 84.999 35s61.666 -11.667 84.999 -35s35 -51.666 35 -84.999zM640 778c-53.333 -32 -80 -78 -80 -138h-480c0 118 27.833 225.167 83.5 321.5s134.5 173.833 236.5 232.5zM1040 86c-95.333 -57.333 -202.001 -86 -320.001 -86
c-113.333 0 -220 28.667 -320 86l240 416c25.333 -14.667 52 -22 80 -22c28.667 0 55.334 7 80.001 21z" />
    <glyph glyph-name="asciitilde" unicode="~" horiz-adv-x="1440" 
d="M1360 640h-480c0 62 -26.667 108 -80 138l240 416c102 -58.667 180.833 -136.167 236.5 -232.5s83.5 -203.5 83.5 -321.5zM840 640c0 -33.333 -11.667 -61.666 -35 -84.999s-51.666 -35 -84.999 -35s-61.666 11.667 -84.999 35s-35 51.666 -35 84.999
s11.667 61.666 35 84.999s51.666 35 84.999 35s61.666 -11.667 84.999 -35s35 -51.666 35 -84.999zM640 778c-53.333 -32 -80 -78 -80 -138h-480c0 118 27.833 225.167 83.5 321.5s134.5 173.833 236.5 232.5zM1040 86c-95.333 -57.333 -202.001 -86 -320.001 -86
c-113.333 0 -220 28.667 -320 86l240 416c25.333 -14.667 52 -22 80 -22c28.667 0 55.334 7 80.001 21z" />
    <glyph glyph-name="onesuperior" unicode="&#xb9;" horiz-adv-x="1550" 
d="M1450 0h-1550v50c97.333 0 169.666 16.667 216.999 50c55.333 39.333 83 106 83 200v600c0 166.667 -100 250 -300 250v50h1550v-500h-50l-500 400h-100v-450l300 250v-550l-300 250v-500h50l550 450h50v-550zM1025 1200c-80 0 -120 33.333 -120 100s40 100 120 100
s120 -33.333 120 -100s-40 -100 -120 -100zM525.001 1200c-80 0 -120 33.333 -120 100s40 100 120 100s120 -33.333 120 -100s-40 -100 -120 -100z" />
    <glyph glyph-name="Agrave" unicode="&#xc0;" horiz-adv-x="1350" 
d="M1500 0l-1800 0.000976562v50h50c112 0 202.667 59.333 272 178c25.333 43.333 51.333 100.666 78 171.999l300 800h500l400 -900c18.667 -41.333 47 -89.333 85 -144c49.333 -70.667 87.666 -106 114.999 -106v-50zM560.001 500.001l-160 350l-136 -350h296z
M626.001 355.001c-0.666992 2 -9.33301 17 -26 45h-373c-18 -30.667 -27 -64 -27 -100c0 -58.667 22.667 -107 68 -145c42.667 -36.667 93.667 -55 153 -55c56.667 0 106.667 16.333 150 49c48 35.333 72 80.333 72 135c0 22 -5.66699 45.667 -17 71z" />
    <glyph glyph-name="Aacute" unicode="&#xc1;" 
d="M1177 650c144.667 0 254.668 -21.999 330.001 -65.999c95.333 -56 143 -150.667 143 -284c0 -84.667 -28.833 -155.834 -86.5 -213.501s-128.834 -86.5 -213.501 -86.5h-1450v50c78.667 0 146.667 21.667 204 65c64 47.333 96 109 96 185v600c0 76 -32 137.667 -96 185
c-57.333 43.333 -125.333 65 -204 65v50h1550v-500h-50l-500 400h-100v-450h377zM1050 350.001c-6.66699 58 -31 106 -73 144s-92.333 57 -151 57c-11.333 0 -20 -0.333008 -26 -1v-450c4 -0.666992 8 -1 12 -1h11c62 0 115.5 22.667 160.5 68s67.5 99 67.5 161
c0 8.66699 -0.333008 16 -1 22z" />
    <glyph glyph-name="Acircumflex" unicode="&#xc2;" 
d="M1650 300c0 -84.667 -28.833 -155.832 -86.5 -213.499s-128.834 -86.5 -213.501 -86.5h-1450v50c78.667 0 146.667 21.667 204 65c64 47.333 96 109 96 185v600c0 76 -32 137.667 -96 185c-57.333 43.333 -125.333 65 -204 65v50h1450
c84.667 0 155.834 -28.833 213.501 -86.5s86.5 -128.834 86.5 -213.501c0 -135.333 -47.333 -235.333 -142 -300c94.667 -64 142 -164 142 -300zM1051 863.002l-0.000976562 10c0 62 -22.667 115.5 -68 160.5s-99 67.5 -161 67.5c-9.33301 0 -16.666 -0.333008 -21.999 -1
v-450c4.66699 -0.666992 9 -1 13 -1h13c56.667 0 106.667 19.333 150 58c50 44.667 75 96.667 75 156zM1050 350.002c-6.66699 58 -31 106 -73 144s-92.333 57 -151 57c-11.333 0 -20 -0.333008 -26 -1v-450c4 -0.666992 8 -1 12 -1h11c62 0 115.5 22.667 160.5 68
s67.5 99 67.5 161c0 8.66699 -0.333008 16 -1 22z" />
    <glyph glyph-name="Atilde" unicode="&#xc3;" horiz-adv-x="1550" 
d="M1450 1200h-1550v-50c64 0 127.667 -22.667 191 -68c72.667 -52 109 -112.667 109 -182v-600c0 -70 -36 -130.667 -108 -182c-64 -45.333 -128 -68 -192 -68v-50h1200v50c-64 0 -127.667 22.667 -191 68c-72.667 52 -109 112.667 -109 182v800h50l550 -450h50v550z" />
    <glyph glyph-name="Adieresis" unicode="&#xc4;" horiz-adv-x="1886" 
d="M1412 0l499.999 -400.001h50v500h-100c-79.333 0 -150.666 23 -213.999 69c-70 50.667 -105 114.334 -105 191.001v540c0 69.333 36.333 130 109 182c63.333 45.333 127 68 191 68v50h-1700v-50c64 0 128 -22.667 192 -68c72 -51.333 108 -112 108 -182v-540
c0 -76.667 -36 -140.667 -108 -192c-28 -20 -80 -37 -156 -51c-61.333 -11.333 -113 -17 -155 -17h-100v-500h50l500 400h938zM605.999 1050c32.667 33.333 78.334 50 137.001 50s106.667 -18.667 144 -56s56 -85.333 56 -144v-600c-14 -133.333 -80.667 -200 -200 -200
c-60.667 0 -106.334 16 -137.001 48c-42 44 -63 94.667 -63 152v600c0 56.667 21 106.667 63 150z" />
    <glyph glyph-name="Aring" unicode="&#xc5;" horiz-adv-x="1550" 
d="M1450 0h-1550v50c97.333 0 169.666 16.667 216.999 50c55.333 39.333 83 106 83 200v600c0 166.667 -100 250 -300 250v50h1550v-500h-50l-500 400h-100v-450l300 250v-550l-300 250v-500h50l550 450h50v-550z" />
    <glyph glyph-name="AE" unicode="&#xc6;" horiz-adv-x="2400" 
d="M1650 0v50c-30 0 -61.333 22.667 -94 68c-37.333 52 -56 112.667 -56 182v250c45.333 0 86 -13.333 122 -40c38.667 -29.333 58 -66 58 -110v-100c0 -90 36.667 -163.667 110 -221c68 -52.667 148 -79 240 -79h450v50c-51.333 0 -96 12 -134 36
c-44 27.333 -66 65.333 -66 114v100c0 89.333 -36.667 162.666 -110 219.999c-68 53.333 -148 80 -240 80c92 0 172 26.333 240 79c73.333 57.333 110 131 110 221v100c0 48.667 22 86.667 66 114c38 24 82.667 36 134 36v50h-450c-92 0 -172 -26.333 -240 -79
c-73.333 -57.333 -110 -131 -110 -221v-100c0 -44 -19.333 -80.667 -58 -110c-36 -26.667 -76.667 -40 -122 -40v250c0 68 19 128.667 57 182c32.667 45.333 63.667 68 93 68v50h-890v-50c44.667 0 80.667 -32.333 108 -97c21.333 -51.333 32 -102.333 32 -153v-250
c-45.333 0 -86 13.333 -122 40c-38.667 29.333 -58 66 -58 110v100c0 90 -36.667 163.667 -110 221c-68 52.667 -148 79 -240 79h-450v-50c51.333 0 96 -12 134 -36c44 -27.333 66 -65.333 66 -114v-100c0 -90 36.667 -163.667 110 -221c68 -52.667 148 -79 240 -79
c-92 0 -172 -26.667 -240 -80c-73.333 -57.333 -110 -130.666 -110 -219.999v-100c0 -48.667 -22 -86.667 -66 -114c-38 -24 -82.667 -36 -134 -36v-50h450c92 -0 172 26.333 240 79c73.333 57.333 110 131 110 221v100c0 44 19.333 80.667 58 110
c36 26.667 76.667 40 122 40v-250c0 -70 -18.667 -130.667 -56 -182c-32.667 -45.333 -64 -68 -94 -68v-50h900z" />
    <glyph glyph-name="Ccedilla" unicode="&#xc7;" horiz-adv-x="1450" 
d="M721 251c-38.667 -100.667 -112.331 -151.002 -220.998 -151.002c-95.333 0 -168.666 42.333 -219.999 127c-20.667 34 -40.667 88.667 -60 164l-140 -190c44 -32 103.667 -71.333 179 -118c47.333 -29.333 123.666 -56 228.999 -80c78.667 -18 182.667 -27 312 -27
c184 0 327.667 51.333 431 154c41.333 41.333 69.333 76 84 104c18 34.667 27.333 79.334 28 134.001c0.666992 62.667 -26 117.334 -80 164.001c-43.333 37.333 -88.333 59.666 -135 66.999c46.667 12 93.334 42 140.001 90c52 53.333 78.333 108.333 79 165
c1.33301 80.667 -34.667 159.667 -108 237c-86.667 91.333 -236.334 135.666 -449.001 132.999c-15.333 -0.666992 -63 -3 -143 -7c-229.333 -11.333 -408.333 -17 -537 -17v-415h100c3.33301 44 10.666 79.333 21.999 106c9.33301 22.667 27.666 53.334 54.999 92.001
c54.667 78 125.667 117 213 117c58.667 0 109.334 -27 152.001 -81l44 -56c12.667 -20.667 20.667 -49 24 -85c4 -41.333 -8 -85.333 -36 -132c-16 -26.667 -38 -49 -66 -67c-30 -19.333 -59.667 -28.666 -89 -27.999v-100c37.333 -5.33301 75.666 -19.333 114.999 -42
c62.667 -36.667 94 -94.334 94 -173.001c0 -27.333 -5.66699 -55.666 -17 -84.999z" />
    <glyph glyph-name="Egrave" unicode="&#xc8;" horiz-adv-x="2000" 
d="M1800 900c0 69.333 36.333 130 109 182c63.333 45.333 127 68 191 68v50h-2200v-50c64 0 128 -22.667 192 -68c72 -51.333 108 -112 108 -182v-600c0 -69.333 -36.333 -130 -109 -182c-63.333 -45.333 -127 -68 -191 -68v-50h2200v50c-64 0 -128 22.667 -192 68
c-72 51.333 -108 112 -108 182v600zM1000 70c-54.667 20 -100 48.668 -136 86.001c-42.667 44 -64 92 -64 144v32l400 404v-436c0 -52.667 -21 -100.667 -63 -144c-36 -36.667 -81.667 -65.334 -137 -86.001zM800 900.001c0 52 21.333 100 64 144
c36 37.333 81.333 66 136 86c54.667 -20 100 -48.667 136 -86c42.667 -44 64 -92 64 -144v-26l-400 -400v426z" />
    <glyph glyph-name="Eacute" unicode="&#xc9;" horiz-adv-x="2000" 
d="M2100 0l0.000976562 50c-64 0 -128 22.667 -192 68c-72 51.333 -108 112 -108 182v600c0 69.333 36.333 130 109 182c63.333 45.333 127 68 191 68v50h-786c24.667 2 45 12.5 61 31.5s24 41.167 24 66.5c0 66.667 -40 100 -120 100c-87.333 0 -131 -33.333 -131 -100
c0 -8.66699 -21 -16 -63 -22c-28.667 -4 -54.334 -6 -77.001 -6c-25.333 0 -55 2.33301 -89 7c-46 6 -69 13 -69 21c0 66.667 -43.667 100 -131 100c-80 0 -120 -33.333 -120 -100c0 -26 8.66699 -48.833 26 -68.5s39 -29.5 65 -29.5h-790v-50c64 0 128 -22.667 192 -68
c72 -51.333 108 -112 108 -182v-600c0 -69.333 -36.333 -130 -109 -182c-63.333 -45.333 -127 -68 -191 -68v-50h2200zM800.001 300v32l400 404v-436c0 -52.667 -21.333 -100.667 -64 -144c-36 -37.333 -81.333 -66 -136 -86c-54.667 20 -100 48.667 -136 86
c-42.667 44 -64 92 -64 144zM800.001 900c0 52 21.333 100 64 144c36 37.333 81.333 66 136 86c54.667 -20 100 -48.667 136 -86c42.667 -44 64 -92 64 -144v-26l-400 -400v426z" />
    <glyph glyph-name="Ecircumflex" unicode="&#xca;" 
d="M1800 0l-450 -0.000976562c-92 0 -172 26.333 -240 79c-73.333 57.333 -110 131 -110 221v100c0 48.667 -22 86.667 -66 114c-38 24 -82.667 36 -134 36v-250c0 -69.333 18.667 -130 56 -182c32.667 -45.333 64 -68 94 -68v-50h-1050v50c64 0 127.667 22.667 191 68
c72.667 52 109 112.667 109 182v600c0 70 -36 130.667 -108 182c-64 45.333 -128 68 -192 68v50h1050v-50c-29.333 0 -60.333 -22.667 -93 -68c-38 -53.333 -57 -114 -57 -182v-250c51.333 0 96 12 134 36c44 27.333 66 65.333 66 114v100c0 90 36.667 163.667 110 221
c68 52.667 148 79 240 79h450v-50c-51.333 0 -96 -12 -134 -36c-44 -27.333 -66 -65.333 -66 -114v-100c0 -90 -36.667 -163.667 -110 -221c-68 -52.667 -148 -79 -240 -79c92 0 172 -26.667 240 -80c73.333 -57.333 110 -130.666 110 -219.999v-100
c0 -48.667 22 -86.667 66 -114c38 -24 82.667 -36 134 -36v-50z" />
    <glyph glyph-name="Edieresis" unicode="&#xcb;" horiz-adv-x="1721" 
d="M521 300v599.999c0 36 8.83301 71 26.5 105s41.5 59.333 71.5 76c22 12.667 56 19 102 19c61.333 0.666992 107 -14.666 137 -45.999c42 -44 63 -95.333 63 -154v-600c0 -70 -36 -130.667 -108 -182c-64 -45.333 -128 -68 -192 -68v-50h1200v50
c-64 0 -128 22.667 -192 68c-72 51.333 -108 112 -108 182v600c0 69.333 36.333 130 109 182c63.333 45.333 127 68 191 68v50h-1700v-50c64 0 128 -22.667 192 -68c72 -51.333 108 -112 108 -182v-600c0 -69.333 -36.333 -130 -109 -182c-22 -16 -44 -24 -66 -24
c-4.66699 0 -12 1 -22 3s-17.333 3 -22 3c-87.333 12.667 -155 123.667 -203 333l-99 -233c44 -66.667 82.333 -113.667 115 -141c47.333 -39.333 103 -59 167 -59h101c39.333 0 84.333 22 135 66c68.667 59.333 103 137.333 103 234z" />
    <glyph glyph-name="Igrave" unicode="&#xcc;" horiz-adv-x="1950" 
d="M2050 0h-1100v50c70.667 0 130 24 178 72s72 107.333 72 178v600l-350 -900h-150l-350 800v-500c0 -71.333 23.833 -130.833 71.5 -178.5s107.167 -71.5 178.5 -71.5v-50h-650v50c78.667 0 146.667 21.667 204 65c64 47.333 96 109 96 185v600c0 76 -32 137.667 -96 185
c-57.333 43.333 -125.333 65 -204 65v50h800l250 -500l200 500h850v-50c-78.667 0 -146.667 -21.667 -204 -65c-64 -47.333 -96 -109 -96 -185v-600c0 -76 32 -137.667 96 -185c57.333 -43.333 125.333 -65 204 -65v-50z" />
    <glyph glyph-name="Iacute" unicode="&#xcd;" horiz-adv-x="2000" 
d="M2100 0h-2200v50c64 0 127.667 22.667 191 68c72.667 52 109 112.667 109 182v600c0 70 -36 130.667 -108 182c-64 45.333 -128 68 -192 68v50h2200v-50c-64 0 -127.667 -22.667 -191 -68c-72.667 -52 -109 -112.667 -109 -182v-600c0 -70 36 -130.667 108 -182
c64 -45.333 128 -68 192 -68v-50zM1200 650v250c0 52 -21.333 100 -64 144c-36 37.333 -81.333 66 -136 86c-54.667 -20 -100 -48.667 -136 -86c-42.667 -44 -64 -92 -64 -144v-250h400zM1200 300v250h-400v-250c0 -52 21.333 -100 64 -144c36 -37.333 81.333 -66 136 -86
c54.667 20 100 48.667 136 86c42.667 44 64 92 64 144z" />
    <glyph glyph-name="Icircumflex" unicode="&#xce;" horiz-adv-x="1500" 
d="M1600 600c0 -126 -40.667 -236.333 -122 -331c-72.667 -84.667 -171.667 -151.334 -297 -200.001c-118.667 -46 -245.667 -69 -381 -69c-211.333 0 -393.333 51 -546 153c-169.333 113.333 -254 262.333 -254 447c0 126 40.667 236.333 122 331
c72.667 84.667 171.667 151.334 297 200.001c118.667 46 245.667 69 381 69c211.333 0 393.333 -51 546 -153c169.333 -113.333 254 -262.333 254 -447zM950 600c0 131.333 -1.66699 218.999 -5 262.999c-12 158 -60.333 237 -145 237c-84 0 -131.333 -72.333 -142 -217
c-5.33301 -72 -8 -166.333 -8 -283c0 -131.333 1.66699 -219 5 -263c12 -158 60.333 -237 145 -237c84 0 132 79 144 237c4 52.667 6 140.334 6 263.001z" />
    <glyph glyph-name="Idieresis" unicode="&#xcf;" horiz-adv-x="2000" 
d="M2100 0h-2200v50c64 0 127.667 22.667 191 68c72.667 52 109 112.667 109 182v600c0 70 -36 130.667 -108 182c-64 45.333 -128 68 -192 68v50h2200v-50c-64 0 -127.667 -22.667 -191 -68c-72.667 -52 -109 -112.667 -109 -182v-600c0 -70 36 -130.667 108 -182
c64 -45.333 128 -68 192 -68v-50zM1137 1053c-30 31.333 -75.333 47 -136 47c-62 0 -108 -15.667 -138 -47c-42 -43.333 -63 -94.333 -63 -153v-600c0 -52 21.333 -100 64 -144c36 -37.333 81.333 -66 136 -86c54.667 20 100 48.667 136 86c42.667 44 64 92 64 144v600
c0 58 -21 109 -63 153z" />
    <glyph glyph-name="Eth" unicode="&#xd0;" 
d="M1650 900c0 -92 -26.334 -171.999 -79.001 -239.999c-57.333 -73.333 -131 -110 -221 -110h-550v-250c0 -71.333 23.833 -130.833 71.5 -178.5s107.167 -71.5 178.5 -71.5v-50h-1150v50c78.667 0 146.667 21.667 204 65c64 47.333 96 109 96 185v600
c0 76 -32 137.667 -96 185c-57.333 43.333 -125.333 65 -204 65v50h1450c84.667 0 155.834 -28.833 213.501 -86.5s86.5 -128.834 86.5 -213.501zM1051 863.001l-0.000976562 10c0 62 -22.667 115.5 -68 160.5s-99 67.5 -161 67.5c-9.33301 0 -16.666 -0.333008 -21.999 -1
v-450c4.66699 -0.666992 9 -1 13 -1h13c56.667 0 106.667 19.333 150 58c50 44.667 75 96.667 75 156z" />
    <glyph glyph-name="Ntilde" unicode="&#xd1;" horiz-adv-x="1450" 
d="M1400 400c-103.333 -220.667 -249.333 -353.001 -438 -397.001c-76.667 -18 -180.667 -27 -312 -27c-188 0 -335.667 57.333 -443 172c-104.667 112 -157 262.667 -157 452c0 199.333 49.667 353 149 461c102.667 112 253 166.333 451 163
c24 -1.33301 71.667 -3.66602 143 -6.99902c234 -11.333 419.667 -17 557 -17v-500h-100c0 107.333 -22.667 197.333 -68 270c-54 86.667 -131.333 130 -232 130c-116 0 -192.333 -91 -229 -273c-14 -69.333 -21 -145 -21 -227c0 -134 16.667 -244.333 50 -331
c43.333 -112.667 110 -169 200 -169c102.667 0 181 56 235 168c43.333 90 65 200.667 65 332z" />
    <glyph glyph-name="Ograve" unicode="&#xd2;" horiz-adv-x="1500" 
d="M1500 550l-50.001 0.000976562c0 52 -98.667 195 -296 429c-65.333 77.333 -100 117.666 -104 120.999v-700c0 -99.333 33.5 -182.5 100.5 -249.5s150.167 -100.5 249.5 -100.5v-50h-1300v50c99.333 0 182.5 33.5 249.5 100.5s100.5 150.167 100.5 249.5v700
c-9.33301 -10 -43.666 -50 -102.999 -120c-198 -234 -297 -377.333 -297 -430h-50v650h1500v-650z" />
    <glyph glyph-name="Oacute" unicode="&#xd3;" horiz-adv-x="1250" 
d="M640 240l-440 660c-12.667 22 -38.334 63 -77.001 123c-57.333 84.667 -131.666 127 -222.999 127v50h1600v-50c-140 0 -240 -64.333 -300 -193l-360 -774c-16.667 -36.667 -36.667 -67 -60 -91c-58.667 -61.333 -129 -92 -211 -92h-29c-96 0 -178.667 16 -248 48
c-62.667 29.333 -130 80 -202 152l137 233c26 -72.667 66 -145 120 -217c22 -29.333 50.333 -54 85 -74c38 -22 74 -32.667 108 -32c38.667 0.666992 65 3 79 7c26 7.33301 47.667 23.333 65 48zM1100 1000c5.33301 11.333 8 22.001 8 32.001c0 32.667 -18.667 61 -56 85
c-33.333 22 -67.333 33 -102 33c-36 0 -70.333 -10.333 -103 -31c-36.667 -24 -55 -53 -55 -87c0 -12.667 2.66699 -23.334 8 -32.001l170 -280z" />
    <glyph glyph-name="Ocircumflex" unicode="&#xd4;" horiz-adv-x="2120" 
d="M618 813c-46 -46 -68.999 -115.668 -68.999 -209.001v-10c0 -3.33301 0.333008 -7.66602 1 -12.999c11.333 -94 36.333 -158.333 75 -193c43.333 -38.667 79.666 -58 108.999 -58h13c4 0 8.33301 0.333008 13 1v550c-1.33301 0 -4.33301 0.333008 -9 1
c-38 4.66699 -82.333 -18.333 -133 -69zM651.001 1082c-63.333 45.333 -127.003 67.999 -191.003 67.999v50h1200v-50c-64 0 -127.667 -22.667 -191 -68c-34.667 -24.667 -71 -58.334 -109 -101.001h510c82.667 0 153.334 -29.333 212.001 -88
c27.333 -27.333 49.333 -68.333 66 -123c14.667 -47.333 22 -93.666 22 -138.999c0 -126 -27.667 -223.333 -83 -292c-58 -72 -130.333 -108 -217 -108h-510c18.667 -28 31 -45.333 37 -52c16.667 -18.667 40.334 -39 71.001 -61c63.333 -45.333 127.333 -68 192 -68v-50
h-1200v50c64 0 128 22.667 192 68c40.667 28.667 76.667 66.334 108 113.001h-510c-86.667 0 -159 36 -217 108c-55.333 68.667 -83 166 -83 292c0 45.333 7.33301 92 22 140c16 53.333 38 94 66 122c58.667 58.667 129.334 88 212.001 88h510
c-34 40 -70.333 73.667 -109 101zM1570 580.998c0.666992 6 0.999023 10.333 0.999023 13v10c0 93.333 -23 163 -69 209c-39.333 39.333 -79.333 62.333 -120 69c-4 0.666992 -11.333 0.333984 -22 -0.999023v-550c4.66699 -0.666992 9 -1 13 -1h13
c52.667 0 97.334 30.333 134.001 91c26 43.333 42.667 96.666 50 159.999z" />
    <glyph glyph-name="Otilde" unicode="&#xd5;" horiz-adv-x="1250" 
d="M1450 1150c-129.333 0 -229.333 -64.333 -300 -193l-198 -361l148 -296c40 -80 79.333 -138.667 118 -176c51.333 -49.333 112 -74 182 -74v-50h-1550v50c129.333 0 229.333 64.333 300 193l198 361l-148 296c-40 80 -79.333 138.667 -118 176
c-51.333 49.333 -112 74 -182 74v50h1550v-50zM1050 1000c5.33301 10.667 8 21.334 8 32.001c0 32.667 -18.667 61 -56 85c-33.333 22 -67.333 33 -102 33c-36 0 -70.333 -10.333 -103 -31c-36.667 -24 -55 -53 -55 -87c0 -10.667 2.66699 -21.334 8 -32.001l150 -300z
M550 200l-150 300l-150 -300c-5.33301 -10.667 -8 -21.334 -8 -32.001c0 -32.667 18.667 -61 56 -85c33.333 -22 67.333 -33 102 -33c36 0 70.333 10.333 103 31c36.667 24 55 53 55 87c0 10.667 -2.66699 21.334 -8 32.001z" />
    <glyph glyph-name="Odieresis" unicode="&#xd6;" horiz-adv-x="2064" 
d="M-100 1200h2200v-50c-64 0 -128 -22.667 -192 -68c-72 -51.333 -108 -112 -108 -182v-550c0 -69.333 36.333 -130 109 -182c63.333 -45.333 127 -68 191 -68h38v-510h-50c-151.333 199.333 -334.666 336 -549.999 410h-1638v50c64 0 128 22.667 192 68
c72 51.333 108 112 108 182v600c0 69.333 -36.333 130 -109 182c-63.333 45.333 -127 68 -191 68v50zM799.999 900v-600c0 -58.667 21 -109.667 63 -153c30 -31.333 76 -47 138 -47c60.667 0 106 15.667 136 47c42 44 63 95 63 153v600c0 52 -21.333 100 -64 144
c-36 37.333 -81.333 66 -136 86c-54.667 -20 -100 -48.667 -136 -86c-42.667 -44 -64 -92 -64 -144z" />
    <glyph glyph-name="multiply" unicode="&#xd7;" horiz-adv-x="1830" 
d="M1930 1150c-78.667 0 -146.669 -21.668 -204.002 -65.001c-64 -47.333 -96 -109 -96 -185v-600c0 -76 32 -137.667 96 -185c57.333 -43.333 125.333 -65 204 -65v-50h-1150v50c71.333 0 130.833 23.833 178.5 71.5s71.5 107.167 71.5 178.5v200
c-20 -0.666992 -81.667 -3.66699 -185 -9c-89.333 -4.66699 -163.333 -7 -222 -7c-29.333 0 -75.666 1.66699 -138.999 5c-87.333 4.66699 -161 44.334 -221 119.001c-46.667 58 -71.667 155.667 -75 293c-0.666992 31.333 -10.667 64.833 -30 100.5
s-41.666 62.5 -66.999 80.5c-63.333 45.333 -127 68 -191 68v50h2030v-50zM778.998 842.999c0 -30 7.33301 -63.333 22 -100c15.333 -38.667 33.333 -67.334 54 -86.001c43.333 -38.667 93 -58 149 -58h13c4 0 8.33301 0.333008 13 1v298c0 66.667 -5 112.334 -15 137.001
c-12.667 31.333 -43 63 -91 95c-90.667 -45.333 -138.667 -119 -144 -221c-0.666992 -13.333 -1 -32 -1 -56v-10z" />
    <glyph glyph-name="Oslash" unicode="&#xd8;" horiz-adv-x="2960" 
d="M3060 1200v-50c-64 0 -127.667 -22.667 -191 -68c-72.667 -52 -109 -112.667 -109 -182v-600c0 -70 36 -130.667 108 -182c64 -45.333 128 -68 192 -68v-50h-3160v50c64 0 128 22.667 192 68c72 51.333 108 112 108 182v600c0 69.333 -36.333 130 -109 182
c-63.333 45.333 -127 68 -191 68v50h3160zM1780 900v-599.999c0 -58.667 21 -109.667 63 -153c30 -31.333 72.667 -47 128 -47c54 0 96 15.667 126 47c42 44 63 95 63 153v600c0 48.667 -20.333 95.667 -61 141c-36.667 41.333 -79.667 71 -129 89
c-50 -18.667 -93 -48.334 -129 -89.001c-40.667 -45.333 -61 -92.333 -61 -141zM800 900.001v-599.999c0 -58.667 21 -109.667 63 -153c30 -31.333 72.667 -47 128 -47c54 0 96 15.667 126 47c42 44 63 95 63 153v600c0 48.667 -20.333 95.667 -61 141
c-36.667 41.333 -79.667 71 -129 89c-50 -18.667 -93 -48.334 -129 -89.001c-40.667 -45.333 -61 -92.333 -61 -141z" />
    <glyph glyph-name="Ugrave" unicode="&#xd9;" horiz-adv-x="3024" 
d="M-100 50c64 0 128 22.667 192 68c72 51.333 108 112 108 182v600c0 69.333 -36.333 130 -109 182c-63.333 45.333 -127 68 -191 68v50h3160v-50c-64 0 -128 -22.667 -192 -68c-72 -51.333 -108 -112 -108 -182v-550c0 -69.333 36.333 -130 109 -182
c63.333 -45.333 127 -68 191 -68h38v-510h-50c-151.333 199.333 -334.666 336 -550 410h-2598v50zM1780 900v-599.999c0 -58.667 21 -109.667 63 -153c30 -31.333 72.667 -47 128 -47c54 0 96 15.667 126 47c42 44 63 95 63 153v600c0 48.667 -20.333 95.667 -61 141
c-36.667 41.333 -79.667 71 -129 89c-50 -18.667 -93 -48.334 -129 -89.001c-40.667 -45.333 -61 -92.333 -61 -141zM800 900.001v-599.999c0 -58.667 21 -109.667 63 -153c30 -31.333 72.667 -47 128 -47c54 0 96 15.667 126 47c42 44 63 95 63 153v600
c0 48.667 -20.333 95.667 -61 141c-36.667 41.333 -79.667 71 -129 89c-50 -18.667 -93 -48.334 -129 -89.001c-40.667 -45.333 -61 -92.333 -61 -141z" />
    <glyph glyph-name="Uacute" unicode="&#xda;" horiz-adv-x="2110" 
d="M-100 701l50 -0.000976562l510 400c13.333 0 32.333 -6.33301 57 -19c62 -48 93 -108.667 93 -182v-600c0 -76 -32 -137.667 -96 -185c-57.333 -43.333 -125.333 -65 -204 -65v-50h1450c76 0 146.667 32.667 212 98c58.667 58.667 88 129.334 88 212.001
c0 94.667 -26 173.667 -78 237c-55.333 68.667 -129.333 103 -222 103h-550v250c0 71.333 23.833 130.833 71.5 178.5s107.167 71.5 178.5 71.5v50l-1560 1v-500zM1461 337.999l-0.000976562 -11c0 -62 -22.667 -115.5 -68 -160.5s-99 -67.5 -161 -67.5
c-9.33301 0 -16.666 0.333008 -21.999 1v450c4.66699 0.666992 9 1 13 1h13c57.333 0 107.333 -19 150 -57c50 -44.667 75 -96.667 75 -156z" />
    <glyph glyph-name="Ucircumflex" unicode="&#xdb;" horiz-adv-x="2670" 
d="M1650 310c0 94.667 -26 173.666 -78 236.999c-55.333 68.667 -129.333 103 -222 103h-550v250c0 71.333 23.833 130.833 71.5 178.5s107.167 71.5 178.5 71.5v50h-1150v-50c78.667 0 146.667 -21.667 204 -65c64 -47.333 96 -109 96 -185v-600
c0 -76 -32 -137.667 -96 -185c-57.333 -43.333 -125.333 -65 -204 -65v-50h1450c76 0 146.667 32.667 212 98c58.667 58.667 88 129.334 88 212.001zM1051 337.999l-0.000976562 -11c0 -62 -22.667 -115.5 -68 -160.5s-99 -67.5 -161 -67.5
c-9.33301 0 -16.666 0.333008 -21.999 1v450c4.66699 0.666992 9 1 13 1h13c57.333 0 107.333 -19 150 -57c50 -44.667 75 -96.667 75 -156zM2770 -0.000976562h-1200v50c64 0 127.667 22.667 191 68c72.667 52 109 112.667 109 182v600c0 70 -36 130.667 -108 182
c-64 45.333 -128 68 -192 68v50h1200v-50c-64 0 -127.667 -22.667 -191 -68c-72.667 -52 -109 -112.667 -109 -182v-600c0 -70 36 -130.667 108 -182c64 -45.333 128 -68 192 -68v-50z" />
    <glyph glyph-name="Udieresis" unicode="&#xdc;" 
d="M1650 310c0 94.667 -26 173.666 -78 236.999c-55.333 68.667 -129.333 103 -222 103h-550v250c0 71.333 23.833 130.833 71.5 178.5s107.167 71.5 178.5 71.5v50h-1150v-50c78.667 0 146.667 -21.667 204 -65c64 -47.333 96 -109 96 -185v-600
c0 -76 -32 -137.667 -96 -185c-57.333 -43.333 -125.333 -65 -204 -65v-50h1450c76 0 146.667 32.667 212 98c58.667 58.667 88 129.334 88 212.001zM1051 337.999l-0.000976562 -11c0 -62 -22.667 -115.5 -68 -160.5s-99 -67.5 -161 -67.5
c-9.33301 0 -16.666 0.333008 -21.999 1v450c4.66699 0.666992 9 1 13 1h13c57.333 0 107.333 -19 150 -57c50 -44.667 75 -96.667 75 -156z" />
    <glyph glyph-name="Yacute" unicode="&#xdd;" horiz-adv-x="1450" 
d="M700 269c-43.333 -112.667 -109.999 -169.001 -199.999 -169.001c-95.333 0 -168.666 42.333 -219.999 127c-20.667 34 -40.667 88.667 -60 164l-140 -190c44 -32 103.667 -71.333 179 -118c47.333 -29.333 123.666 -56 228.999 -80c78.667 -18 182.667 -27 312 -27
c188 0 335.667 57.333 443 172c104.667 112 157 262.667 157 452c0 200 -49.333 353.667 -148 461c-102.667 112 -253.334 166.333 -452.001 163c-24 -1.33301 -71.667 -3.66602 -143 -6.99902c-234 -11.333 -419.667 -17 -557 -17v-480h100
c0 100.667 24.333 186.667 73 258c55.333 81.333 131 122 227 122c116 0 192.333 -91 229 -273c11.333 -56 18.333 -115 21 -177l-300 250v-550l300 250c0 -134 -16.667 -244.333 -50 -331z" />
    <glyph glyph-name="Thorn" unicode="&#xde;" horiz-adv-x="2390" 
d="M800 550l0.00195312 -250c0 -70 36 -130.667 108 -182c64 -45.333 128 -68 192 -68v-50h-1200v50c64 0 127.667 22.667 191 68c72.667 52 109 112.667 109 182v600c0 70 -36 130.667 -108 182c-64 45.333 -128 68 -192 68v50h1200v-50c-64 0 -127.667 -22.667 -191 -68
c-72.667 -52 -109 -112.667 -109 -182v-250h92c8.66699 118 58 222 148 312c78.667 78.667 179 139 301 181c111.333 38 227.666 57 348.999 57c211.333 0 393.333 -51 545.999 -153c169.333 -113.333 254 -262.333 254 -447c0 -126 -40.667 -236.333 -122 -331
c-72.667 -84.667 -171.667 -151.334 -297 -200.001c-118.667 -46 -245.667 -69 -381 -69c-190.667 0 -361.334 43.667 -512.001 131c-177.333 102.667 -272.666 242.334 -285.999 419.001h-92zM1840 600c0 131.333 -1.66699 218.999 -5 262.999
c-12 158 -60.333 237 -145 237c-84 0 -131.333 -72.333 -142 -217c-5.33301 -72 -8 -166.333 -8 -283c0 -131.333 1.66699 -219 5 -263c12 -158 60.333 -237 145 -237c84 0 132 79 144 237c4 52.667 6 140.334 6 263.001z" />
    <glyph glyph-name="germandbls" unicode="&#xdf;" 
d="M-85 0l450 -0.00195312c91.333 0 168.5 27.333 231.5 82s99.167 127.334 108.5 218.001l10 100c4.66699 48.667 25.667 86.334 63 113.001c34 24.667 76.333 37 127 37v-250c0 -71.333 -23.833 -130.833 -71.5 -178.5s-107.167 -71.5 -178.5 -71.5v-50h1150v50
c-78.667 0 -146.667 21.667 -204 65c-64 47.333 -96 109 -96 185v600c0 76 32 137.667 96 185c57.333 43.333 125.333 65 204 65v50h-1450c-32 0 -69.167 -10.167 -111.5 -30.5s-75.833 -42.833 -100.5 -67.5c-58.667 -58.667 -88 -129.334 -88 -212.001
c0 -85.333 30.667 -155.666 92 -210.999c59.333 -52.667 132 -79 218 -79v-50c-113.333 0 -189.333 -43 -228 -129l-32 -154c-16 -66 -36.333 -116 -61 -150c-32.667 -44.667 -75.667 -67 -129 -67v-50zM654 862.998l0.000976562 10c0 62 22.667 115.5 68 160.5
s99 67.5 161 67.5c9.33301 0 16.666 -0.333008 21.999 -1v-450c-4.66699 -0.666992 -9 -1 -13 -1h-13c-56 0 -105.667 19.333 -149 58c-50.667 45.333 -76 97.333 -76 156z" />
    <glyph glyph-name="agrave" unicode="&#xe0;" horiz-adv-x="1350" 
d="M1500 0l-1800 0.000976562v50h50c112 0 202.667 59.333 272 178c25.333 43.333 51.333 100.666 78 171.999l300 800h500l400 -900c18.667 -41.333 47 -89.333 85 -144c49.333 -70.667 87.666 -106 114.999 -106v-50zM560.001 500.001l-160 350l-136 -350h296z
M626.001 355.001c-0.666992 2 -9.33301 17 -26 45h-373c-18 -30.667 -27 -64 -27 -100c0 -58.667 22.667 -107 68 -145c42.667 -36.667 93.667 -55 153 -55c56.667 0 106.667 16.333 150 49c48 35.333 72 80.333 72 135c0 22 -5.66699 45.667 -17 71z" />
    <glyph glyph-name="aacute" unicode="&#xe1;" 
d="M1177 650c144.667 0 254.668 -21.999 330.001 -65.999c95.333 -56 143 -150.667 143 -284c0 -84.667 -28.833 -155.834 -86.5 -213.501s-128.834 -86.5 -213.501 -86.5h-1450v50c78.667 0 146.667 21.667 204 65c64 47.333 96 109 96 185v600c0 76 -32 137.667 -96 185
c-57.333 43.333 -125.333 65 -204 65v50h1550v-500h-50l-500 400h-100v-450h377zM1050 350.001c-6.66699 58 -31 106 -73 144s-92.333 57 -151 57c-11.333 0 -20 -0.333008 -26 -1v-450c4 -0.666992 8 -1 12 -1h11c62 0 115.5 22.667 160.5 68s67.5 99 67.5 161
c0 8.66699 -0.333008 16 -1 22z" />
    <glyph glyph-name="acircumflex" unicode="&#xe2;" 
d="M1650 300c0 -84.667 -28.833 -155.832 -86.5 -213.499s-128.834 -86.5 -213.501 -86.5h-1450v50c78.667 0 146.667 21.667 204 65c64 47.333 96 109 96 185v600c0 76 -32 137.667 -96 185c-57.333 43.333 -125.333 65 -204 65v50h1450
c84.667 0 155.834 -28.833 213.501 -86.5s86.5 -128.834 86.5 -213.501c0 -135.333 -47.333 -235.333 -142 -300c94.667 -64 142 -164 142 -300zM1051 863.002l-0.000976562 10c0 62 -22.667 115.5 -68 160.5s-99 67.5 -161 67.5c-9.33301 0 -16.666 -0.333008 -21.999 -1
v-450c4.66699 -0.666992 9 -1 13 -1h13c56.667 0 106.667 19.333 150 58c50 44.667 75 96.667 75 156zM1050 350.002c-6.66699 58 -31 106 -73 144s-92.333 57 -151 57c-11.333 0 -20 -0.333008 -26 -1v-450c4 -0.666992 8 -1 12 -1h11c62 0 115.5 22.667 160.5 68
s67.5 99 67.5 161c0 8.66699 -0.333008 16 -1 22z" />
    <glyph glyph-name="atilde" unicode="&#xe3;" horiz-adv-x="1550" 
d="M1450 1200h-1550v-50c64 0 127.667 -22.667 191 -68c72.667 -52 109 -112.667 109 -182v-600c0 -70 -36 -130.667 -108 -182c-64 -45.333 -128 -68 -192 -68v-50h1200v50c-64 0 -127.667 22.667 -191 68c-72.667 52 -109 112.667 -109 182v800h50l550 -450h50v550z" />
    <glyph glyph-name="adieresis" unicode="&#xe4;" horiz-adv-x="1886" 
d="M1412 0l499.999 -400.001h50v500h-100c-79.333 0 -150.666 23 -213.999 69c-70 50.667 -105 114.334 -105 191.001v540c0 69.333 36.333 130 109 182c63.333 45.333 127 68 191 68v50h-1700v-50c64 0 128 -22.667 192 -68c72 -51.333 108 -112 108 -182v-540
c0 -76.667 -36 -140.667 -108 -192c-28 -20 -80 -37 -156 -51c-61.333 -11.333 -113 -17 -155 -17h-100v-500h50l500 400h938zM605.999 1050c32.667 33.333 78.334 50 137.001 50s106.667 -18.667 144 -56s56 -85.333 56 -144v-600c-14 -133.333 -80.667 -200 -200 -200
c-60.667 0 -106.334 16 -137.001 48c-42 44 -63 94.667 -63 152v600c0 56.667 21 106.667 63 150z" />
    <glyph glyph-name="aring" unicode="&#xe5;" horiz-adv-x="1550" 
d="M1450 0h-1550v50c97.333 0 169.666 16.667 216.999 50c55.333 39.333 83 106 83 200v600c0 166.667 -100 250 -300 250v50h1550v-500h-50l-500 400h-100v-450l300 250v-550l-300 250v-500h50l550 450h50v-550z" />
    <glyph glyph-name="ae" unicode="&#xe6;" horiz-adv-x="2400" 
d="M1650 0v50c-30 0 -61.333 22.667 -94 68c-37.333 52 -56 112.667 -56 182v250c45.333 0 86 -13.333 122 -40c38.667 -29.333 58 -66 58 -110v-100c0 -90 36.667 -163.667 110 -221c68 -52.667 148 -79 240 -79h450v50c-51.333 0 -96 12 -134 36
c-44 27.333 -66 65.333 -66 114v100c0 89.333 -36.667 162.666 -110 219.999c-68 53.333 -148 80 -240 80c92 0 172 26.333 240 79c73.333 57.333 110 131 110 221v100c0 48.667 22 86.667 66 114c38 24 82.667 36 134 36v50h-450c-92 0 -172 -26.333 -240 -79
c-73.333 -57.333 -110 -131 -110 -221v-100c0 -44 -19.333 -80.667 -58 -110c-36 -26.667 -76.667 -40 -122 -40v250c0 68 19 128.667 57 182c32.667 45.333 63.667 68 93 68v50h-890v-50c44.667 0 80.667 -32.333 108 -97c21.333 -51.333 32 -102.333 32 -153v-250
c-45.333 0 -86 13.333 -122 40c-38.667 29.333 -58 66 -58 110v100c0 90 -36.667 163.667 -110 221c-68 52.667 -148 79 -240 79h-450v-50c51.333 0 96 -12 134 -36c44 -27.333 66 -65.333 66 -114v-100c0 -90 36.667 -163.667 110 -221c68 -52.667 148 -79 240 -79
c-92 0 -172 -26.667 -240 -80c-73.333 -57.333 -110 -130.666 -110 -219.999v-100c0 -48.667 -22 -86.667 -66 -114c-38 -24 -82.667 -36 -134 -36v-50h450c92 -0 172 26.333 240 79c73.333 57.333 110 131 110 221v100c0 44 19.333 80.667 58 110
c36 26.667 76.667 40 122 40v-250c0 -70 -18.667 -130.667 -56 -182c-32.667 -45.333 -64 -68 -94 -68v-50h900z" />
    <glyph glyph-name="ccedilla" unicode="&#xe7;" horiz-adv-x="1450" 
d="M721 251c-38.667 -100.667 -112.331 -151.002 -220.998 -151.002c-95.333 0 -168.666 42.333 -219.999 127c-20.667 34 -40.667 88.667 -60 164l-140 -190c44 -32 103.667 -71.333 179 -118c47.333 -29.333 123.666 -56 228.999 -80c78.667 -18 182.667 -27 312 -27
c184 0 327.667 51.333 431 154c41.333 41.333 69.333 76 84 104c18 34.667 27.333 79.334 28 134.001c0.666992 62.667 -26 117.334 -80 164.001c-43.333 37.333 -88.333 59.666 -135 66.999c46.667 12 93.334 42 140.001 90c52 53.333 78.333 108.333 79 165
c1.33301 80.667 -34.667 159.667 -108 237c-86.667 91.333 -236.334 135.666 -449.001 132.999c-15.333 -0.666992 -63 -3 -143 -7c-229.333 -11.333 -408.333 -17 -537 -17v-415h100c3.33301 44 10.666 79.333 21.999 106c9.33301 22.667 27.666 53.334 54.999 92.001
c54.667 78 125.667 117 213 117c58.667 0 109.334 -27 152.001 -81l44 -56c12.667 -20.667 20.667 -49 24 -85c4 -41.333 -8 -85.333 -36 -132c-16 -26.667 -38 -49 -66 -67c-30 -19.333 -59.667 -28.666 -89 -27.999v-100c37.333 -5.33301 75.666 -19.333 114.999 -42
c62.667 -36.667 94 -94.334 94 -173.001c0 -27.333 -5.66699 -55.666 -17 -84.999z" />
    <glyph glyph-name="egrave" unicode="&#xe8;" horiz-adv-x="2000" 
d="M1800 900c0 69.333 36.333 130 109 182c63.333 45.333 127 68 191 68v50h-2200v-50c64 0 128 -22.667 192 -68c72 -51.333 108 -112 108 -182v-600c0 -69.333 -36.333 -130 -109 -182c-63.333 -45.333 -127 -68 -191 -68v-50h2200v50c-64 0 -128 22.667 -192 68
c-72 51.333 -108 112 -108 182v600zM1000 70c-54.667 20 -100 48.668 -136 86.001c-42.667 44 -64 92 -64 144v32l400 404v-436c0 -52.667 -21 -100.667 -63 -144c-36 -36.667 -81.667 -65.334 -137 -86.001zM800 900.001c0 52 21.333 100 64 144
c36 37.333 81.333 66 136 86c54.667 -20 100 -48.667 136 -86c42.667 -44 64 -92 64 -144v-26l-400 -400v426z" />
    <glyph glyph-name="eacute" unicode="&#xe9;" horiz-adv-x="2000" 
d="M2100 0l0.000976562 50c-64 0 -128 22.667 -192 68c-72 51.333 -108 112 -108 182v600c0 69.333 36.333 130 109 182c63.333 45.333 127 68 191 68v50h-786c24.667 2 45 12.5 61 31.5s24 41.167 24 66.5c0 66.667 -40 100 -120 100c-87.333 0 -131 -33.333 -131 -100
c0 -8.66699 -21 -16 -63 -22c-28.667 -4 -54.334 -6 -77.001 -6c-25.333 0 -55 2.33301 -89 7c-46 6 -69 13 -69 21c0 66.667 -43.667 100 -131 100c-80 0 -120 -33.333 -120 -100c0 -26 8.66699 -48.833 26 -68.5s39 -29.5 65 -29.5h-790v-50c64 0 128 -22.667 192 -68
c72 -51.333 108 -112 108 -182v-600c0 -69.333 -36.333 -130 -109 -182c-63.333 -45.333 -127 -68 -191 -68v-50h2200zM800.001 300v32l400 404v-436c0 -52.667 -21.333 -100.667 -64 -144c-36 -37.333 -81.333 -66 -136 -86c-54.667 20 -100 48.667 -136 86
c-42.667 44 -64 92 -64 144zM800.001 900c0 52 21.333 100 64 144c36 37.333 81.333 66 136 86c54.667 -20 100 -48.667 136 -86c42.667 -44 64 -92 64 -144v-26l-400 -400v426z" />
    <glyph glyph-name="ecircumflex" unicode="&#xea;" 
d="M1800 0l-450 -0.000976562c-92 0 -172 26.333 -240 79c-73.333 57.333 -110 131 -110 221v100c0 48.667 -22 86.667 -66 114c-38 24 -82.667 36 -134 36v-250c0 -69.333 18.667 -130 56 -182c32.667 -45.333 64 -68 94 -68v-50h-1050v50c64 0 127.667 22.667 191 68
c72.667 52 109 112.667 109 182v600c0 70 -36 130.667 -108 182c-64 45.333 -128 68 -192 68v50h1050v-50c-29.333 0 -60.333 -22.667 -93 -68c-38 -53.333 -57 -114 -57 -182v-250c51.333 0 96 12 134 36c44 27.333 66 65.333 66 114v100c0 90 36.667 163.667 110 221
c68 52.667 148 79 240 79h450v-50c-51.333 0 -96 -12 -134 -36c-44 -27.333 -66 -65.333 -66 -114v-100c0 -90 -36.667 -163.667 -110 -221c-68 -52.667 -148 -79 -240 -79c92 0 172 -26.667 240 -80c73.333 -57.333 110 -130.666 110 -219.999v-100
c0 -48.667 22 -86.667 66 -114c38 -24 82.667 -36 134 -36v-50z" />
    <glyph glyph-name="edieresis" unicode="&#xeb;" horiz-adv-x="1721" 
d="M521 300v599.999c0 36 8.83301 71 26.5 105s41.5 59.333 71.5 76c22 12.667 56 19 102 19c61.333 0.666992 107 -14.666 137 -45.999c42 -44 63 -95.333 63 -154v-600c0 -70 -36 -130.667 -108 -182c-64 -45.333 -128 -68 -192 -68v-50h1200v50
c-64 0 -128 22.667 -192 68c-72 51.333 -108 112 -108 182v600c0 69.333 36.333 130 109 182c63.333 45.333 127 68 191 68v50h-1700v-50c64 0 128 -22.667 192 -68c72 -51.333 108 -112 108 -182v-600c0 -69.333 -36.333 -130 -109 -182c-22 -16 -44 -24 -66 -24
c-4.66699 0 -12 1 -22 3s-17.333 3 -22 3c-87.333 12.667 -155 123.667 -203 333l-99 -233c44 -66.667 82.333 -113.667 115 -141c47.333 -39.333 103 -59 167 -59h101c39.333 0 84.333 22 135 66c68.667 59.333 103 137.333 103 234z" />
    <glyph glyph-name="igrave" unicode="&#xec;" horiz-adv-x="1950" 
d="M2050 0h-1100v50c70.667 0 130 24 178 72s72 107.333 72 178v600l-350 -900h-150l-350 800v-500c0 -71.333 23.833 -130.833 71.5 -178.5s107.167 -71.5 178.5 -71.5v-50h-650v50c78.667 0 146.667 21.667 204 65c64 47.333 96 109 96 185v600c0 76 -32 137.667 -96 185
c-57.333 43.333 -125.333 65 -204 65v50h800l250 -500l200 500h850v-50c-78.667 0 -146.667 -21.667 -204 -65c-64 -47.333 -96 -109 -96 -185v-600c0 -76 32 -137.667 96 -185c57.333 -43.333 125.333 -65 204 -65v-50z" />
    <glyph glyph-name="iacute" unicode="&#xed;" horiz-adv-x="2000" 
d="M2100 0h-2200v50c64 0 127.667 22.667 191 68c72.667 52 109 112.667 109 182v600c0 70 -36 130.667 -108 182c-64 45.333 -128 68 -192 68v50h2200v-50c-64 0 -127.667 -22.667 -191 -68c-72.667 -52 -109 -112.667 -109 -182v-600c0 -70 36 -130.667 108 -182
c64 -45.333 128 -68 192 -68v-50zM1200 650v250c0 52 -21.333 100 -64 144c-36 37.333 -81.333 66 -136 86c-54.667 -20 -100 -48.667 -136 -86c-42.667 -44 -64 -92 -64 -144v-250h400zM1200 300v250h-400v-250c0 -52 21.333 -100 64 -144c36 -37.333 81.333 -66 136 -86
c54.667 20 100 48.667 136 86c42.667 44 64 92 64 144z" />
    <glyph glyph-name="icircumflex" unicode="&#xee;" horiz-adv-x="1500" 
d="M1600 600c0 -126 -40.667 -236.333 -122 -331c-72.667 -84.667 -171.667 -151.334 -297 -200.001c-118.667 -46 -245.667 -69 -381 -69c-211.333 0 -393.333 51 -546 153c-169.333 113.333 -254 262.333 -254 447c0 126 40.667 236.333 122 331
c72.667 84.667 171.667 151.334 297 200.001c118.667 46 245.667 69 381 69c211.333 0 393.333 -51 546 -153c169.333 -113.333 254 -262.333 254 -447zM950 600c0 131.333 -1.66699 218.999 -5 262.999c-12 158 -60.333 237 -145 237c-84 0 -131.333 -72.333 -142 -217
c-5.33301 -72 -8 -166.333 -8 -283c0 -131.333 1.66699 -219 5 -263c12 -158 60.333 -237 145 -237c84 0 132 79 144 237c4 52.667 6 140.334 6 263.001z" />
    <glyph glyph-name="idieresis" unicode="&#xef;" horiz-adv-x="2000" 
d="M2100 0h-2200v50c64 0 127.667 22.667 191 68c72.667 52 109 112.667 109 182v600c0 70 -36 130.667 -108 182c-64 45.333 -128 68 -192 68v50h2200v-50c-64 0 -127.667 -22.667 -191 -68c-72.667 -52 -109 -112.667 -109 -182v-600c0 -70 36 -130.667 108 -182
c64 -45.333 128 -68 192 -68v-50zM1137 1053c-30 31.333 -75.333 47 -136 47c-62 0 -108 -15.667 -138 -47c-42 -43.333 -63 -94.333 -63 -153v-600c0 -52 21.333 -100 64 -144c36 -37.333 81.333 -66 136 -86c54.667 20 100 48.667 136 86c42.667 44 64 92 64 144v600
c0 58 -21 109 -63 153z" />
    <glyph glyph-name="eth" unicode="&#xf0;" 
d="M1650 900c0 -92 -26.334 -171.999 -79.001 -239.999c-57.333 -73.333 -131 -110 -221 -110h-550v-250c0 -71.333 23.833 -130.833 71.5 -178.5s107.167 -71.5 178.5 -71.5v-50h-1150v50c78.667 0 146.667 21.667 204 65c64 47.333 96 109 96 185v600
c0 76 -32 137.667 -96 185c-57.333 43.333 -125.333 65 -204 65v50h1450c84.667 0 155.834 -28.833 213.501 -86.5s86.5 -128.834 86.5 -213.501zM1051 863.001l-0.000976562 10c0 62 -22.667 115.5 -68 160.5s-99 67.5 -161 67.5c-9.33301 0 -16.666 -0.333008 -21.999 -1
v-450c4.66699 -0.666992 9 -1 13 -1h13c56.667 0 106.667 19.333 150 58c50 44.667 75 96.667 75 156z" />
    <glyph glyph-name="ntilde" unicode="&#xf1;" horiz-adv-x="1450" 
d="M1400 400c-103.333 -220.667 -249.333 -353.001 -438 -397.001c-76.667 -18 -180.667 -27 -312 -27c-188 0 -335.667 57.333 -443 172c-104.667 112 -157 262.667 -157 452c0 199.333 49.667 353 149 461c102.667 112 253 166.333 451 163
c24 -1.33301 71.667 -3.66602 143 -6.99902c234 -11.333 419.667 -17 557 -17v-500h-100c0 107.333 -22.667 197.333 -68 270c-54 86.667 -131.333 130 -232 130c-116 0 -192.333 -91 -229 -273c-14 -69.333 -21 -145 -21 -227c0 -134 16.667 -244.333 50 -331
c43.333 -112.667 110 -169 200 -169c102.667 0 181 56 235 168c43.333 90 65 200.667 65 332z" />
    <glyph glyph-name="ograve" unicode="&#xf2;" horiz-adv-x="1500" 
d="M1500 550l-50.001 0.000976562c0 52 -98.667 195 -296 429c-65.333 77.333 -100 117.666 -104 120.999v-700c0 -99.333 33.5 -182.5 100.5 -249.5s150.167 -100.5 249.5 -100.5v-50h-1300v50c99.333 0 182.5 33.5 249.5 100.5s100.5 150.167 100.5 249.5v700
c-9.33301 -10 -43.666 -50 -102.999 -120c-198 -234 -297 -377.333 -297 -430h-50v650h1500v-650z" />
    <glyph glyph-name="oacute" unicode="&#xf3;" horiz-adv-x="1250" 
d="M640 240l-440 660c-12.667 22 -38.334 63 -77.001 123c-57.333 84.667 -131.666 127 -222.999 127v50h1600v-50c-140 0 -240 -64.333 -300 -193l-360 -774c-16.667 -36.667 -36.667 -67 -60 -91c-58.667 -61.333 -129 -92 -211 -92h-29c-96 0 -178.667 16 -248 48
c-62.667 29.333 -130 80 -202 152l137 233c26 -72.667 66 -145 120 -217c22 -29.333 50.333 -54 85 -74c38 -22 74 -32.667 108 -32c38.667 0.666992 65 3 79 7c26 7.33301 47.667 23.333 65 48zM1100 1000c5.33301 11.333 8 22.001 8 32.001c0 32.667 -18.667 61 -56 85
c-33.333 22 -67.333 33 -102 33c-36 0 -70.333 -10.333 -103 -31c-36.667 -24 -55 -53 -55 -87c0 -12.667 2.66699 -23.334 8 -32.001l170 -280z" />
    <glyph glyph-name="ocircumflex" unicode="&#xf4;" horiz-adv-x="2120" 
d="M618 813c-46 -46 -68.999 -115.668 -68.999 -209.001v-10c0 -3.33301 0.333008 -7.66602 1 -12.999c11.333 -94 36.333 -158.333 75 -193c43.333 -38.667 79.666 -58 108.999 -58h13c4 0 8.33301 0.333008 13 1v550c-1.33301 0 -4.33301 0.333008 -9 1
c-38 4.66699 -82.333 -18.333 -133 -69zM651.001 1082c-63.333 45.333 -127.003 67.999 -191.003 67.999v50h1200v-50c-64 0 -127.667 -22.667 -191 -68c-34.667 -24.667 -71 -58.334 -109 -101.001h510c82.667 0 153.334 -29.333 212.001 -88
c27.333 -27.333 49.333 -68.333 66 -123c14.667 -47.333 22 -93.666 22 -138.999c0 -126 -27.667 -223.333 -83 -292c-58 -72 -130.333 -108 -217 -108h-510c18.667 -28 31 -45.333 37 -52c16.667 -18.667 40.334 -39 71.001 -61c63.333 -45.333 127.333 -68 192 -68v-50
h-1200v50c64 0 128 22.667 192 68c40.667 28.667 76.667 66.334 108 113.001h-510c-86.667 0 -159 36 -217 108c-55.333 68.667 -83 166 -83 292c0 45.333 7.33301 92 22 140c16 53.333 38 94 66 122c58.667 58.667 129.334 88 212.001 88h510
c-34 40 -70.333 73.667 -109 101zM1570 580.998c0.666992 6 0.999023 10.333 0.999023 13v10c0 93.333 -23 163 -69 209c-39.333 39.333 -79.333 62.333 -120 69c-4 0.666992 -11.333 0.333984 -22 -0.999023v-550c4.66699 -0.666992 9 -1 13 -1h13
c52.667 0 97.334 30.333 134.001 91c26 43.333 42.667 96.666 50 159.999z" />
    <glyph glyph-name="otilde" unicode="&#xf5;" horiz-adv-x="1250" 
d="M1450 1150c-129.333 0 -229.333 -64.333 -300 -193l-198 -361l148 -296c40 -80 79.333 -138.667 118 -176c51.333 -49.333 112 -74 182 -74v-50h-1550v50c129.333 0 229.333 64.333 300 193l198 361l-148 296c-40 80 -79.333 138.667 -118 176
c-51.333 49.333 -112 74 -182 74v50h1550v-50zM1050 1000c5.33301 10.667 8 21.334 8 32.001c0 32.667 -18.667 61 -56 85c-33.333 22 -67.333 33 -102 33c-36 0 -70.333 -10.333 -103 -31c-36.667 -24 -55 -53 -55 -87c0 -10.667 2.66699 -21.334 8 -32.001l150 -300z
M550 200l-150 300l-150 -300c-5.33301 -10.667 -8 -21.334 -8 -32.001c0 -32.667 18.667 -61 56 -85c33.333 -22 67.333 -33 102 -33c36 0 70.333 10.333 103 31c36.667 24 55 53 55 87c0 10.667 -2.66699 21.334 -8 32.001z" />
    <glyph glyph-name="odieresis" unicode="&#xf6;" horiz-adv-x="2064" 
d="M-100 1200h2200v-50c-64 0 -128 -22.667 -192 -68c-72 -51.333 -108 -112 -108 -182v-550c0 -69.333 36.333 -130 109 -182c63.333 -45.333 127 -68 191 -68h38v-510h-50c-151.333 199.333 -334.666 336 -549.999 410h-1638v50c64 0 128 22.667 192 68
c72 51.333 108 112 108 182v600c0 69.333 -36.333 130 -109 182c-63.333 45.333 -127 68 -191 68v50zM799.999 900v-600c0 -58.667 21 -109.667 63 -153c30 -31.333 76 -47 138 -47c60.667 0 106 15.667 136 47c42 44 63 95 63 153v600c0 52 -21.333 100 -64 144
c-36 37.333 -81.333 66 -136 86c-54.667 -20 -100 -48.667 -136 -86c-42.667 -44 -64 -92 -64 -144z" />
    <glyph glyph-name="divide" unicode="&#xf7;" horiz-adv-x="1830" 
d="M1930 1150c-78.667 0 -146.669 -21.668 -204.002 -65.001c-64 -47.333 -96 -109 -96 -185v-600c0 -76 32 -137.667 96 -185c57.333 -43.333 125.333 -65 204 -65v-50h-1150v50c71.333 0 130.833 23.833 178.5 71.5s71.5 107.167 71.5 178.5v200
c-20 -0.666992 -81.667 -3.66699 -185 -9c-89.333 -4.66699 -163.333 -7 -222 -7c-29.333 0 -75.666 1.66699 -138.999 5c-87.333 4.66699 -161 44.334 -221 119.001c-46.667 58 -71.667 155.667 -75 293c-0.666992 31.333 -10.667 64.833 -30 100.5
s-41.666 62.5 -66.999 80.5c-63.333 45.333 -127 68 -191 68v50h2030v-50zM778.998 842.999c0 -30 7.33301 -63.333 22 -100c15.333 -38.667 33.333 -67.334 54 -86.001c43.333 -38.667 93 -58 149 -58h13c4 0 8.33301 0.333008 13 1v298c0 66.667 -5 112.334 -15 137.001
c-12.667 31.333 -43 63 -91 95c-90.667 -45.333 -138.667 -119 -144 -221c-0.666992 -13.333 -1 -32 -1 -56v-10z" />
    <glyph glyph-name="oslash" unicode="&#xf8;" horiz-adv-x="2960" 
d="M3060 1200v-50c-64 0 -127.667 -22.667 -191 -68c-72.667 -52 -109 -112.667 -109 -182v-600c0 -70 36 -130.667 108 -182c64 -45.333 128 -68 192 -68v-50h-3160v50c64 0 128 22.667 192 68c72 51.333 108 112 108 182v600c0 69.333 -36.333 130 -109 182
c-63.333 45.333 -127 68 -191 68v50h3160zM1780 900v-599.999c0 -58.667 21 -109.667 63 -153c30 -31.333 72.667 -47 128 -47c54 0 96 15.667 126 47c42 44 63 95 63 153v600c0 48.667 -20.333 95.667 -61 141c-36.667 41.333 -79.667 71 -129 89
c-50 -18.667 -93 -48.334 -129 -89.001c-40.667 -45.333 -61 -92.333 -61 -141zM800 900.001v-599.999c0 -58.667 21 -109.667 63 -153c30 -31.333 72.667 -47 128 -47c54 0 96 15.667 126 47c42 44 63 95 63 153v600c0 48.667 -20.333 95.667 -61 141
c-36.667 41.333 -79.667 71 -129 89c-50 -18.667 -93 -48.334 -129 -89.001c-40.667 -45.333 -61 -92.333 -61 -141z" />
    <glyph glyph-name="ugrave" unicode="&#xf9;" horiz-adv-x="3024" 
d="M-100 50c64 0 128 22.667 192 68c72 51.333 108 112 108 182v600c0 69.333 -36.333 130 -109 182c-63.333 45.333 -127 68 -191 68v50h3160v-50c-64 0 -128 -22.667 -192 -68c-72 -51.333 -108 -112 -108 -182v-550c0 -69.333 36.333 -130 109 -182
c63.333 -45.333 127 -68 191 -68h38v-510h-50c-151.333 199.333 -334.666 336 -550 410h-2598v50zM1780 900v-599.999c0 -58.667 21 -109.667 63 -153c30 -31.333 72.667 -47 128 -47c54 0 96 15.667 126 47c42 44 63 95 63 153v600c0 48.667 -20.333 95.667 -61 141
c-36.667 41.333 -79.667 71 -129 89c-50 -18.667 -93 -48.334 -129 -89.001c-40.667 -45.333 -61 -92.333 -61 -141zM800 900.001v-599.999c0 -58.667 21 -109.667 63 -153c30 -31.333 72.667 -47 128 -47c54 0 96 15.667 126 47c42 44 63 95 63 153v600
c0 48.667 -20.333 95.667 -61 141c-36.667 41.333 -79.667 71 -129 89c-50 -18.667 -93 -48.334 -129 -89.001c-40.667 -45.333 -61 -92.333 -61 -141z" />
    <glyph glyph-name="uacute" unicode="&#xfa;" horiz-adv-x="2110" 
d="M-100 701l50 -0.000976562l510 400c13.333 0 32.333 -6.33301 57 -19c62 -48 93 -108.667 93 -182v-600c0 -76 -32 -137.667 -96 -185c-57.333 -43.333 -125.333 -65 -204 -65v-50h1450c76 0 146.667 32.667 212 98c58.667 58.667 88 129.334 88 212.001
c0 94.667 -26 173.667 -78 237c-55.333 68.667 -129.333 103 -222 103h-550v250c0 71.333 23.833 130.833 71.5 178.5s107.167 71.5 178.5 71.5v50l-1560 1v-500zM1461 337.999l-0.000976562 -11c0 -62 -22.667 -115.5 -68 -160.5s-99 -67.5 -161 -67.5
c-9.33301 0 -16.666 0.333008 -21.999 1v450c4.66699 0.666992 9 1 13 1h13c57.333 0 107.333 -19 150 -57c50 -44.667 75 -96.667 75 -156z" />
    <glyph glyph-name="ucircumflex" unicode="&#xfb;" horiz-adv-x="2670" 
d="M1650 310c0 94.667 -26 173.666 -78 236.999c-55.333 68.667 -129.333 103 -222 103h-550v250c0 71.333 23.833 130.833 71.5 178.5s107.167 71.5 178.5 71.5v50h-1150v-50c78.667 0 146.667 -21.667 204 -65c64 -47.333 96 -109 96 -185v-600
c0 -76 -32 -137.667 -96 -185c-57.333 -43.333 -125.333 -65 -204 -65v-50h1450c76 0 146.667 32.667 212 98c58.667 58.667 88 129.334 88 212.001zM1051 337.999l-0.000976562 -11c0 -62 -22.667 -115.5 -68 -160.5s-99 -67.5 -161 -67.5
c-9.33301 0 -16.666 0.333008 -21.999 1v450c4.66699 0.666992 9 1 13 1h13c57.333 0 107.333 -19 150 -57c50 -44.667 75 -96.667 75 -156zM2770 -0.000976562h-1200v50c64 0 127.667 22.667 191 68c72.667 52 109 112.667 109 182v600c0 70 -36 130.667 -108 182
c-64 45.333 -128 68 -192 68v50h1200v-50c-64 0 -127.667 -22.667 -191 -68c-72.667 -52 -109 -112.667 -109 -182v-600c0 -70 36 -130.667 108 -182c64 -45.333 128 -68 192 -68v-50z" />
    <glyph glyph-name="udieresis" unicode="&#xfc;" 
d="M1650 310c0 94.667 -26 173.666 -78 236.999c-55.333 68.667 -129.333 103 -222 103h-550v250c0 71.333 23.833 130.833 71.5 178.5s107.167 71.5 178.5 71.5v50h-1150v-50c78.667 0 146.667 -21.667 204 -65c64 -47.333 96 -109 96 -185v-600
c0 -76 -32 -137.667 -96 -185c-57.333 -43.333 -125.333 -65 -204 -65v-50h1450c76 0 146.667 32.667 212 98c58.667 58.667 88 129.334 88 212.001zM1051 337.999l-0.000976562 -11c0 -62 -22.667 -115.5 -68 -160.5s-99 -67.5 -161 -67.5
c-9.33301 0 -16.666 0.333008 -21.999 1v450c4.66699 0.666992 9 1 13 1h13c57.333 0 107.333 -19 150 -57c50 -44.667 75 -96.667 75 -156z" />
    <glyph glyph-name="yacute" unicode="&#xfd;" horiz-adv-x="1450" 
d="M700 269c-43.333 -112.667 -109.999 -169.001 -199.999 -169.001c-95.333 0 -168.666 42.333 -219.999 127c-20.667 34 -40.667 88.667 -60 164l-140 -190c44 -32 103.667 -71.333 179 -118c47.333 -29.333 123.666 -56 228.999 -80c78.667 -18 182.667 -27 312 -27
c188 0 335.667 57.333 443 172c104.667 112 157 262.667 157 452c0 200 -49.333 353.667 -148 461c-102.667 112 -253.334 166.333 -452.001 163c-24 -1.33301 -71.667 -3.66602 -143 -6.99902c-234 -11.333 -419.667 -17 -557 -17v-480h100
c0 100.667 24.333 186.667 73 258c55.333 81.333 131 122 227 122c116 0 192.333 -91 229 -273c11.333 -56 18.333 -115 21 -177l-300 250v-550l300 250c0 -134 -16.667 -244.333 -50 -331z" />
    <glyph glyph-name="thorn" unicode="&#xfe;" horiz-adv-x="2390" 
d="M800 550l0.00195312 -250c0 -70 36 -130.667 108 -182c64 -45.333 128 -68 192 -68v-50h-1200v50c64 0 127.667 22.667 191 68c72.667 52 109 112.667 109 182v600c0 70 -36 130.667 -108 182c-64 45.333 -128 68 -192 68v50h1200v-50c-64 0 -127.667 -22.667 -191 -68
c-72.667 -52 -109 -112.667 -109 -182v-250h92c8.66699 118 58 222 148 312c78.667 78.667 179 139 301 181c111.333 38 227.666 57 348.999 57c211.333 0 393.333 -51 545.999 -153c169.333 -113.333 254 -262.333 254 -447c0 -126 -40.667 -236.333 -122 -331
c-72.667 -84.667 -171.667 -151.334 -297 -200.001c-118.667 -46 -245.667 -69 -381 -69c-190.667 0 -361.334 43.667 -512.001 131c-177.333 102.667 -272.666 242.334 -285.999 419.001h-92zM1840 600c0 131.333 -1.66699 218.999 -5 262.999
c-12 158 -60.333 237 -145 237c-84 0 -131.333 -72.333 -142 -217c-5.33301 -72 -8 -166.333 -8 -283c0 -131.333 1.66699 -219 5 -263c12 -158 60.333 -237 145 -237c84 0 132 79 144 237c4 52.667 6 140.334 6 263.001z" />
    <glyph glyph-name="ydieresis" unicode="&#xff;" 
d="M-85 0l450 -0.00195312c91.333 0 168.5 27.333 231.5 82s99.167 127.334 108.5 218.001l10 100c4.66699 48.667 25.667 86.334 63 113.001c34 24.667 76.333 37 127 37v-250c0 -71.333 -23.833 -130.833 -71.5 -178.5s-107.167 -71.5 -178.5 -71.5v-50h1150v50
c-78.667 0 -146.667 21.667 -204 65c-64 47.333 -96 109 -96 185v600c0 76 32 137.667 96 185c57.333 43.333 125.333 65 204 65v50h-1450c-32 0 -69.167 -10.167 -111.5 -30.5s-75.833 -42.833 -100.5 -67.5c-58.667 -58.667 -88 -129.334 -88 -212.001
c0 -85.333 30.667 -155.666 92 -210.999c59.333 -52.667 132 -79 218 -79v-50c-113.333 0 -189.333 -43 -228 -129l-32 -154c-16 -66 -36.333 -116 -61 -150c-32.667 -44.667 -75.667 -67 -129 -67v-50zM654 862.998l0.000976562 10c0 62 22.667 115.5 68 160.5
s99 67.5 161 67.5c9.33301 0 16.666 -0.333008 21.999 -1v-450c-4.66699 -0.666992 -9 -1 -13 -1h-13c-56 0 -105.667 19.333 -149 58c-50.667 45.333 -76 97.333 -76 156z" />
    <glyph glyph-name="afii10023" unicode="&#x401;" horiz-adv-x="1550" 
d="M1450 0h-1550v50c97.333 0 169.666 16.667 216.999 50c55.333 39.333 83 106 83 200v600c0 166.667 -100 250 -300 250v50h1550v-500h-50l-500 400h-100v-450l300 250v-550l-300 250v-500h50l550 450h50v-550zM1025 1200c-80 0 -120 33.333 -120 100s40 100 120 100
s120 -33.333 120 -100s-40 -100 -120 -100zM525.001 1200c-80 0 -120 33.333 -120 100s40 100 120 100s120 -33.333 120 -100s-40 -100 -120 -100z" />
    <glyph glyph-name="afii10017" unicode="&#x410;" horiz-adv-x="1350" 
d="M1500 0l-1800 0.000976562v50h50c112 0 202.667 59.333 272 178c25.333 43.333 51.333 100.666 78 171.999l300 800h500l400 -900c18.667 -41.333 47 -89.333 85 -144c49.333 -70.667 87.666 -106 114.999 -106v-50zM560.001 500.001l-160 350l-136 -350h296z
M626.001 355.001c-0.666992 2 -9.33301 17 -26 45h-373c-18 -30.667 -27 -64 -27 -100c0 -58.667 22.667 -107 68 -145c42.667 -36.667 93.667 -55 153 -55c56.667 0 106.667 16.333 150 49c48 35.333 72 80.333 72 135c0 22 -5.66699 45.667 -17 71z" />
    <glyph glyph-name="afii10018" unicode="&#x411;" 
d="M1177 650c144.667 0 254.668 -21.999 330.001 -65.999c95.333 -56 143 -150.667 143 -284c0 -84.667 -28.833 -155.834 -86.5 -213.501s-128.834 -86.5 -213.501 -86.5h-1450v50c78.667 0 146.667 21.667 204 65c64 47.333 96 109 96 185v600c0 76 -32 137.667 -96 185
c-57.333 43.333 -125.333 65 -204 65v50h1550v-500h-50l-500 400h-100v-450h377zM1050 350.001c-6.66699 58 -31 106 -73 144s-92.333 57 -151 57c-11.333 0 -20 -0.333008 -26 -1v-450c4 -0.666992 8 -1 12 -1h11c62 0 115.5 22.667 160.5 68s67.5 99 67.5 161
c0 8.66699 -0.333008 16 -1 22z" />
    <glyph glyph-name="afii10019" unicode="&#x412;" 
d="M1650 300c0 -84.667 -28.833 -155.832 -86.5 -213.499s-128.834 -86.5 -213.501 -86.5h-1450v50c78.667 0 146.667 21.667 204 65c64 47.333 96 109 96 185v600c0 76 -32 137.667 -96 185c-57.333 43.333 -125.333 65 -204 65v50h1450
c84.667 0 155.834 -28.833 213.501 -86.5s86.5 -128.834 86.5 -213.501c0 -135.333 -47.333 -235.333 -142 -300c94.667 -64 142 -164 142 -300zM1051 863.002l-0.000976562 10c0 62 -22.667 115.5 -68 160.5s-99 67.5 -161 67.5c-9.33301 0 -16.666 -0.333008 -21.999 -1
v-450c4.66699 -0.666992 9 -1 13 -1h13c56.667 0 106.667 19.333 150 58c50 44.667 75 96.667 75 156zM1050 350.002c-6.66699 58 -31 106 -73 144s-92.333 57 -151 57c-11.333 0 -20 -0.333008 -26 -1v-450c4 -0.666992 8 -1 12 -1h11c62 0 115.5 22.667 160.5 68
s67.5 99 67.5 161c0 8.66699 -0.333008 16 -1 22z" />
    <glyph glyph-name="afii10020" unicode="&#x413;" horiz-adv-x="1550" 
d="M1450 1200h-1550v-50c64 0 127.667 -22.667 191 -68c72.667 -52 109 -112.667 109 -182v-600c0 -70 -36 -130.667 -108 -182c-64 -45.333 -128 -68 -192 -68v-50h1200v50c-64 0 -127.667 22.667 -191 68c-72.667 52 -109 112.667 -109 182v800h50l550 -450h50v550z" />
    <glyph glyph-name="afii10021" unicode="&#x414;" horiz-adv-x="1886" 
d="M1412 0l499.999 -400.001h50v500h-100c-79.333 0 -150.666 23 -213.999 69c-70 50.667 -105 114.334 -105 191.001v540c0 69.333 36.333 130 109 182c63.333 45.333 127 68 191 68v50h-1700v-50c64 0 128 -22.667 192 -68c72 -51.333 108 -112 108 -182v-540
c0 -76.667 -36 -140.667 -108 -192c-28 -20 -80 -37 -156 -51c-61.333 -11.333 -113 -17 -155 -17h-100v-500h50l500 400h938zM605.999 1050c32.667 33.333 78.334 50 137.001 50s106.667 -18.667 144 -56s56 -85.333 56 -144v-600c-14 -133.333 -80.667 -200 -200 -200
c-60.667 0 -106.334 16 -137.001 48c-42 44 -63 94.667 -63 152v600c0 56.667 21 106.667 63 150z" />
    <glyph glyph-name="afii10022" unicode="&#x415;" horiz-adv-x="1550" 
d="M1450 0h-1550v50c97.333 0 169.666 16.667 216.999 50c55.333 39.333 83 106 83 200v600c0 166.667 -100 250 -300 250v50h1550v-500h-50l-500 400h-100v-450l300 250v-550l-300 250v-500h50l550 450h50v-550z" />
    <glyph glyph-name="afii10024" unicode="&#x416;" horiz-adv-x="2400" 
d="M1650 0v50c-30 0 -61.333 22.667 -94 68c-37.333 52 -56 112.667 -56 182v250c45.333 0 86 -13.333 122 -40c38.667 -29.333 58 -66 58 -110v-100c0 -90 36.667 -163.667 110 -221c68 -52.667 148 -79 240 -79h450v50c-51.333 0 -96 12 -134 36
c-44 27.333 -66 65.333 -66 114v100c0 89.333 -36.667 162.666 -110 219.999c-68 53.333 -148 80 -240 80c92 0 172 26.333 240 79c73.333 57.333 110 131 110 221v100c0 48.667 22 86.667 66 114c38 24 82.667 36 134 36v50h-450c-92 0 -172 -26.333 -240 -79
c-73.333 -57.333 -110 -131 -110 -221v-100c0 -44 -19.333 -80.667 -58 -110c-36 -26.667 -76.667 -40 -122 -40v250c0 68 19 128.667 57 182c32.667 45.333 63.667 68 93 68v50h-890v-50c44.667 0 80.667 -32.333 108 -97c21.333 -51.333 32 -102.333 32 -153v-250
c-45.333 0 -86 13.333 -122 40c-38.667 29.333 -58 66 -58 110v100c0 90 -36.667 163.667 -110 221c-68 52.667 -148 79 -240 79h-450v-50c51.333 0 96 -12 134 -36c44 -27.333 66 -65.333 66 -114v-100c0 -90 36.667 -163.667 110 -221c68 -52.667 148 -79 240 -79
c-92 0 -172 -26.667 -240 -80c-73.333 -57.333 -110 -130.666 -110 -219.999v-100c0 -48.667 -22 -86.667 -66 -114c-38 -24 -82.667 -36 -134 -36v-50h450c92 -0 172 26.333 240 79c73.333 57.333 110 131 110 221v100c0 44 19.333 80.667 58 110
c36 26.667 76.667 40 122 40v-250c0 -70 -18.667 -130.667 -56 -182c-32.667 -45.333 -64 -68 -94 -68v-50h900z" />
    <glyph glyph-name="afii10025" unicode="&#x417;" horiz-adv-x="1450" 
d="M721 251c-38.667 -100.667 -112.331 -151.002 -220.998 -151.002c-95.333 0 -168.666 42.333 -219.999 127c-20.667 34 -40.667 88.667 -60 164l-140 -190c44 -32 103.667 -71.333 179 -118c47.333 -29.333 123.666 -56 228.999 -80c78.667 -18 182.667 -27 312 -27
c184 0 327.667 51.333 431 154c41.333 41.333 69.333 76 84 104c18 34.667 27.333 79.334 28 134.001c0.666992 62.667 -26 117.334 -80 164.001c-43.333 37.333 -88.333 59.666 -135 66.999c46.667 12 93.334 42 140.001 90c52 53.333 78.333 108.333 79 165
c1.33301 80.667 -34.667 159.667 -108 237c-86.667 91.333 -236.334 135.666 -449.001 132.999c-15.333 -0.666992 -63 -3 -143 -7c-229.333 -11.333 -408.333 -17 -537 -17v-415h100c3.33301 44 10.666 79.333 21.999 106c9.33301 22.667 27.666 53.334 54.999 92.001
c54.667 78 125.667 117 213 117c58.667 0 109.334 -27 152.001 -81l44 -56c12.667 -20.667 20.667 -49 24 -85c4 -41.333 -8 -85.333 -36 -132c-16 -26.667 -38 -49 -66 -67c-30 -19.333 -59.667 -28.666 -89 -27.999v-100c37.333 -5.33301 75.666 -19.333 114.999 -42
c62.667 -36.667 94 -94.334 94 -173.001c0 -27.333 -5.66699 -55.666 -17 -84.999z" />
    <glyph glyph-name="afii10026" unicode="&#x418;" horiz-adv-x="2000" 
d="M1800 900c0 69.333 36.333 130 109 182c63.333 45.333 127 68 191 68v50h-2200v-50c64 0 128 -22.667 192 -68c72 -51.333 108 -112 108 -182v-600c0 -69.333 -36.333 -130 -109 -182c-63.333 -45.333 -127 -68 -191 -68v-50h2200v50c-64 0 -128 22.667 -192 68
c-72 51.333 -108 112 -108 182v600zM1000 70c-54.667 20 -100 48.668 -136 86.001c-42.667 44 -64 92 -64 144v32l400 404v-436c0 -52.667 -21 -100.667 -63 -144c-36 -36.667 -81.667 -65.334 -137 -86.001zM800 900.001c0 52 21.333 100 64 144
c36 37.333 81.333 66 136 86c54.667 -20 100 -48.667 136 -86c42.667 -44 64 -92 64 -144v-26l-400 -400v426z" />
    <glyph glyph-name="afii10027" unicode="&#x419;" horiz-adv-x="2000" 
d="M2100 0l0.000976562 50c-64 0 -128 22.667 -192 68c-72 51.333 -108 112 -108 182v600c0 69.333 36.333 130 109 182c63.333 45.333 127 68 191 68v50h-786c24.667 2 45 12.5 61 31.5s24 41.167 24 66.5c0 66.667 -40 100 -120 100c-87.333 0 -131 -33.333 -131 -100
c0 -8.66699 -21 -16 -63 -22c-28.667 -4 -54.334 -6 -77.001 -6c-25.333 0 -55 2.33301 -89 7c-46 6 -69 13 -69 21c0 66.667 -43.667 100 -131 100c-80 0 -120 -33.333 -120 -100c0 -26 8.66699 -48.833 26 -68.5s39 -29.5 65 -29.5h-790v-50c64 0 128 -22.667 192 -68
c72 -51.333 108 -112 108 -182v-600c0 -69.333 -36.333 -130 -109 -182c-63.333 -45.333 -127 -68 -191 -68v-50h2200zM800.001 300v32l400 404v-436c0 -52.667 -21.333 -100.667 -64 -144c-36 -37.333 -81.333 -66 -136 -86c-54.667 20 -100 48.667 -136 86
c-42.667 44 -64 92 -64 144zM800.001 900c0 52 21.333 100 64 144c36 37.333 81.333 66 136 86c54.667 -20 100 -48.667 136 -86c42.667 -44 64 -92 64 -144v-26l-400 -400v426z" />
    <glyph glyph-name="afii10028" unicode="&#x41a;" 
d="M1800 0l-450 -0.000976562c-92 0 -172 26.333 -240 79c-73.333 57.333 -110 131 -110 221v100c0 48.667 -22 86.667 -66 114c-38 24 -82.667 36 -134 36v-250c0 -69.333 18.667 -130 56 -182c32.667 -45.333 64 -68 94 -68v-50h-1050v50c64 0 127.667 22.667 191 68
c72.667 52 109 112.667 109 182v600c0 70 -36 130.667 -108 182c-64 45.333 -128 68 -192 68v50h1050v-50c-29.333 0 -60.333 -22.667 -93 -68c-38 -53.333 -57 -114 -57 -182v-250c51.333 0 96 12 134 36c44 27.333 66 65.333 66 114v100c0 90 36.667 163.667 110 221
c68 52.667 148 79 240 79h450v-50c-51.333 0 -96 -12 -134 -36c-44 -27.333 -66 -65.333 -66 -114v-100c0 -90 -36.667 -163.667 -110 -221c-68 -52.667 -148 -79 -240 -79c92 0 172 -26.667 240 -80c73.333 -57.333 110 -130.666 110 -219.999v-100
c0 -48.667 22 -86.667 66 -114c38 -24 82.667 -36 134 -36v-50z" />
    <glyph glyph-name="afii10029" unicode="&#x41b;" horiz-adv-x="1721" 
d="M521 300v599.999c0 36 8.83301 71 26.5 105s41.5 59.333 71.5 76c22 12.667 56 19 102 19c61.333 0.666992 107 -14.666 137 -45.999c42 -44 63 -95.333 63 -154v-600c0 -70 -36 -130.667 -108 -182c-64 -45.333 -128 -68 -192 -68v-50h1200v50
c-64 0 -128 22.667 -192 68c-72 51.333 -108 112 -108 182v600c0 69.333 36.333 130 109 182c63.333 45.333 127 68 191 68v50h-1700v-50c64 0 128 -22.667 192 -68c72 -51.333 108 -112 108 -182v-600c0 -69.333 -36.333 -130 -109 -182c-22 -16 -44 -24 -66 -24
c-4.66699 0 -12 1 -22 3s-17.333 3 -22 3c-87.333 12.667 -155 123.667 -203 333l-99 -233c44 -66.667 82.333 -113.667 115 -141c47.333 -39.333 103 -59 167 -59h101c39.333 0 84.333 22 135 66c68.667 59.333 103 137.333 103 234z" />
    <glyph glyph-name="afii10030" unicode="&#x41c;" horiz-adv-x="1950" 
d="M2050 0h-1100v50c70.667 0 130 24 178 72s72 107.333 72 178v600l-350 -900h-150l-350 800v-500c0 -71.333 23.833 -130.833 71.5 -178.5s107.167 -71.5 178.5 -71.5v-50h-650v50c78.667 0 146.667 21.667 204 65c64 47.333 96 109 96 185v600c0 76 -32 137.667 -96 185
c-57.333 43.333 -125.333 65 -204 65v50h800l250 -500l200 500h850v-50c-78.667 0 -146.667 -21.667 -204 -65c-64 -47.333 -96 -109 -96 -185v-600c0 -76 32 -137.667 96 -185c57.333 -43.333 125.333 -65 204 -65v-50z" />
    <glyph glyph-name="afii10031" unicode="&#x41d;" horiz-adv-x="2000" 
d="M2100 0h-2200v50c64 0 127.667 22.667 191 68c72.667 52 109 112.667 109 182v600c0 70 -36 130.667 -108 182c-64 45.333 -128 68 -192 68v50h2200v-50c-64 0 -127.667 -22.667 -191 -68c-72.667 -52 -109 -112.667 -109 -182v-600c0 -70 36 -130.667 108 -182
c64 -45.333 128 -68 192 -68v-50zM1200 650v250c0 52 -21.333 100 -64 144c-36 37.333 -81.333 66 -136 86c-54.667 -20 -100 -48.667 -136 -86c-42.667 -44 -64 -92 -64 -144v-250h400zM1200 300v250h-400v-250c0 -52 21.333 -100 64 -144c36 -37.333 81.333 -66 136 -86
c54.667 20 100 48.667 136 86c42.667 44 64 92 64 144z" />
    <glyph glyph-name="afii10032" unicode="&#x41e;" horiz-adv-x="1500" 
d="M1600 600c0 -126 -40.667 -236.333 -122 -331c-72.667 -84.667 -171.667 -151.334 -297 -200.001c-118.667 -46 -245.667 -69 -381 -69c-211.333 0 -393.333 51 -546 153c-169.333 113.333 -254 262.333 -254 447c0 126 40.667 236.333 122 331
c72.667 84.667 171.667 151.334 297 200.001c118.667 46 245.667 69 381 69c211.333 0 393.333 -51 546 -153c169.333 -113.333 254 -262.333 254 -447zM950 600c0 131.333 -1.66699 218.999 -5 262.999c-12 158 -60.333 237 -145 237c-84 0 -131.333 -72.333 -142 -217
c-5.33301 -72 -8 -166.333 -8 -283c0 -131.333 1.66699 -219 5 -263c12 -158 60.333 -237 145 -237c84 0 132 79 144 237c4 52.667 6 140.334 6 263.001z" />
    <glyph glyph-name="afii10033" unicode="&#x41f;" horiz-adv-x="2000" 
d="M2100 0h-2200v50c64 0 127.667 22.667 191 68c72.667 52 109 112.667 109 182v600c0 70 -36 130.667 -108 182c-64 45.333 -128 68 -192 68v50h2200v-50c-64 0 -127.667 -22.667 -191 -68c-72.667 -52 -109 -112.667 -109 -182v-600c0 -70 36 -130.667 108 -182
c64 -45.333 128 -68 192 -68v-50zM1137 1053c-30 31.333 -75.333 47 -136 47c-62 0 -108 -15.667 -138 -47c-42 -43.333 -63 -94.333 -63 -153v-600c0 -52 21.333 -100 64 -144c36 -37.333 81.333 -66 136 -86c54.667 20 100 48.667 136 86c42.667 44 64 92 64 144v600
c0 58 -21 109 -63 153z" />
    <glyph glyph-name="afii10034" unicode="&#x420;" 
d="M1650 900c0 -92 -26.334 -171.999 -79.001 -239.999c-57.333 -73.333 -131 -110 -221 -110h-550v-250c0 -71.333 23.833 -130.833 71.5 -178.5s107.167 -71.5 178.5 -71.5v-50h-1150v50c78.667 0 146.667 21.667 204 65c64 47.333 96 109 96 185v600
c0 76 -32 137.667 -96 185c-57.333 43.333 -125.333 65 -204 65v50h1450c84.667 0 155.834 -28.833 213.501 -86.5s86.5 -128.834 86.5 -213.501zM1051 863.001l-0.000976562 10c0 62 -22.667 115.5 -68 160.5s-99 67.5 -161 67.5c-9.33301 0 -16.666 -0.333008 -21.999 -1
v-450c4.66699 -0.666992 9 -1 13 -1h13c56.667 0 106.667 19.333 150 58c50 44.667 75 96.667 75 156z" />
    <glyph glyph-name="afii10035" unicode="&#x421;" horiz-adv-x="1450" 
d="M1400 400c-103.333 -220.667 -249.333 -353.001 -438 -397.001c-76.667 -18 -180.667 -27 -312 -27c-188 0 -335.667 57.333 -443 172c-104.667 112 -157 262.667 -157 452c0 199.333 49.667 353 149 461c102.667 112 253 166.333 451 163
c24 -1.33301 71.667 -3.66602 143 -6.99902c234 -11.333 419.667 -17 557 -17v-500h-100c0 107.333 -22.667 197.333 -68 270c-54 86.667 -131.333 130 -232 130c-116 0 -192.333 -91 -229 -273c-14 -69.333 -21 -145 -21 -227c0 -134 16.667 -244.333 50 -331
c43.333 -112.667 110 -169 200 -169c102.667 0 181 56 235 168c43.333 90 65 200.667 65 332z" />
    <glyph glyph-name="afii10036" unicode="&#x422;" horiz-adv-x="1500" 
d="M1500 550l-50.001 0.000976562c0 52 -98.667 195 -296 429c-65.333 77.333 -100 117.666 -104 120.999v-700c0 -99.333 33.5 -182.5 100.5 -249.5s150.167 -100.5 249.5 -100.5v-50h-1300v50c99.333 0 182.5 33.5 249.5 100.5s100.5 150.167 100.5 249.5v700
c-9.33301 -10 -43.666 -50 -102.999 -120c-198 -234 -297 -377.333 -297 -430h-50v650h1500v-650z" />
    <glyph glyph-name="afii10037" unicode="&#x423;" horiz-adv-x="1250" 
d="M640 240l-440 660c-12.667 22 -38.334 63 -77.001 123c-57.333 84.667 -131.666 127 -222.999 127v50h1600v-50c-140 0 -240 -64.333 -300 -193l-360 -774c-16.667 -36.667 -36.667 -67 -60 -91c-58.667 -61.333 -129 -92 -211 -92h-29c-96 0 -178.667 16 -248 48
c-62.667 29.333 -130 80 -202 152l137 233c26 -72.667 66 -145 120 -217c22 -29.333 50.333 -54 85 -74c38 -22 74 -32.667 108 -32c38.667 0.666992 65 3 79 7c26 7.33301 47.667 23.333 65 48zM1100 1000c5.33301 11.333 8 22.001 8 32.001c0 32.667 -18.667 61 -56 85
c-33.333 22 -67.333 33 -102 33c-36 0 -70.333 -10.333 -103 -31c-36.667 -24 -55 -53 -55 -87c0 -12.667 2.66699 -23.334 8 -32.001l170 -280z" />
    <glyph glyph-name="afii10038" unicode="&#x424;" horiz-adv-x="2120" 
d="M618 813c-46 -46 -68.999 -115.668 -68.999 -209.001v-10c0 -3.33301 0.333008 -7.66602 1 -12.999c11.333 -94 36.333 -158.333 75 -193c43.333 -38.667 79.666 -58 108.999 -58h13c4 0 8.33301 0.333008 13 1v550c-1.33301 0 -4.33301 0.333008 -9 1
c-38 4.66699 -82.333 -18.333 -133 -69zM651.001 1082c-63.333 45.333 -127.003 67.999 -191.003 67.999v50h1200v-50c-64 0 -127.667 -22.667 -191 -68c-34.667 -24.667 -71 -58.334 -109 -101.001h510c82.667 0 153.334 -29.333 212.001 -88
c27.333 -27.333 49.333 -68.333 66 -123c14.667 -47.333 22 -93.666 22 -138.999c0 -126 -27.667 -223.333 -83 -292c-58 -72 -130.333 -108 -217 -108h-510c18.667 -28 31 -45.333 37 -52c16.667 -18.667 40.334 -39 71.001 -61c63.333 -45.333 127.333 -68 192 -68v-50
h-1200v50c64 0 128 22.667 192 68c40.667 28.667 76.667 66.334 108 113.001h-510c-86.667 0 -159 36 -217 108c-55.333 68.667 -83 166 -83 292c0 45.333 7.33301 92 22 140c16 53.333 38 94 66 122c58.667 58.667 129.334 88 212.001 88h510
c-34 40 -70.333 73.667 -109 101zM1570 580.998c0.666992 6 0.999023 10.333 0.999023 13v10c0 93.333 -23 163 -69 209c-39.333 39.333 -79.333 62.333 -120 69c-4 0.666992 -11.333 0.333984 -22 -0.999023v-550c4.66699 -0.666992 9 -1 13 -1h13
c52.667 0 97.334 30.333 134.001 91c26 43.333 42.667 96.666 50 159.999z" />
    <glyph glyph-name="afii10039" unicode="&#x425;" horiz-adv-x="1250" 
d="M1450 1150c-129.333 0 -229.333 -64.333 -300 -193l-198 -361l148 -296c40 -80 79.333 -138.667 118 -176c51.333 -49.333 112 -74 182 -74v-50h-1550v50c129.333 0 229.333 64.333 300 193l198 361l-148 296c-40 80 -79.333 138.667 -118 176
c-51.333 49.333 -112 74 -182 74v50h1550v-50zM1050 1000c5.33301 10.667 8 21.334 8 32.001c0 32.667 -18.667 61 -56 85c-33.333 22 -67.333 33 -102 33c-36 0 -70.333 -10.333 -103 -31c-36.667 -24 -55 -53 -55 -87c0 -10.667 2.66699 -21.334 8 -32.001l150 -300z
M550 200l-150 300l-150 -300c-5.33301 -10.667 -8 -21.334 -8 -32.001c0 -32.667 18.667 -61 56 -85c33.333 -22 67.333 -33 102 -33c36 0 70.333 10.333 103 31c36.667 24 55 53 55 87c0 10.667 -2.66699 21.334 -8 32.001z" />
    <glyph glyph-name="afii10040" unicode="&#x426;" horiz-adv-x="2064" 
d="M-100 1200h2200v-50c-64 0 -128 -22.667 -192 -68c-72 -51.333 -108 -112 -108 -182v-550c0 -69.333 36.333 -130 109 -182c63.333 -45.333 127 -68 191 -68h38v-510h-50c-151.333 199.333 -334.666 336 -549.999 410h-1638v50c64 0 128 22.667 192 68
c72 51.333 108 112 108 182v600c0 69.333 -36.333 130 -109 182c-63.333 45.333 -127 68 -191 68v50zM799.999 900v-600c0 -58.667 21 -109.667 63 -153c30 -31.333 76 -47 138 -47c60.667 0 106 15.667 136 47c42 44 63 95 63 153v600c0 52 -21.333 100 -64 144
c-36 37.333 -81.333 66 -136 86c-54.667 -20 -100 -48.667 -136 -86c-42.667 -44 -64 -92 -64 -144z" />
    <glyph glyph-name="afii10041" unicode="&#x427;" horiz-adv-x="1830" 
d="M1930 1150c-78.667 0 -146.669 -21.668 -204.002 -65.001c-64 -47.333 -96 -109 -96 -185v-600c0 -76 32 -137.667 96 -185c57.333 -43.333 125.333 -65 204 -65v-50h-1150v50c71.333 0 130.833 23.833 178.5 71.5s71.5 107.167 71.5 178.5v200
c-20 -0.666992 -81.667 -3.66699 -185 -9c-89.333 -4.66699 -163.333 -7 -222 -7c-29.333 0 -75.666 1.66699 -138.999 5c-87.333 4.66699 -161 44.334 -221 119.001c-46.667 58 -71.667 155.667 -75 293c-0.666992 31.333 -10.667 64.833 -30 100.5
s-41.666 62.5 -66.999 80.5c-63.333 45.333 -127 68 -191 68v50h2030v-50zM778.998 842.999c0 -30 7.33301 -63.333 22 -100c15.333 -38.667 33.333 -67.334 54 -86.001c43.333 -38.667 93 -58 149 -58h13c4 0 8.33301 0.333008 13 1v298c0 66.667 -5 112.334 -15 137.001
c-12.667 31.333 -43 63 -91 95c-90.667 -45.333 -138.667 -119 -144 -221c-0.666992 -13.333 -1 -32 -1 -56v-10z" />
    <glyph glyph-name="afii10042" unicode="&#x428;" horiz-adv-x="2960" 
d="M3060 1200v-50c-64 0 -127.667 -22.667 -191 -68c-72.667 -52 -109 -112.667 -109 -182v-600c0 -70 36 -130.667 108 -182c64 -45.333 128 -68 192 -68v-50h-3160v50c64 0 128 22.667 192 68c72 51.333 108 112 108 182v600c0 69.333 -36.333 130 -109 182
c-63.333 45.333 -127 68 -191 68v50h3160zM1780 900v-599.999c0 -58.667 21 -109.667 63 -153c30 -31.333 72.667 -47 128 -47c54 0 96 15.667 126 47c42 44 63 95 63 153v600c0 48.667 -20.333 95.667 -61 141c-36.667 41.333 -79.667 71 -129 89
c-50 -18.667 -93 -48.334 -129 -89.001c-40.667 -45.333 -61 -92.333 -61 -141zM800 900.001v-599.999c0 -58.667 21 -109.667 63 -153c30 -31.333 72.667 -47 128 -47c54 0 96 15.667 126 47c42 44 63 95 63 153v600c0 48.667 -20.333 95.667 -61 141
c-36.667 41.333 -79.667 71 -129 89c-50 -18.667 -93 -48.334 -129 -89.001c-40.667 -45.333 -61 -92.333 -61 -141z" />
    <glyph glyph-name="afii10043" unicode="&#x429;" horiz-adv-x="3024" 
d="M-100 50c64 0 128 22.667 192 68c72 51.333 108 112 108 182v600c0 69.333 -36.333 130 -109 182c-63.333 45.333 -127 68 -191 68v50h3160v-50c-64 0 -128 -22.667 -192 -68c-72 -51.333 -108 -112 -108 -182v-550c0 -69.333 36.333 -130 109 -182
c63.333 -45.333 127 -68 191 -68h38v-510h-50c-151.333 199.333 -334.666 336 -550 410h-2598v50zM1780 900v-599.999c0 -58.667 21 -109.667 63 -153c30 -31.333 72.667 -47 128 -47c54 0 96 15.667 126 47c42 44 63 95 63 153v600c0 48.667 -20.333 95.667 -61 141
c-36.667 41.333 -79.667 71 -129 89c-50 -18.667 -93 -48.334 -129 -89.001c-40.667 -45.333 -61 -92.333 -61 -141zM800 900.001v-599.999c0 -58.667 21 -109.667 63 -153c30 -31.333 72.667 -47 128 -47c54 0 96 15.667 126 47c42 44 63 95 63 153v600
c0 48.667 -20.333 95.667 -61 141c-36.667 41.333 -79.667 71 -129 89c-50 -18.667 -93 -48.334 -129 -89.001c-40.667 -45.333 -61 -92.333 -61 -141z" />
    <glyph glyph-name="afii10044" unicode="&#x42a;" horiz-adv-x="2110" 
d="M-100 701l50 -0.000976562l510 400c13.333 0 32.333 -6.33301 57 -19c62 -48 93 -108.667 93 -182v-600c0 -76 -32 -137.667 -96 -185c-57.333 -43.333 -125.333 -65 -204 -65v-50h1450c76 0 146.667 32.667 212 98c58.667 58.667 88 129.334 88 212.001
c0 94.667 -26 173.667 -78 237c-55.333 68.667 -129.333 103 -222 103h-550v250c0 71.333 23.833 130.833 71.5 178.5s107.167 71.5 178.5 71.5v50l-1560 1v-500zM1461 337.999l-0.000976562 -11c0 -62 -22.667 -115.5 -68 -160.5s-99 -67.5 -161 -67.5
c-9.33301 0 -16.666 0.333008 -21.999 1v450c4.66699 0.666992 9 1 13 1h13c57.333 0 107.333 -19 150 -57c50 -44.667 75 -96.667 75 -156z" />
    <glyph glyph-name="afii10045" unicode="&#x42b;" horiz-adv-x="2670" 
d="M1650 310c0 94.667 -26 173.666 -78 236.999c-55.333 68.667 -129.333 103 -222 103h-550v250c0 71.333 23.833 130.833 71.5 178.5s107.167 71.5 178.5 71.5v50h-1150v-50c78.667 0 146.667 -21.667 204 -65c64 -47.333 96 -109 96 -185v-600
c0 -76 -32 -137.667 -96 -185c-57.333 -43.333 -125.333 -65 -204 -65v-50h1450c76 0 146.667 32.667 212 98c58.667 58.667 88 129.334 88 212.001zM1051 337.999l-0.000976562 -11c0 -62 -22.667 -115.5 -68 -160.5s-99 -67.5 -161 -67.5
c-9.33301 0 -16.666 0.333008 -21.999 1v450c4.66699 0.666992 9 1 13 1h13c57.333 0 107.333 -19 150 -57c50 -44.667 75 -96.667 75 -156zM2770 -0.000976562h-1200v50c64 0 127.667 22.667 191 68c72.667 52 109 112.667 109 182v600c0 70 -36 130.667 -108 182
c-64 45.333 -128 68 -192 68v50h1200v-50c-64 0 -127.667 -22.667 -191 -68c-72.667 -52 -109 -112.667 -109 -182v-600c0 -70 36 -130.667 108 -182c64 -45.333 128 -68 192 -68v-50z" />
    <glyph glyph-name="afii10046" unicode="&#x42c;" 
d="M1650 310c0 94.667 -26 173.666 -78 236.999c-55.333 68.667 -129.333 103 -222 103h-550v250c0 71.333 23.833 130.833 71.5 178.5s107.167 71.5 178.5 71.5v50h-1150v-50c78.667 0 146.667 -21.667 204 -65c64 -47.333 96 -109 96 -185v-600
c0 -76 -32 -137.667 -96 -185c-57.333 -43.333 -125.333 -65 -204 -65v-50h1450c76 0 146.667 32.667 212 98c58.667 58.667 88 129.334 88 212.001zM1051 337.999l-0.000976562 -11c0 -62 -22.667 -115.5 -68 -160.5s-99 -67.5 -161 -67.5
c-9.33301 0 -16.666 0.333008 -21.999 1v450c4.66699 0.666992 9 1 13 1h13c57.333 0 107.333 -19 150 -57c50 -44.667 75 -96.667 75 -156z" />
    <glyph glyph-name="afii10047" unicode="&#x42d;" horiz-adv-x="1450" 
d="M700 269c-43.333 -112.667 -109.999 -169.001 -199.999 -169.001c-95.333 0 -168.666 42.333 -219.999 127c-20.667 34 -40.667 88.667 -60 164l-140 -190c44 -32 103.667 -71.333 179 -118c47.333 -29.333 123.666 -56 228.999 -80c78.667 -18 182.667 -27 312 -27
c188 0 335.667 57.333 443 172c104.667 112 157 262.667 157 452c0 200 -49.333 353.667 -148 461c-102.667 112 -253.334 166.333 -452.001 163c-24 -1.33301 -71.667 -3.66602 -143 -6.99902c-234 -11.333 -419.667 -17 -557 -17v-480h100
c0 100.667 24.333 186.667 73 258c55.333 81.333 131 122 227 122c116 0 192.333 -91 229 -273c11.333 -56 18.333 -115 21 -177l-300 250v-550l300 250c0 -134 -16.667 -244.333 -50 -331z" />
    <glyph glyph-name="afii10048" unicode="&#x42e;" horiz-adv-x="2390" 
d="M800 550l0.00195312 -250c0 -70 36 -130.667 108 -182c64 -45.333 128 -68 192 -68v-50h-1200v50c64 0 127.667 22.667 191 68c72.667 52 109 112.667 109 182v600c0 70 -36 130.667 -108 182c-64 45.333 -128 68 -192 68v50h1200v-50c-64 0 -127.667 -22.667 -191 -68
c-72.667 -52 -109 -112.667 -109 -182v-250h92c8.66699 118 58 222 148 312c78.667 78.667 179 139 301 181c111.333 38 227.666 57 348.999 57c211.333 0 393.333 -51 545.999 -153c169.333 -113.333 254 -262.333 254 -447c0 -126 -40.667 -236.333 -122 -331
c-72.667 -84.667 -171.667 -151.334 -297 -200.001c-118.667 -46 -245.667 -69 -381 -69c-190.667 0 -361.334 43.667 -512.001 131c-177.333 102.667 -272.666 242.334 -285.999 419.001h-92zM1840 600c0 131.333 -1.66699 218.999 -5 262.999
c-12 158 -60.333 237 -145 237c-84 0 -131.333 -72.333 -142 -217c-5.33301 -72 -8 -166.333 -8 -283c0 -131.333 1.66699 -219 5 -263c12 -158 60.333 -237 145 -237c84 0 132 79 144 237c4 52.667 6 140.334 6 263.001z" />
    <glyph glyph-name="afii10049" unicode="&#x42f;" 
d="M-85 0l450 -0.00195312c91.333 0 168.5 27.333 231.5 82s99.167 127.334 108.5 218.001l10 100c4.66699 48.667 25.667 86.334 63 113.001c34 24.667 76.333 37 127 37v-250c0 -71.333 -23.833 -130.833 -71.5 -178.5s-107.167 -71.5 -178.5 -71.5v-50h1150v50
c-78.667 0 -146.667 21.667 -204 65c-64 47.333 -96 109 -96 185v600c0 76 32 137.667 96 185c57.333 43.333 125.333 65 204 65v50h-1450c-32 0 -69.167 -10.167 -111.5 -30.5s-75.833 -42.833 -100.5 -67.5c-58.667 -58.667 -88 -129.334 -88 -212.001
c0 -85.333 30.667 -155.666 92 -210.999c59.333 -52.667 132 -79 218 -79v-50c-113.333 0 -189.333 -43 -228 -129l-32 -154c-16 -66 -36.333 -116 -61 -150c-32.667 -44.667 -75.667 -67 -129 -67v-50zM654 862.998l0.000976562 10c0 62 22.667 115.5 68 160.5
s99 67.5 161 67.5c9.33301 0 16.666 -0.333008 21.999 -1v-450c-4.66699 -0.666992 -9 -1 -13 -1h-13c-56 0 -105.667 19.333 -149 58c-50.667 45.333 -76 97.333 -76 156z" />
    <glyph glyph-name="afii10065" unicode="&#x430;" horiz-adv-x="1350" 
d="M1500 0l-1800 0.000976562v50h50c112 0 202.667 59.333 272 178c25.333 43.333 51.333 100.666 78 171.999l300 800h500l400 -900c18.667 -41.333 47 -89.333 85 -144c49.333 -70.667 87.666 -106 114.999 -106v-50zM560.001 500.001l-160 350l-136 -350h296z
M626.001 355.001c-0.666992 2 -9.33301 17 -26 45h-373c-18 -30.667 -27 -64 -27 -100c0 -58.667 22.667 -107 68 -145c42.667 -36.667 93.667 -55 153 -55c56.667 0 106.667 16.333 150 49c48 35.333 72 80.333 72 135c0 22 -5.66699 45.667 -17 71z" />
    <glyph glyph-name="afii10066" unicode="&#x431;" 
d="M1177 650c144.667 0 254.668 -21.999 330.001 -65.999c95.333 -56 143 -150.667 143 -284c0 -84.667 -28.833 -155.834 -86.5 -213.501s-128.834 -86.5 -213.501 -86.5h-1450v50c78.667 0 146.667 21.667 204 65c64 47.333 96 109 96 185v600c0 76 -32 137.667 -96 185
c-57.333 43.333 -125.333 65 -204 65v50h1550v-500h-50l-500 400h-100v-450h377zM1050 350.001c-6.66699 58 -31 106 -73 144s-92.333 57 -151 57c-11.333 0 -20 -0.333008 -26 -1v-450c4 -0.666992 8 -1 12 -1h11c62 0 115.5 22.667 160.5 68s67.5 99 67.5 161
c0 8.66699 -0.333008 16 -1 22z" />
    <glyph glyph-name="afii10067" unicode="&#x432;" 
d="M1650 300c0 -84.667 -28.833 -155.832 -86.5 -213.499s-128.834 -86.5 -213.501 -86.5h-1450v50c78.667 0 146.667 21.667 204 65c64 47.333 96 109 96 185v600c0 76 -32 137.667 -96 185c-57.333 43.333 -125.333 65 -204 65v50h1450
c84.667 0 155.834 -28.833 213.501 -86.5s86.5 -128.834 86.5 -213.501c0 -135.333 -47.333 -235.333 -142 -300c94.667 -64 142 -164 142 -300zM1051 863.002l-0.000976562 10c0 62 -22.667 115.5 -68 160.5s-99 67.5 -161 67.5c-9.33301 0 -16.666 -0.333008 -21.999 -1
v-450c4.66699 -0.666992 9 -1 13 -1h13c56.667 0 106.667 19.333 150 58c50 44.667 75 96.667 75 156zM1050 350.002c-6.66699 58 -31 106 -73 144s-92.333 57 -151 57c-11.333 0 -20 -0.333008 -26 -1v-450c4 -0.666992 8 -1 12 -1h11c62 0 115.5 22.667 160.5 68
s67.5 99 67.5 161c0 8.66699 -0.333008 16 -1 22z" />
    <glyph glyph-name="afii10068" unicode="&#x433;" horiz-adv-x="1550" 
d="M1450 1200h-1550v-50c64 0 127.667 -22.667 191 -68c72.667 -52 109 -112.667 109 -182v-600c0 -70 -36 -130.667 -108 -182c-64 -45.333 -128 -68 -192 -68v-50h1200v50c-64 0 -127.667 22.667 -191 68c-72.667 52 -109 112.667 -109 182v800h50l550 -450h50v550z" />
    <glyph glyph-name="afii10069" unicode="&#x434;" horiz-adv-x="1886" 
d="M1412 0l499.999 -400.001h50v500h-100c-79.333 0 -150.666 23 -213.999 69c-70 50.667 -105 114.334 -105 191.001v540c0 69.333 36.333 130 109 182c63.333 45.333 127 68 191 68v50h-1700v-50c64 0 128 -22.667 192 -68c72 -51.333 108 -112 108 -182v-540
c0 -76.667 -36 -140.667 -108 -192c-28 -20 -80 -37 -156 -51c-61.333 -11.333 -113 -17 -155 -17h-100v-500h50l500 400h938zM605.999 1050c32.667 33.333 78.334 50 137.001 50s106.667 -18.667 144 -56s56 -85.333 56 -144v-600c-14 -133.333 -80.667 -200 -200 -200
c-60.667 0 -106.334 16 -137.001 48c-42 44 -63 94.667 -63 152v600c0 56.667 21 106.667 63 150z" />
    <glyph glyph-name="afii10070" unicode="&#x435;" horiz-adv-x="1550" 
d="M1450 0h-1550v50c97.333 0 169.666 16.667 216.999 50c55.333 39.333 83 106 83 200v600c0 166.667 -100 250 -300 250v50h1550v-500h-50l-500 400h-100v-450l300 250v-550l-300 250v-500h50l550 450h50v-550z" />
    <glyph glyph-name="afii10072" unicode="&#x436;" horiz-adv-x="2400" 
d="M1650 0v50c-30 0 -61.333 22.667 -94 68c-37.333 52 -56 112.667 -56 182v250c45.333 0 86 -13.333 122 -40c38.667 -29.333 58 -66 58 -110v-100c0 -90 36.667 -163.667 110 -221c68 -52.667 148 -79 240 -79h450v50c-51.333 0 -96 12 -134 36
c-44 27.333 -66 65.333 -66 114v100c0 89.333 -36.667 162.666 -110 219.999c-68 53.333 -148 80 -240 80c92 0 172 26.333 240 79c73.333 57.333 110 131 110 221v100c0 48.667 22 86.667 66 114c38 24 82.667 36 134 36v50h-450c-92 0 -172 -26.333 -240 -79
c-73.333 -57.333 -110 -131 -110 -221v-100c0 -44 -19.333 -80.667 -58 -110c-36 -26.667 -76.667 -40 -122 -40v250c0 68 19 128.667 57 182c32.667 45.333 63.667 68 93 68v50h-890v-50c44.667 0 80.667 -32.333 108 -97c21.333 -51.333 32 -102.333 32 -153v-250
c-45.333 0 -86 13.333 -122 40c-38.667 29.333 -58 66 -58 110v100c0 90 -36.667 163.667 -110 221c-68 52.667 -148 79 -240 79h-450v-50c51.333 0 96 -12 134 -36c44 -27.333 66 -65.333 66 -114v-100c0 -90 36.667 -163.667 110 -221c68 -52.667 148 -79 240 -79
c-92 0 -172 -26.667 -240 -80c-73.333 -57.333 -110 -130.666 -110 -219.999v-100c0 -48.667 -22 -86.667 -66 -114c-38 -24 -82.667 -36 -134 -36v-50h450c92 -0 172 26.333 240 79c73.333 57.333 110 131 110 221v100c0 44 19.333 80.667 58 110
c36 26.667 76.667 40 122 40v-250c0 -70 -18.667 -130.667 -56 -182c-32.667 -45.333 -64 -68 -94 -68v-50h900z" />
    <glyph glyph-name="afii10073" unicode="&#x437;" horiz-adv-x="1450" 
d="M721 251c-38.667 -100.667 -112.331 -151.002 -220.998 -151.002c-95.333 0 -168.666 42.333 -219.999 127c-20.667 34 -40.667 88.667 -60 164l-140 -190c44 -32 103.667 -71.333 179 -118c47.333 -29.333 123.666 -56 228.999 -80c78.667 -18 182.667 -27 312 -27
c184 0 327.667 51.333 431 154c41.333 41.333 69.333 76 84 104c18 34.667 27.333 79.334 28 134.001c0.666992 62.667 -26 117.334 -80 164.001c-43.333 37.333 -88.333 59.666 -135 66.999c46.667 12 93.334 42 140.001 90c52 53.333 78.333 108.333 79 165
c1.33301 80.667 -34.667 159.667 -108 237c-86.667 91.333 -236.334 135.666 -449.001 132.999c-15.333 -0.666992 -63 -3 -143 -7c-229.333 -11.333 -408.333 -17 -537 -17v-415h100c3.33301 44 10.666 79.333 21.999 106c9.33301 22.667 27.666 53.334 54.999 92.001
c54.667 78 125.667 117 213 117c58.667 0 109.334 -27 152.001 -81l44 -56c12.667 -20.667 20.667 -49 24 -85c4 -41.333 -8 -85.333 -36 -132c-16 -26.667 -38 -49 -66 -67c-30 -19.333 -59.667 -28.666 -89 -27.999v-100c37.333 -5.33301 75.666 -19.333 114.999 -42
c62.667 -36.667 94 -94.334 94 -173.001c0 -27.333 -5.66699 -55.666 -17 -84.999z" />
    <glyph glyph-name="afii10074" unicode="&#x438;" horiz-adv-x="2000" 
d="M1800 900c0 69.333 36.333 130 109 182c63.333 45.333 127 68 191 68v50h-2200v-50c64 0 128 -22.667 192 -68c72 -51.333 108 -112 108 -182v-600c0 -69.333 -36.333 -130 -109 -182c-63.333 -45.333 -127 -68 -191 -68v-50h2200v50c-64 0 -128 22.667 -192 68
c-72 51.333 -108 112 -108 182v600zM1000 70c-54.667 20 -100 48.668 -136 86.001c-42.667 44 -64 92 -64 144v32l400 404v-436c0 -52.667 -21 -100.667 -63 -144c-36 -36.667 -81.667 -65.334 -137 -86.001zM800 900.001c0 52 21.333 100 64 144
c36 37.333 81.333 66 136 86c54.667 -20 100 -48.667 136 -86c42.667 -44 64 -92 64 -144v-26l-400 -400v426z" />
    <glyph glyph-name="afii10075" unicode="&#x439;" horiz-adv-x="2000" 
d="M2100 0l0.000976562 50c-64 0 -128 22.667 -192 68c-72 51.333 -108 112 -108 182v600c0 69.333 36.333 130 109 182c63.333 45.333 127 68 191 68v50h-786c24.667 2 45 12.5 61 31.5s24 41.167 24 66.5c0 66.667 -40 100 -120 100c-87.333 0 -131 -33.333 -131 -100
c0 -8.66699 -21 -16 -63 -22c-28.667 -4 -54.334 -6 -77.001 -6c-25.333 0 -55 2.33301 -89 7c-46 6 -69 13 -69 21c0 66.667 -43.667 100 -131 100c-80 0 -120 -33.333 -120 -100c0 -26 8.66699 -48.833 26 -68.5s39 -29.5 65 -29.5h-790v-50c64 0 128 -22.667 192 -68
c72 -51.333 108 -112 108 -182v-600c0 -69.333 -36.333 -130 -109 -182c-63.333 -45.333 -127 -68 -191 -68v-50h2200zM800.001 300v32l400 404v-436c0 -52.667 -21.333 -100.667 -64 -144c-36 -37.333 -81.333 -66 -136 -86c-54.667 20 -100 48.667 -136 86
c-42.667 44 -64 92 -64 144zM800.001 900c0 52 21.333 100 64 144c36 37.333 81.333 66 136 86c54.667 -20 100 -48.667 136 -86c42.667 -44 64 -92 64 -144v-26l-400 -400v426z" />
    <glyph glyph-name="afii10076" unicode="&#x43a;" 
d="M1800 0l-450 -0.000976562c-92 0 -172 26.333 -240 79c-73.333 57.333 -110 131 -110 221v100c0 48.667 -22 86.667 -66 114c-38 24 -82.667 36 -134 36v-250c0 -69.333 18.667 -130 56 -182c32.667 -45.333 64 -68 94 -68v-50h-1050v50c64 0 127.667 22.667 191 68
c72.667 52 109 112.667 109 182v600c0 70 -36 130.667 -108 182c-64 45.333 -128 68 -192 68v50h1050v-50c-29.333 0 -60.333 -22.667 -93 -68c-38 -53.333 -57 -114 -57 -182v-250c51.333 0 96 12 134 36c44 27.333 66 65.333 66 114v100c0 90 36.667 163.667 110 221
c68 52.667 148 79 240 79h450v-50c-51.333 0 -96 -12 -134 -36c-44 -27.333 -66 -65.333 -66 -114v-100c0 -90 -36.667 -163.667 -110 -221c-68 -52.667 -148 -79 -240 -79c92 0 172 -26.667 240 -80c73.333 -57.333 110 -130.666 110 -219.999v-100
c0 -48.667 22 -86.667 66 -114c38 -24 82.667 -36 134 -36v-50z" />
    <glyph glyph-name="afii10077" unicode="&#x43b;" horiz-adv-x="1721" 
d="M521 300v599.999c0 36 8.83301 71 26.5 105s41.5 59.333 71.5 76c22 12.667 56 19 102 19c61.333 0.666992 107 -14.666 137 -45.999c42 -44 63 -95.333 63 -154v-600c0 -70 -36 -130.667 -108 -182c-64 -45.333 -128 -68 -192 -68v-50h1200v50
c-64 0 -128 22.667 -192 68c-72 51.333 -108 112 -108 182v600c0 69.333 36.333 130 109 182c63.333 45.333 127 68 191 68v50h-1700v-50c64 0 128 -22.667 192 -68c72 -51.333 108 -112 108 -182v-600c0 -69.333 -36.333 -130 -109 -182c-22 -16 -44 -24 -66 -24
c-4.66699 0 -12 1 -22 3s-17.333 3 -22 3c-87.333 12.667 -155 123.667 -203 333l-99 -233c44 -66.667 82.333 -113.667 115 -141c47.333 -39.333 103 -59 167 -59h101c39.333 0 84.333 22 135 66c68.667 59.333 103 137.333 103 234z" />
    <glyph glyph-name="afii10078" unicode="&#x43c;" horiz-adv-x="1950" 
d="M2050 0h-1100v50c70.667 0 130 24 178 72s72 107.333 72 178v600l-350 -900h-150l-350 800v-500c0 -71.333 23.833 -130.833 71.5 -178.5s107.167 -71.5 178.5 -71.5v-50h-650v50c78.667 0 146.667 21.667 204 65c64 47.333 96 109 96 185v600c0 76 -32 137.667 -96 185
c-57.333 43.333 -125.333 65 -204 65v50h800l250 -500l200 500h850v-50c-78.667 0 -146.667 -21.667 -204 -65c-64 -47.333 -96 -109 -96 -185v-600c0 -76 32 -137.667 96 -185c57.333 -43.333 125.333 -65 204 -65v-50z" />
    <glyph glyph-name="afii10079" unicode="&#x43d;" horiz-adv-x="2000" 
d="M2100 0h-2200v50c64 0 127.667 22.667 191 68c72.667 52 109 112.667 109 182v600c0 70 -36 130.667 -108 182c-64 45.333 -128 68 -192 68v50h2200v-50c-64 0 -127.667 -22.667 -191 -68c-72.667 -52 -109 -112.667 -109 -182v-600c0 -70 36 -130.667 108 -182
c64 -45.333 128 -68 192 -68v-50zM1200 650v250c0 52 -21.333 100 -64 144c-36 37.333 -81.333 66 -136 86c-54.667 -20 -100 -48.667 -136 -86c-42.667 -44 -64 -92 -64 -144v-250h400zM1200 300v250h-400v-250c0 -52 21.333 -100 64 -144c36 -37.333 81.333 -66 136 -86
c54.667 20 100 48.667 136 86c42.667 44 64 92 64 144z" />
    <glyph glyph-name="afii10080" unicode="&#x43e;" horiz-adv-x="1500" 
d="M1600 600c0 -126 -40.667 -236.333 -122 -331c-72.667 -84.667 -171.667 -151.334 -297 -200.001c-118.667 -46 -245.667 -69 -381 -69c-211.333 0 -393.333 51 -546 153c-169.333 113.333 -254 262.333 -254 447c0 126 40.667 236.333 122 331
c72.667 84.667 171.667 151.334 297 200.001c118.667 46 245.667 69 381 69c211.333 0 393.333 -51 546 -153c169.333 -113.333 254 -262.333 254 -447zM950 600c0 131.333 -1.66699 218.999 -5 262.999c-12 158 -60.333 237 -145 237c-84 0 -131.333 -72.333 -142 -217
c-5.33301 -72 -8 -166.333 -8 -283c0 -131.333 1.66699 -219 5 -263c12 -158 60.333 -237 145 -237c84 0 132 79 144 237c4 52.667 6 140.334 6 263.001z" />
    <glyph glyph-name="afii10081" unicode="&#x43f;" horiz-adv-x="2000" 
d="M2100 0h-2200v50c64 0 127.667 22.667 191 68c72.667 52 109 112.667 109 182v600c0 70 -36 130.667 -108 182c-64 45.333 -128 68 -192 68v50h2200v-50c-64 0 -127.667 -22.667 -191 -68c-72.667 -52 -109 -112.667 -109 -182v-600c0 -70 36 -130.667 108 -182
c64 -45.333 128 -68 192 -68v-50zM1137 1053c-30 31.333 -75.333 47 -136 47c-62 0 -108 -15.667 -138 -47c-42 -43.333 -63 -94.333 -63 -153v-600c0 -52 21.333 -100 64 -144c36 -37.333 81.333 -66 136 -86c54.667 20 100 48.667 136 86c42.667 44 64 92 64 144v600
c0 58 -21 109 -63 153z" />
    <glyph glyph-name="afii10082" unicode="&#x440;" 
d="M1650 900c0 -92 -26.334 -171.999 -79.001 -239.999c-57.333 -73.333 -131 -110 -221 -110h-550v-250c0 -71.333 23.833 -130.833 71.5 -178.5s107.167 -71.5 178.5 -71.5v-50h-1150v50c78.667 0 146.667 21.667 204 65c64 47.333 96 109 96 185v600
c0 76 -32 137.667 -96 185c-57.333 43.333 -125.333 65 -204 65v50h1450c84.667 0 155.834 -28.833 213.501 -86.5s86.5 -128.834 86.5 -213.501zM1051 863.001l-0.000976562 10c0 62 -22.667 115.5 -68 160.5s-99 67.5 -161 67.5c-9.33301 0 -16.666 -0.333008 -21.999 -1
v-450c4.66699 -0.666992 9 -1 13 -1h13c56.667 0 106.667 19.333 150 58c50 44.667 75 96.667 75 156z" />
    <glyph glyph-name="afii10083" unicode="&#x441;" horiz-adv-x="1450" 
d="M1400 400c-103.333 -220.667 -249.333 -353.001 -438 -397.001c-76.667 -18 -180.667 -27 -312 -27c-188 0 -335.667 57.333 -443 172c-104.667 112 -157 262.667 -157 452c0 199.333 49.667 353 149 461c102.667 112 253 166.333 451 163
c24 -1.33301 71.667 -3.66602 143 -6.99902c234 -11.333 419.667 -17 557 -17v-500h-100c0 107.333 -22.667 197.333 -68 270c-54 86.667 -131.333 130 -232 130c-116 0 -192.333 -91 -229 -273c-14 -69.333 -21 -145 -21 -227c0 -134 16.667 -244.333 50 -331
c43.333 -112.667 110 -169 200 -169c102.667 0 181 56 235 168c43.333 90 65 200.667 65 332z" />
    <glyph glyph-name="afii10084" unicode="&#x442;" horiz-adv-x="1500" 
d="M1500 550l-50.001 0.000976562c0 52 -98.667 195 -296 429c-65.333 77.333 -100 117.666 -104 120.999v-700c0 -99.333 33.5 -182.5 100.5 -249.5s150.167 -100.5 249.5 -100.5v-50h-1300v50c99.333 0 182.5 33.5 249.5 100.5s100.5 150.167 100.5 249.5v700
c-9.33301 -10 -43.666 -50 -102.999 -120c-198 -234 -297 -377.333 -297 -430h-50v650h1500v-650z" />
    <glyph glyph-name="afii10085" unicode="&#x443;" horiz-adv-x="1250" 
d="M640 240l-440 660c-12.667 22 -38.334 63 -77.001 123c-57.333 84.667 -131.666 127 -222.999 127v50h1600v-50c-140 0 -240 -64.333 -300 -193l-360 -774c-16.667 -36.667 -36.667 -67 -60 -91c-58.667 -61.333 -129 -92 -211 -92h-29c-96 0 -178.667 16 -248 48
c-62.667 29.333 -130 80 -202 152l137 233c26 -72.667 66 -145 120 -217c22 -29.333 50.333 -54 85 -74c38 -22 74 -32.667 108 -32c38.667 0.666992 65 3 79 7c26 7.33301 47.667 23.333 65 48zM1100 1000c5.33301 11.333 8 22.001 8 32.001c0 32.667 -18.667 61 -56 85
c-33.333 22 -67.333 33 -102 33c-36 0 -70.333 -10.333 -103 -31c-36.667 -24 -55 -53 -55 -87c0 -12.667 2.66699 -23.334 8 -32.001l170 -280z" />
    <glyph glyph-name="afii10086" unicode="&#x444;" horiz-adv-x="2120" 
d="M618 813c-46 -46 -68.999 -115.668 -68.999 -209.001v-10c0 -3.33301 0.333008 -7.66602 1 -12.999c11.333 -94 36.333 -158.333 75 -193c43.333 -38.667 79.666 -58 108.999 -58h13c4 0 8.33301 0.333008 13 1v550c-1.33301 0 -4.33301 0.333008 -9 1
c-38 4.66699 -82.333 -18.333 -133 -69zM651.001 1082c-63.333 45.333 -127.003 67.999 -191.003 67.999v50h1200v-50c-64 0 -127.667 -22.667 -191 -68c-34.667 -24.667 -71 -58.334 -109 -101.001h510c82.667 0 153.334 -29.333 212.001 -88
c27.333 -27.333 49.333 -68.333 66 -123c14.667 -47.333 22 -93.666 22 -138.999c0 -126 -27.667 -223.333 -83 -292c-58 -72 -130.333 -108 -217 -108h-510c18.667 -28 31 -45.333 37 -52c16.667 -18.667 40.334 -39 71.001 -61c63.333 -45.333 127.333 -68 192 -68v-50
h-1200v50c64 0 128 22.667 192 68c40.667 28.667 76.667 66.334 108 113.001h-510c-86.667 0 -159 36 -217 108c-55.333 68.667 -83 166 -83 292c0 45.333 7.33301 92 22 140c16 53.333 38 94 66 122c58.667 58.667 129.334 88 212.001 88h510
c-34 40 -70.333 73.667 -109 101zM1570 580.998c0.666992 6 0.999023 10.333 0.999023 13v10c0 93.333 -23 163 -69 209c-39.333 39.333 -79.333 62.333 -120 69c-4 0.666992 -11.333 0.333984 -22 -0.999023v-550c4.66699 -0.666992 9 -1 13 -1h13
c52.667 0 97.334 30.333 134.001 91c26 43.333 42.667 96.666 50 159.999z" />
    <glyph glyph-name="afii10087" unicode="&#x445;" horiz-adv-x="1250" 
d="M1450 1150c-129.333 0 -229.333 -64.333 -300 -193l-198 -361l148 -296c40 -80 79.333 -138.667 118 -176c51.333 -49.333 112 -74 182 -74v-50h-1550v50c129.333 0 229.333 64.333 300 193l198 361l-148 296c-40 80 -79.333 138.667 -118 176
c-51.333 49.333 -112 74 -182 74v50h1550v-50zM1050 1000c5.33301 10.667 8 21.334 8 32.001c0 32.667 -18.667 61 -56 85c-33.333 22 -67.333 33 -102 33c-36 0 -70.333 -10.333 -103 -31c-36.667 -24 -55 -53 -55 -87c0 -10.667 2.66699 -21.334 8 -32.001l150 -300z
M550 200l-150 300l-150 -300c-5.33301 -10.667 -8 -21.334 -8 -32.001c0 -32.667 18.667 -61 56 -85c33.333 -22 67.333 -33 102 -33c36 0 70.333 10.333 103 31c36.667 24 55 53 55 87c0 10.667 -2.66699 21.334 -8 32.001z" />
    <glyph glyph-name="afii10088" unicode="&#x446;" horiz-adv-x="2064" 
d="M-100 1200h2200v-50c-64 0 -128 -22.667 -192 -68c-72 -51.333 -108 -112 -108 -182v-550c0 -69.333 36.333 -130 109 -182c63.333 -45.333 127 -68 191 -68h38v-510h-50c-151.333 199.333 -334.666 336 -549.999 410h-1638v50c64 0 128 22.667 192 68
c72 51.333 108 112 108 182v600c0 69.333 -36.333 130 -109 182c-63.333 45.333 -127 68 -191 68v50zM799.999 900v-600c0 -58.667 21 -109.667 63 -153c30 -31.333 76 -47 138 -47c60.667 0 106 15.667 136 47c42 44 63 95 63 153v600c0 52 -21.333 100 -64 144
c-36 37.333 -81.333 66 -136 86c-54.667 -20 -100 -48.667 -136 -86c-42.667 -44 -64 -92 -64 -144z" />
    <glyph glyph-name="afii10089" unicode="&#x447;" horiz-adv-x="1830" 
d="M1930 1150c-78.667 0 -146.669 -21.668 -204.002 -65.001c-64 -47.333 -96 -109 -96 -185v-600c0 -76 32 -137.667 96 -185c57.333 -43.333 125.333 -65 204 -65v-50h-1150v50c71.333 0 130.833 23.833 178.5 71.5s71.5 107.167 71.5 178.5v200
c-20 -0.666992 -81.667 -3.66699 -185 -9c-89.333 -4.66699 -163.333 -7 -222 -7c-29.333 0 -75.666 1.66699 -138.999 5c-87.333 4.66699 -161 44.334 -221 119.001c-46.667 58 -71.667 155.667 -75 293c-0.666992 31.333 -10.667 64.833 -30 100.5
s-41.666 62.5 -66.999 80.5c-63.333 45.333 -127 68 -191 68v50h2030v-50zM778.998 842.999c0 -30 7.33301 -63.333 22 -100c15.333 -38.667 33.333 -67.334 54 -86.001c43.333 -38.667 93 -58 149 -58h13c4 0 8.33301 0.333008 13 1v298c0 66.667 -5 112.334 -15 137.001
c-12.667 31.333 -43 63 -91 95c-90.667 -45.333 -138.667 -119 -144 -221c-0.666992 -13.333 -1 -32 -1 -56v-10z" />
    <glyph glyph-name="afii10090" unicode="&#x448;" horiz-adv-x="2960" 
d="M3060 1200v-50c-64 0 -127.667 -22.667 -191 -68c-72.667 -52 -109 -112.667 -109 -182v-600c0 -70 36 -130.667 108 -182c64 -45.333 128 -68 192 -68v-50h-3160v50c64 0 128 22.667 192 68c72 51.333 108 112 108 182v600c0 69.333 -36.333 130 -109 182
c-63.333 45.333 -127 68 -191 68v50h3160zM1780 900v-599.999c0 -58.667 21 -109.667 63 -153c30 -31.333 72.667 -47 128 -47c54 0 96 15.667 126 47c42 44 63 95 63 153v600c0 48.667 -20.333 95.667 -61 141c-36.667 41.333 -79.667 71 -129 89
c-50 -18.667 -93 -48.334 -129 -89.001c-40.667 -45.333 -61 -92.333 -61 -141zM800 900.001v-599.999c0 -58.667 21 -109.667 63 -153c30 -31.333 72.667 -47 128 -47c54 0 96 15.667 126 47c42 44 63 95 63 153v600c0 48.667 -20.333 95.667 -61 141
c-36.667 41.333 -79.667 71 -129 89c-50 -18.667 -93 -48.334 -129 -89.001c-40.667 -45.333 -61 -92.333 -61 -141z" />
    <glyph glyph-name="afii10091" unicode="&#x449;" horiz-adv-x="3024" 
d="M-100 50c64 0 128 22.667 192 68c72 51.333 108 112 108 182v600c0 69.333 -36.333 130 -109 182c-63.333 45.333 -127 68 -191 68v50h3160v-50c-64 0 -128 -22.667 -192 -68c-72 -51.333 -108 -112 -108 -182v-550c0 -69.333 36.333 -130 109 -182
c63.333 -45.333 127 -68 191 -68h38v-510h-50c-151.333 199.333 -334.666 336 -550 410h-2598v50zM1780 900v-599.999c0 -58.667 21 -109.667 63 -153c30 -31.333 72.667 -47 128 -47c54 0 96 15.667 126 47c42 44 63 95 63 153v600c0 48.667 -20.333 95.667 -61 141
c-36.667 41.333 -79.667 71 -129 89c-50 -18.667 -93 -48.334 -129 -89.001c-40.667 -45.333 -61 -92.333 -61 -141zM800 900.001v-599.999c0 -58.667 21 -109.667 63 -153c30 -31.333 72.667 -47 128 -47c54 0 96 15.667 126 47c42 44 63 95 63 153v600
c0 48.667 -20.333 95.667 -61 141c-36.667 41.333 -79.667 71 -129 89c-50 -18.667 -93 -48.334 -129 -89.001c-40.667 -45.333 -61 -92.333 -61 -141z" />
    <glyph glyph-name="afii10092" unicode="&#x44a;" horiz-adv-x="2110" 
d="M-100 701l50 -0.000976562l510 400c13.333 0 32.333 -6.33301 57 -19c62 -48 93 -108.667 93 -182v-600c0 -76 -32 -137.667 -96 -185c-57.333 -43.333 -125.333 -65 -204 -65v-50h1450c76 0 146.667 32.667 212 98c58.667 58.667 88 129.334 88 212.001
c0 94.667 -26 173.667 -78 237c-55.333 68.667 -129.333 103 -222 103h-550v250c0 71.333 23.833 130.833 71.5 178.5s107.167 71.5 178.5 71.5v50l-1560 1v-500zM1461 337.999l-0.000976562 -11c0 -62 -22.667 -115.5 -68 -160.5s-99 -67.5 -161 -67.5
c-9.33301 0 -16.666 0.333008 -21.999 1v450c4.66699 0.666992 9 1 13 1h13c57.333 0 107.333 -19 150 -57c50 -44.667 75 -96.667 75 -156z" />
    <glyph glyph-name="afii10093" unicode="&#x44b;" horiz-adv-x="2670" 
d="M1650 310c0 94.667 -26 173.666 -78 236.999c-55.333 68.667 -129.333 103 -222 103h-550v250c0 71.333 23.833 130.833 71.5 178.5s107.167 71.5 178.5 71.5v50h-1150v-50c78.667 0 146.667 -21.667 204 -65c64 -47.333 96 -109 96 -185v-600
c0 -76 -32 -137.667 -96 -185c-57.333 -43.333 -125.333 -65 -204 -65v-50h1450c76 0 146.667 32.667 212 98c58.667 58.667 88 129.334 88 212.001zM1051 337.999l-0.000976562 -11c0 -62 -22.667 -115.5 -68 -160.5s-99 -67.5 -161 -67.5
c-9.33301 0 -16.666 0.333008 -21.999 1v450c4.66699 0.666992 9 1 13 1h13c57.333 0 107.333 -19 150 -57c50 -44.667 75 -96.667 75 -156zM2770 -0.000976562h-1200v50c64 0 127.667 22.667 191 68c72.667 52 109 112.667 109 182v600c0 70 -36 130.667 -108 182
c-64 45.333 -128 68 -192 68v50h1200v-50c-64 0 -127.667 -22.667 -191 -68c-72.667 -52 -109 -112.667 -109 -182v-600c0 -70 36 -130.667 108 -182c64 -45.333 128 -68 192 -68v-50z" />
    <glyph glyph-name="afii10094" unicode="&#x44c;" 
d="M1650 310c0 94.667 -26 173.666 -78 236.999c-55.333 68.667 -129.333 103 -222 103h-550v250c0 71.333 23.833 130.833 71.5 178.5s107.167 71.5 178.5 71.5v50h-1150v-50c78.667 0 146.667 -21.667 204 -65c64 -47.333 96 -109 96 -185v-600
c0 -76 -32 -137.667 -96 -185c-57.333 -43.333 -125.333 -65 -204 -65v-50h1450c76 0 146.667 32.667 212 98c58.667 58.667 88 129.334 88 212.001zM1051 337.999l-0.000976562 -11c0 -62 -22.667 -115.5 -68 -160.5s-99 -67.5 -161 -67.5
c-9.33301 0 -16.666 0.333008 -21.999 1v450c4.66699 0.666992 9 1 13 1h13c57.333 0 107.333 -19 150 -57c50 -44.667 75 -96.667 75 -156z" />
    <glyph glyph-name="afii10095" unicode="&#x44d;" horiz-adv-x="1450" 
d="M700 269c-43.333 -112.667 -109.999 -169.001 -199.999 -169.001c-95.333 0 -168.666 42.333 -219.999 127c-20.667 34 -40.667 88.667 -60 164l-140 -190c44 -32 103.667 -71.333 179 -118c47.333 -29.333 123.666 -56 228.999 -80c78.667 -18 182.667 -27 312 -27
c188 0 335.667 57.333 443 172c104.667 112 157 262.667 157 452c0 200 -49.333 353.667 -148 461c-102.667 112 -253.334 166.333 -452.001 163c-24 -1.33301 -71.667 -3.66602 -143 -6.99902c-234 -11.333 -419.667 -17 -557 -17v-480h100
c0 100.667 24.333 186.667 73 258c55.333 81.333 131 122 227 122c116 0 192.333 -91 229 -273c11.333 -56 18.333 -115 21 -177l-300 250v-550l300 250c0 -134 -16.667 -244.333 -50 -331z" />
    <glyph glyph-name="afii10096" unicode="&#x44e;" horiz-adv-x="2390" 
d="M800 550l0.00195312 -250c0 -70 36 -130.667 108 -182c64 -45.333 128 -68 192 -68v-50h-1200v50c64 0 127.667 22.667 191 68c72.667 52 109 112.667 109 182v600c0 70 -36 130.667 -108 182c-64 45.333 -128 68 -192 68v50h1200v-50c-64 0 -127.667 -22.667 -191 -68
c-72.667 -52 -109 -112.667 -109 -182v-250h92c8.66699 118 58 222 148 312c78.667 78.667 179 139 301 181c111.333 38 227.666 57 348.999 57c211.333 0 393.333 -51 545.999 -153c169.333 -113.333 254 -262.333 254 -447c0 -126 -40.667 -236.333 -122 -331
c-72.667 -84.667 -171.667 -151.334 -297 -200.001c-118.667 -46 -245.667 -69 -381 -69c-190.667 0 -361.334 43.667 -512.001 131c-177.333 102.667 -272.666 242.334 -285.999 419.001h-92zM1840 600c0 131.333 -1.66699 218.999 -5 262.999
c-12 158 -60.333 237 -145 237c-84 0 -131.333 -72.333 -142 -217c-5.33301 -72 -8 -166.333 -8 -283c0 -131.333 1.66699 -219 5 -263c12 -158 60.333 -237 145 -237c84 0 132 79 144 237c4 52.667 6 140.334 6 263.001z" />
    <glyph glyph-name="afii10097" unicode="&#x44f;" 
d="M-85 0l450 -0.00195312c91.333 0 168.5 27.333 231.5 82s99.167 127.334 108.5 218.001l10 100c4.66699 48.667 25.667 86.334 63 113.001c34 24.667 76.333 37 127 37v-250c0 -71.333 -23.833 -130.833 -71.5 -178.5s-107.167 -71.5 -178.5 -71.5v-50h1150v50
c-78.667 0 -146.667 21.667 -204 65c-64 47.333 -96 109 -96 185v600c0 76 32 137.667 96 185c57.333 43.333 125.333 65 204 65v50h-1450c-32 0 -69.167 -10.167 -111.5 -30.5s-75.833 -42.833 -100.5 -67.5c-58.667 -58.667 -88 -129.334 -88 -212.001
c0 -85.333 30.667 -155.666 92 -210.999c59.333 -52.667 132 -79 218 -79v-50c-113.333 0 -189.333 -43 -228 -129l-32 -154c-16 -66 -36.333 -116 -61 -150c-32.667 -44.667 -75.667 -67 -129 -67v-50zM654 862.998l0.000976562 10c0 62 22.667 115.5 68 160.5
s99 67.5 161 67.5c9.33301 0 16.666 -0.333008 21.999 -1v-450c-4.66699 -0.666992 -9 -1 -13 -1h-13c-56 0 -105.667 19.333 -149 58c-50.667 45.333 -76 97.333 -76 156z" />
    <glyph glyph-name="afii10071" unicode="&#x451;" horiz-adv-x="1550" 
d="M1450 0h-1550v50c97.333 0 169.666 16.667 216.999 50c55.333 39.333 83 106 83 200v600c0 166.667 -100 250 -300 250v50h1550v-500h-50l-500 400h-100v-450l300 250v-550l-300 250v-500h50l550 450h50v-550zM1025 1200c-80 0 -120 33.333 -120 100s40 100 120 100
s120 -33.333 120 -100s-40 -100 -120 -100zM525.001 1200c-80 0 -120 33.333 -120 100s40 100 120 100s120 -33.333 120 -100s-40 -100 -120 -100z" />
    <glyph glyph-name=".null" horiz-adv-x="0" 
 />
    <glyph glyph-name="nonmarkingreturn" horiz-adv-x="499" 
 />
    <glyph glyph-name="glyph229" horiz-adv-x="499" 
 />
    <glyph glyph-name="glyph230" horiz-adv-x="499" 
 />
    <glyph glyph-name="glyph229" horiz-adv-x="499" 
 />
    <glyph glyph-name="glyph230" horiz-adv-x="499" 
 />
    <glyph glyph-name="ch380" horiz-adv-x="499" 
 />
    <glyph glyph-name="ch381" horiz-adv-x="499" 
 />
    <glyph glyph-name=".null" horiz-adv-x="0" 
 />
  </font>
</defs>
</svg>
