<?xml version="1.0" encoding="UTF-8"?> <svg xmlns="http://www.w3.org/2000/svg" width="288" height="61" fill="none"><path d="M27.417 35.505l.503.125c-1.73 9.729-8.332 12.638-13.394 12.638-7.294 0-14.494-5.818-14.494-16.86C.032 20.802 6.32 13.2 14.966 13.2c5.408 0 13.08 2.847 13.08 14.86h-18.3c.944 7.131 4.748 10.823 10.408 10.823 3.175-.032 5.534-.97 7.263-3.379zM9.495 24.337c0 .595 0 1.19.063 1.784h7.892c0-8.353-1.32-10.824-3.867-10.824-2.641 0-4.088 3.347-4.088 9.04zm38.421 22.68v.313H29.618v-.313c1.792-.75 3.112-2.159 3.112-4.724V10.855c0-2.409-.88-3.973-3.112-4.724V5.82l15.186-4.6v41.073c0 2.566 1.352 3.973 3.112 4.724zm22.103 0v.313H51.721v-.313c1.76-.75 3.112-2.159 3.112-4.724V22.898c0-3.034-.817-4.348-3.112-5.067v-.313l15.186-4.286v29.061c0 2.566 1.352 3.973 3.112 4.724zM54.267 6.507c-.031-3.441 2.767-6.288 6.226-6.32 3.458-.03 6.32 2.754 6.35 6.195.032 3.44-2.766 6.287-6.225 6.319h-.062c-3.427.03-6.257-2.722-6.289-6.132v-.062zm40.025 32.408c-1.415 4.661-5.22 9.353-11.822 9.353-6.037 0-8.71-3.847-8.71-9.103V15.891h-3.112v-.313c4.905-4.16 10.093-8.008 15.123-12.387h.063v11.074h5.848v1.595h-5.848v21.616c0 2.721 1.195 4.473 3.427 4.473 2.484 0 3.868-1.658 4.434-3.222l.597.188zm28.957-3.41l.503.125c-1.729 9.729-8.332 12.638-13.394 12.638-7.294 0-14.494-5.818-14.494-16.86 0-10.605 6.288-18.207 14.934-18.207 5.408 0 13.08 2.847 13.08 14.86h-18.267c.943 7.131 4.747 10.823 10.407 10.823 3.175-.032 5.533-.97 7.231-3.379zm-17.921-11.168c0 .595 0 1.19.063 1.784h7.86c0-8.353-1.321-10.824-3.867-10.824-2.579 0-4.025 3.347-4.056 9.04zm68.824 22.68v.313h-15.186v-5.631c-1.195 3.598-4.056 6.57-8.835 6.57-7.043 0-11.319-6.758-11.319-16.299 0-10.98 6.603-18.769 15.501-18.769 2.232 0 3.616.5 4.622 1.251v-3.628c0-2.347-1.415-4.16-4.716-4.16V6.35l16.789-5.13v41.073c.031 3.191 1.352 3.973 3.144 4.724zm-15.186-6.382v-24.65c-.503-.5-1.069-.625-1.855-.625-3.364 0-5.282 5.818-5.282 13.388 0 8.54 2.295 13.201 4.842 13.201 1.258 0 1.918-.563 2.295-1.314zm53.041 6.382v.313h-15.186v-5.318c-1.195 3.66-5.219 6.256-9.526 6.256-6.477 0-10.596-5.756-10.596-14.671 0-12.45 7.766-20.396 19.934-20.396 4.716 0 8.897.876 12.262 2.534v26.527c0 2.596.754 3.723 3.112 4.755zm-15.186-6.069V15.36c-.44-.25-.943-.345-1.478-.313-3.301 0-5.659 5.318-5.659 12.763 0 8.665 1.981 14.14 5.031 14.14 1.006 0 1.729-.314 2.106-1.002zm36 6.069v.313h-18.299v-.313c1.793-.75 3.113-2.159 3.113-4.724V22.898c0-3.034-.817-4.348-3.113-5.067v-.313l15.186-4.286v29.061c0 2.566 1.352 3.973 3.113 4.724zm-15.752-40.51c-.031-3.441 2.767-6.288 6.226-6.32 3.458-.03 6.319 2.754 6.351 6.195.031 3.44-2.767 6.287-6.226 6.319h-.063c-3.427.03-6.256-2.69-6.288-6.132v-.062zm36.283 40.51v.313h-18.299v-.313c1.793-.75 3.113-2.159 3.113-4.724V10.855c0-2.409-.88-3.973-3.113-4.724V5.82l15.186-4.599v41.073c0 2.566 1.321 3.973 3.113 4.724z" fill="#fff"></path><path d="M251.12 58.78l3.553-9.667h.314c1.981 1.908 5.66 2.847 7.766 2.847 3.93 0 6.351-.814 7.766-2.847l.252-.375-13.111-29.343c-1.195-2.659-2.736-4.41-4.182-4.942v-.313h19.305v.313c-1.855.625-2.673 1.438-2.673 2.846 0 1.032.189 2.034.566 2.972l5.094 13.138 4.968-12.387c.44-.97.66-2.034.691-3.097 0-1.846-1.006-3.035-2.987-3.473v-.312h9.527v.313c-2.044.688-3.113 2.346-4.433 5.693l-11.508 29.468c-3.427 8.852-7.703 11.324-13.394 11.324-1.855-.032-5.03-.532-7.514-2.159z" fill="#fff"></path></svg> 