<svg xmlns="http://www.w3.org/2000/svg" width="294.5" height="42.5"><path fill="#FFF" d="M219.411 10.234a.475.475 0 0 0-.478-.477h-7.338a.513.513 0 0 0-.312.112l-10.917 9.264v-8.899a.478.478 0 0 0-.478-.477h-5.543a.478.478 0 0 0-.477.477v29.574c0 .263.216.473.477.473h5.543c.264 0 .478-.21.478-.473V28.469l10.771 11.661a.47.47 0 0 0 .346.15h7.451c.268 0 .478-.245.478-.508a.442.442 0 0 0-.128-.317l-14.601-15.85 14.571-12.973a.594.594 0 0 0 .157-.398zm71.603-.485h-24.025a.454.454 0 0 0-.135.021.474.474 0 0 0-.381.466v29.576c0 .262.253.473.516.473h24.025a.472.472 0 0 0 .476-.473v-17.97a.473.473 0 0 0-.476-.476H278.08a.474.474 0 0 0-.477.476v5.364c0 .264.211.475.477.475h6.913v6.104h-11.986l-.001-17.531h18.008a.474.474 0 0 0 .476-.479v-5.547a.477.477 0 0 0-.476-.479zm-30.414.008h-5.551a.477.477 0 0 0-.473.479V28.34L240.637 9.946a.47.47 0 0 0-.451-.176h-5.473c-.26 0-.47.212-.47.474v29.575c0 .264.21.473.47.473h5.545c.266 0 .48-.209.48-.473V21.683l13.874 18.321a.476.476 0 0 0 .437.281h5.551a.472.472 0 0 0 .472-.473V10.236a.476.476 0 0 0-.472-.479zm-108.981.013h-5.546a.476.476 0 0 0-.475.474v18.11L131.667 9.946a.475.475 0 0 0-.435-.176h-5.487a.471.471 0 0 0-.477.474v29.575a.47.47 0 0 0 .477.473h5.542a.472.472 0 0 0 .475-.473v-18.13l13.877 18.325a.469.469 0 0 0 .433.277h5.546a.47.47 0 0 0 .473-.473V10.244a.471.471 0 0 0-.472-.474zm76.704-.013h-5.545a.477.477 0 0 0-.476.477v29.572c0 .265.214.472.476.472h5.545a.472.472 0 0 0 .475-.472V10.234a.477.477 0 0 0-.475-.477zM90.526 9.77H66.495a.474.474 0 0 0-.474.474v29.575c0 .264.212.473.474.473h5.55a.47.47 0 0 0 .472-.473V27.634h12.462a.473.473 0 0 0 .475-.476v-5.354a.473.473 0 0 0-.475-.477H72.517v-5.062h18.009a.477.477 0 0 0 .478-.474v-5.548a.477.477 0 0 0-.478-.473zm28.719 0H95.213a.474.474 0 0 0-.477.474v29.575c0 .264.211.473.477.473h24.031a.47.47 0 0 0 .476-.473V10.244a.472.472 0 0 0-.475-.474zm-6.023 24.021h-11.986V16.26h11.986v17.531zM182.186 9.77h-24.031a.473.473 0 0 0-.475.474v29.575c0 .264.211.473.475.473h24.031a.472.472 0 0 0 .472-.473v-5.541a.475.475 0 0 0-.472-.477h-18.015v-6.096h12.47a.47.47 0 0 0 .472-.475v-5.363a.471.471 0 0 0-.472-.47h-12.47v-5.132h18.015a.475.475 0 0 0 .472-.474v-5.548a.475.475 0 0 0-.472-.473z"/><path fill="#FFC627" d="M16.271 23.777h-2.423a.313.313 0 0 0-.313.313v15.882c0 .175.14.314.313.314h2.423c.173 0 .314-.14.314-.314V24.091a.313.313 0 0 0-.314-.314zm-5.163-6.687H8.681c-.17 0-.313.14-.313.314v22.568c0 .175.143.314.313.314h2.427c.172 0 .313-.14.313-.314V17.404a.314.314 0 0 0-.313-.314zm10.33 0h-2.43a.312.312 0 0 0-.311.314v22.568a.31.31 0 0 0 .311.314h2.43c.17 0 .31-.14.31-.314V17.404a.312.312 0 0 0-.31-.314zM5.945 9.563H3.519a.314.314 0 0 0-.312.314v30.095c0 .175.139.314.312.314h2.426c.175 0 .314-.14.314-.314V9.878a.314.314 0 0 0-.314-.315zm20.65 0H24.17a.317.317 0 0 0-.312.314v30.095c0 .175.143.314.312.314h2.425c.177 0 .316-.14.316-.314V9.878a.315.315 0 0 0-.316-.315zm20.653 14.214h-2.424a.312.312 0 0 0-.312.313v15.882c0 .175.139.314.312.314h2.424c.176 0 .315-.14.315-.314V24.091a.313.313 0 0 0-.315-.314zm-5.165-6.687H39.66a.311.311 0 0 0-.311.314v22.568a.31.31 0 0 0 .311.314h2.423c.172 0 .314-.14.314-.314V17.404a.314.314 0 0 0-.314-.314zm10.331 0h-2.428c-.17 0-.309.14-.309.314v22.568a.31.31 0 0 0 .309.314h2.428c.17 0 .31-.14.31-.314V17.404a.312.312 0 0 0-.31-.314zM36.922 9.563H34.5a.316.316 0 0 0-.317.314v30.095c0 .175.14.314.317.314h2.422c.175 0 .315-.14.315-.314V9.878a.316.316 0 0 0-.315-.315zM31.76 2.038h-2.423a.313.313 0 0 0-.313.316v37.619c0 .175.14.314.313.314h2.423c.176 0 .318-.14.318-.314V2.354a.316.316 0 0 0-.318-.316zm25.81 7.525h-2.418a.314.314 0 0 0-.312.314v30.095c0 .175.139.314.312.314h2.418c.176 0 .315-.14.315-.314V9.878a.315.315 0 0 0-.315-.315z"/></svg>