<?xml version="1.0" encoding="UTF-8"?> <!-- Generator: Adobe Illustrator 22.1.0, SVG Export Plug-In . SVG Version: 6.00 Build 0) --> <svg xmlns="http://www.w3.org/2000/svg" xmlns:xlink="http://www.w3.org/1999/xlink" id="Слой_1" x="0px" y="0px" viewBox="0 0 455.3 444.7" style="enable-background:new 0 0 455.3 444.7;" xml:space="preserve"> <style type="text/css"> .st0{clip-path:url(#SVGID_2_);} .st1{fill:#9A9A9A;} .st2{fill:#FFFFFF;} </style> <g> <g> <defs> <rect id="SVGID_1_" x="3.9" y="4.3" width="448.6" height="349.6"></rect> </defs> <clipPath id="SVGID_2_"> <use xlink:href="#SVGID_1_" style="overflow:visible;"></use> </clipPath> <g class="st0"> <rect x="-8.9" y="329" transform="matrix(0.7071 -0.7071 0.7071 0.7071 -204.0229 219.0974)" class="st1" width="342.8" height="53.6"></rect> <rect x="53.5" y="391.4" transform="matrix(0.7071 -0.7071 0.7071 0.7071 -229.8884 281.4968)" class="st1" width="342.8" height="53.6"></rect> <rect x="156" y="-67.5" transform="matrix(0.7071 -0.7071 0.7071 0.7071 -121.476 201.7788)" class="st2" width="53.6" height="630"></rect> <rect x="233.6" y="87.1" transform="matrix(0.7071 -0.7071 0.7071 0.7071 37.9748 319.3811)" class="st2" width="341.8" height="53.6"></rect> <rect x="296.1" y="149.4" transform="matrix(0.7071 -0.7071 0.7071 0.7071 12.1799 381.8098)" class="st2" width="341.8" height="53.6"></rect> <rect x="92.3" y="-6.4" transform="matrix(0.7071 -0.7071 0.7071 0.7071 -183.3047 174.6129)" class="st2" width="53.6" height="630"></rect> <rect x="30.6" y="54.9" transform="matrix(0.7071 -0.7071 0.7071 0.7071 -244.7743 148.9252)" class="st2" width="53.6" height="630"></rect> <rect x="341.2" y="222.7" transform="matrix(0.7071 -0.7071 0.7071 0.7071 -23.0293 443.4603)" class="st2" width="365.1" height="53.6"></rect> </g> </g> </g> <g> <path class="st2" d="M13.3,432.9h19.9v8.9H4v-47.2h28.9v8.9H13.3v10h17.9v8.8H13.3L13.3,432.9L13.3,432.9z"></path> <path class="st2" d="M39.7,425.7v-8.4H65v8.4H39.7z"></path> <path class="st2" d="M120,394.6v47.2h-9.2v-30.6l-13.3,21.9h-1.1l-13.3-21.8v30.5h-9.3v-47.2h9.6L97,416.9l13.5-22.3H120z"></path> <path class="st2" d="M159.1,441.8l-2.8-8.5h-18.8l-2.8,8.5h-10l16.5-47.2h11.5l16.6,47.2H159.1z M140.4,424.6h12.9l-6.5-19.3 L140.4,424.6z"></path> <path class="st2" d="M199.7,441.8l-9.5-16.4h-7.1v16.4h-9.3v-47.2h18.9c4.4,0,8.1,1.5,11.1,4.6c3.1,3.1,4.6,6.7,4.6,11.1 c0,2.9-0.8,5.6-2.5,8.1s-3.9,4.4-6.6,5.6l10.5,17.8L199.7,441.8L199.7,441.8z M183.1,403.3v14h9.6c1.8,0,3.3-0.7,4.5-2.1 s1.9-3,1.9-5c0-1.9-0.6-3.6-1.9-4.9c-1.3-1.3-2.8-2-4.5-2H183.1z"></path> <path class="st2" d="M252.1,441.8h-10.7l-16.9-22.1v22.1h-9.3v-47.2h9.3v20.8l16.2-20.8h10.7l-17.5,22.9L252.1,441.8z"></path> <path class="st2" d="M266,432.9h19.9v8.9h-29.2v-47.2h28.9v8.9H266v10h17.9v8.8H266V432.9z"></path> <path class="st2" d="M323.6,394.6v8.9h-12.7v38.3h-9.3v-38.3h-12.7v-8.9H323.6z"></path> <path class="st2" d="M355.7,394.6h9.2v47.2h-9.2v-19.5h-17.5v19.6h-9.3v-47.2h9.3v18.7h17.5V394.6z"></path> <path class="st2" d="M391.3,442.8c-5.3,0-9.6-1.5-12.9-4.5c-3.4-3-5.1-6.9-5.1-11.9v-31.8h9.2v31c0,2.5,0.7,4.4,2.1,5.9 s3.6,2.2,6.6,2.2s5.2-0.7,6.6-2.2c1.4-1.4,2.1-3.4,2.1-5.9v-31h9.3v31.8c0,5-1.7,9-5.1,11.9C400.9,441.3,396.6,442.8,391.3,442.8z"></path> <path class="st2" d="M446.2,417.4c4.1,2.4,6.2,6,6.2,10.8c0,4-1.4,7.3-4.2,9.8c-2.8,2.6-6.3,3.8-10.5,3.8h-20v-47.2h18.6 c4,0,7.5,1.2,10.2,3.7c2.8,2.5,4.1,5.7,4.1,9.5C450.7,411.8,449.2,415,446.2,417.4z M436.3,403.3H427v10.4h9.3 c1.4,0,2.6-0.5,3.6-1.5s1.5-2.2,1.5-3.7s-0.5-2.7-1.4-3.7C439,403.8,437.8,403.3,436.3,403.3z M437.7,433.1c1.6,0,2.9-0.5,3.9-1.6 s1.6-2.4,1.6-4s-0.5-2.9-1.6-3.9c-1-1.1-2.3-1.6-3.9-1.6H427v11.1H437.7z"></path> </g> </svg> 