<?xml version="1.0" encoding="UTF-8"?> <!-- Generator: Adobe Illustrator 22.1.0, SVG Export Plug-In . SVG Version: 6.00 Build 0) --> <svg xmlns="http://www.w3.org/2000/svg" xmlns:xlink="http://www.w3.org/1999/xlink" id="Слой_1" x="0px" y="0px" viewBox="0 0 1920 1080" style="enable-background:new 0 0 1920 1080;" xml:space="preserve"> <style type="text/css"> .st0{clip-path:url(#SVGID_2_);} .st1{fill:#9A9A9A;} .st2{fill:#FFFFFF;} </style> <g> <defs> <rect id="SVGID_1_" x="719.9" y="251" width="448.6" height="349.6"></rect> </defs> <clipPath id="SVGID_2_"> <use xlink:href="#SVGID_1_" style="overflow:visible;"></use> </clipPath> <g class="st0"> <rect x="707.1" y="575.7" transform="matrix(0.7071 -0.7071 0.7071 0.7071 -168.7525 797.6523)" class="st1" width="342.8" height="53.6"></rect> <rect x="769.5" y="638.1" transform="matrix(0.7071 -0.7071 0.7071 0.7071 -194.6086 860.0746)" class="st1" width="342.8" height="53.6"></rect> <rect x="583.8" y="467.4" transform="matrix(0.7071 0.7071 -0.7071 0.7071 612.7379 -490.7997)" class="st2" width="630" height="53.6"></rect> <rect x="949.6" y="333.7" transform="matrix(0.7071 -0.7071 0.7071 0.7071 73.2995 897.9135)" class="st2" width="341.8" height="53.6"></rect> <rect x="1012.1" y="396.1" transform="matrix(0.7071 -0.7071 0.7071 0.7071 47.4433 960.3358)" class="st2" width="341.8" height="53.6"></rect> <rect x="520.1" y="528.4" transform="matrix(0.7071 0.7071 -0.7071 0.7071 637.2068 -427.8397)" class="st2" width="630" height="53.6"></rect> <rect x="458.4" y="589.8" transform="matrix(0.7071 0.7071 -0.7071 0.7071 662.5081 -366.271)" class="st2" width="630" height="53.6"></rect> <rect x="1057.3" y="469.4" transform="matrix(0.7071 -0.7071 0.7071 0.7071 12.2284 1022.0306)" class="st2" width="365.1" height="53.6"></rect> </g> </g> <g> <path class="st2" d="M729.3,679.6h19.9v8.9H720v-47.2h28.9v8.9h-19.6v10h17.9v8.8h-17.9V679.6z"></path> <path class="st2" d="M755.7,672.4V664H781v8.4H755.7z"></path> <path class="st2" d="M836,641.3v47.2h-9.2v-30.6l-13.3,21.9h-1.1L799.1,658v30.5h-9.3v-47.2h9.6l13.6,22.3l13.5-22.3H836z"></path> <path class="st2" d="M875.1,688.5l-2.8-8.5h-18.8l-2.8,8.5h-10l16.5-47.2h11.5l16.6,47.2H875.1z M856.4,671.3h12.9l-6.5-19.3 L856.4,671.3z"></path> <path class="st2" d="M915.7,688.5l-9.5-16.4h-7.1v16.4h-9.3v-47.2h18.9c4.4,0,8.1,1.5,11.1,4.6c3.1,3.1,4.6,6.7,4.6,11.1 c0,2.9-0.8,5.6-2.5,8.1c-1.7,2.5-3.9,4.4-6.6,5.6l10.5,17.8H915.7z M899.1,650v14h9.6c1.8,0,3.3-0.7,4.5-2.1s1.9-3,1.9-5 c0-1.9-0.6-3.6-1.9-4.9c-1.3-1.3-2.8-2-4.5-2H899.1z"></path> <path class="st2" d="M968.1,688.5h-10.7l-16.9-22.1v22.1h-9.3v-47.2h9.3v20.8l16.2-20.8h10.7l-17.5,22.9L968.1,688.5z"></path> <path class="st2" d="M982,679.6h19.9v8.9h-29.2v-47.2h28.9v8.9H982v10h17.9v8.8H982V679.6z"></path> <path class="st2" d="M1039.6,641.3v8.9h-12.7v38.3h-9.3v-38.3h-12.7v-8.9H1039.6z"></path> <path class="st2" d="M1071.7,641.3h9.2v47.2h-9.2V669h-17.5v19.6h-9.3v-47.2h9.3v18.7h17.5V641.3z"></path> <path class="st2" d="M1107.3,689.5c-5.3,0-9.6-1.5-12.9-4.5c-3.4-3-5.1-6.9-5.1-11.9v-31.8h9.2v31c0,2.5,0.7,4.4,2.1,5.9 s3.6,2.2,6.6,2.2c3,0,5.2-0.7,6.6-2.2c1.4-1.4,2.1-3.4,2.1-5.9v-31h9.3v31.8c0,5-1.7,9-5.1,11.9 C1116.9,688,1112.6,689.5,1107.3,689.5z"></path> <path class="st2" d="M1162.2,664.1c4.1,2.4,6.2,6,6.2,10.8c0,4-1.4,7.3-4.2,9.8c-2.8,2.6-6.3,3.8-10.5,3.8h-20v-47.2h18.6 c4,0,7.5,1.2,10.2,3.7c2.8,2.5,4.1,5.7,4.1,9.5C1166.7,658.5,1165.2,661.7,1162.2,664.1z M1152.3,650h-9.3v10.4h9.3 c1.4,0,2.6-0.5,3.6-1.5c1-1,1.5-2.2,1.5-3.7c0-1.5-0.5-2.7-1.4-3.7C1155,650.5,1153.8,650,1152.3,650z M1153.7,679.8 c1.6,0,2.9-0.5,3.9-1.6c1-1.1,1.6-2.4,1.6-4c0-1.6-0.5-2.9-1.6-3.9c-1-1.1-2.3-1.6-3.9-1.6H1143v11.1H1153.7z"></path> </g> </svg> 